<?xml version="1.0" encoding="utf-8"?>
<!-- Generator: Adobe Illustrator 25.1.0, SVG Export Plug-In . SVG Version: 6.00 Build 0)  -->
<svg version="1.1" id="Layer_1" xmlns="http://www.w3.org/2000/svg" xmlns:xlink="http://www.w3.org/1999/xlink" x="0px" y="0px"
	 viewBox="0 0 80 40" style="enable-background:new 0 0 80 40;" xml:space="preserve">
<style type="text/css">
	.st0{fill:#D6AE03;}
</style>
<g>
	<polygon class="st0" points="6.91,1.27 8.6,4.69 12.39,5.24 9.65,7.91 10.3,11.67 6.91,9.9 3.53,11.67 4.18,7.91 1.44,5.24 
		5.22,4.69 	"/>
	<polygon class="st0" points="18.73,1.27 20.42,4.69 24.2,5.24 21.46,7.91 22.11,11.67 18.73,9.9 15.34,11.67 15.99,7.91 
		13.25,5.24 17.04,4.69 	"/>
	<polygon class="st0" points="30.54,1.27 32.23,4.69 36.01,5.24 33.28,7.91 33.92,11.67 30.54,9.9 27.16,11.67 27.8,7.91 
		25.07,5.24 28.85,4.69 	"/>
	<polygon class="st0" points="42.35,1.27 44.04,4.69 47.83,5.24 45.09,7.91 45.74,11.67 42.35,9.9 38.97,11.67 39.62,7.91 
		36.88,5.24 40.66,4.69 	"/>
	<polygon class="st0" points="54.17,1.27 55.86,4.69 59.64,5.24 56.9,7.91 57.55,11.67 54.17,9.9 50.78,11.67 51.43,7.91 
		48.69,5.24 52.48,4.69 	"/>
</g>
</svg>
