<svg width="429" height="391" viewBox="0 0 429 391" fill="none" xmlns="http://www.w3.org/2000/svg">
<path d="M173.571 328.629H173.071V329.129V348V348.5H173.571H255.715H256.215V348V329.129V328.629H255.715H173.571Z" fill="#7ABFA9" stroke="#C6E4E2"/>
<path d="M173.586 328.629H173.086V329.129V348V348.5H173.586H209.848H210.348V348V329.129V328.629H209.848H173.586Z" fill="#D66F5A" stroke="#C6E4E2"/>
<path d="M173.941 228.725H173.441V229.225V248.096V248.596H173.941H255.344H255.844V248.096V229.225V228.725H255.344H173.941Z" fill="#D66F5A" stroke="#C6E4E2"/>
<path d="M173.941 228.725H173.441V229.225V248.096V248.596H173.941H210.202H210.702V248.096V229.225V228.725H210.202H173.941Z" fill="#E3C658" stroke="#C6E4E2"/>
<path d="M151 317.899H150.5V318.399V329.129V329.629H151H278.286H278.786V329.129V318.399V317.899H278.286H151Z" fill="#9455B5" stroke="#C6E4E2"/>
<path d="M159.881 317.899H159.381V318.399V329.129V329.629H159.881H196.142H196.642V329.129V318.399V317.899H196.142H159.881Z" fill="#7ABFA9" stroke="#C6E4E2"/>
<path d="M255.714 292.628H256.214V292.128V279.547V279.047H255.714H173.571H173.071V279.547V292.128V292.628H173.571H255.714Z" fill="#7ABFA9" stroke="#C6E4E2"/>
<path d="M244.984 292.628H245.484V292.128V279.547V279.047H244.984H208.723H208.223V279.547V292.128V292.628H208.723H244.984Z" fill="#D66F5A" stroke="#C6E4E2"/>
<path d="M156.55 213.924H156.05V214.424V229.225V229.725H156.55H272.079H272.579V229.225V214.424V213.924H272.079H156.55Z" fill="#D66F5A" stroke="#C6E4E2"/>
<path d="M171.351 213.924H170.851V214.424V229.225V229.725H171.351H189.852H190.352V229.225V214.424V213.924H189.852H171.351Z" fill="#7ABFA9" stroke="#C6E4E2"/>
<path d="M157.29 247.596H156.79V248.096V279.547V280.047H157.29H271.916H272.416V279.547V248.096V247.596H271.916H157.29Z" fill="#D66F5A" stroke="#C6E4E2"/>
<path d="M171.721 253.886H171.221V254.386V272.887V273.387H171.721H190.222H190.722V272.887V254.386V253.886H190.222H171.721Z" fill="white" stroke="#C6E4E2"/>
<path d="M271.995 318.899H272.495V318.399V292.128V291.628H271.995H157.29H156.79V292.128V318.399V318.899H157.29H271.995Z" fill="#E3C658" stroke="#C6E4E2"/>
<path d="M165.413 295.238H164.913V295.738V314.692V315.192H165.413H184.367H184.867V314.692V295.738V295.238H184.367H165.413Z" fill="white" stroke="#C6E4E2"/>
<path d="M260.83 86.3028L261.303 86.4647L261.463 85.9912L269.874 61.196L270.035 60.7225L269.561 60.5607L160.522 23.2553L160.049 23.0935L159.889 23.567L151.478 48.3621L151.317 48.8356L151.791 48.9974L260.83 86.3028Z" fill="#E3C658" stroke="#C6E4E2"/>
<path d="M167.089 29.319L166.616 29.1571L166.456 29.6306L160.365 47.5857L160.205 48.0592L160.678 48.2211L178.708 54.3897L179.181 54.5515L179.342 54.078L185.432 36.1229L185.593 35.6494L185.12 35.4876L167.089 29.319Z" fill="white" stroke="#C6E4E2"/>
<path d="M429 348H0V360H429V348Z" fill="#976F4A"/>
<path d="M32 360V391H44V360H32Z" fill="#976F4A"/>
<path d="M385 360V391H397V360H385Z" fill="#976F4A"/>
</svg>
