<svg width="1920" height="211" viewBox="0 0 1920 211" fill="none" xmlns="http://www.w3.org/2000/svg">
<rect width="1920" height="211" fill="#C6E4E2"/>
<path d="M657.548 151.125C656.631 150.625 655.965 150.167 655.548 149.75C655.215 149.333 655.048 148.792 655.048 148.125C655.048 147.292 655.381 146.125 656.048 144.625C656.798 143.042 658.048 140.583 659.798 137.25C660.298 136.167 661.256 134.25 662.673 131.5C666.256 124.667 668.048 119.625 668.048 116.375C667.965 116.208 667.923 115.958 667.923 115.625C667.923 114.792 668.59 114.042 669.923 113.375C670.173 113.125 671.048 112.417 672.548 111.25C674.131 110.083 675.381 108.75 676.298 107.25C677.381 104.75 678.756 102 680.423 99C682.09 95.9167 684.965 90.9167 689.048 84C693.048 76.6667 697.298 70.0417 701.798 64.125C702.631 62.9583 703.548 62.0417 704.548 61.375C705.631 60.7083 706.548 60.375 707.298 60.375C709.881 60.375 712.506 61.375 715.173 63.375C717.923 65.375 719.715 67.375 720.548 69.375C720.881 69.9583 721.048 71.2083 721.048 73.125C721.048 75.7083 720.756 80.0833 720.173 86.25C720.006 87.3333 719.84 89.0417 719.673 91.375C719.423 95.125 719.048 99.125 718.548 103.375C717.631 112.708 716.965 120 716.548 125.25C716.131 130.5 715.923 135.417 715.923 140C715.923 142.333 715.965 144.042 716.048 145.125V146L715.923 148.875C715.423 149.375 714.423 149.625 712.923 149.625C711.256 149.625 709.59 149.333 707.923 148.75C706.256 148.25 705.34 147.625 705.173 146.875C705.09 146.792 704.965 146.708 704.798 146.625C704.631 146.542 704.548 146.167 704.548 145.5L704.673 142.75L705.048 135.75L705.673 116.625L704.048 116.75C702.381 116.75 698.84 117.083 693.423 117.75C688.09 118.417 684.715 118.958 683.298 119.375C682.548 119.375 681.631 119.875 680.548 120.875C679.465 121.875 678.506 123.167 677.673 124.75C677.423 125.583 676.84 126.792 675.923 128.375C675.006 129.875 674.548 130.75 674.548 131C674.048 131.333 673.59 131.792 673.173 132.375C672.84 132.875 672.631 133.208 672.548 133.375C672.548 134.292 671.715 136.667 670.048 140.5C668.465 144.25 666.881 147.333 665.298 149.75L661.923 154.5L657.548 151.125ZM687.423 108.125C688.006 108.042 689.173 107.875 690.923 107.625C692.673 107.292 694.215 107.083 695.548 107C699.548 106 702.298 105.5 703.798 105.5C704.631 105.5 705.215 105.583 705.548 105.75C705.798 106.083 706.048 106.333 706.298 106.5C706.631 106.583 706.84 106.625 706.923 106.625C707.09 105.958 707.756 101.417 708.923 93C710.09 84.5833 710.673 79.4167 710.673 77.5C710.673 76.1667 710.631 75.0417 710.548 74.125C710.465 73.125 710.381 72.5 710.298 72.25C709.548 72.25 707.84 74.25 705.173 78.25C702.506 82.1667 699.923 86.625 697.423 91.625C695.506 95.0417 694.173 96.75 693.423 96.75C692.84 97.3333 691.59 99.2917 689.673 102.625C687.756 105.958 687.006 107.792 687.423 108.125ZM712.423 58.375C709.923 58.375 708.673 56.375 708.673 52.375L708.798 51.125C708.798 50.375 710.548 48.1667 714.048 44.5C717.548 40.8333 719.881 38.7917 721.048 38.375C721.715 37.9583 722.34 37.7083 722.923 37.625C724.006 37.625 725.048 38.2083 726.048 39.375C727.131 40.5417 727.673 42.0833 727.673 44C727.673 44.8333 727.131 45.7917 726.048 46.875C725.048 47.875 723.506 49.2083 721.423 50.875C721.09 51.125 720.215 51.8333 718.798 53C717.465 54.1667 716.506 55.1667 715.923 56C714.84 57.5833 713.673 58.375 712.423 58.375ZM728.042 143.625C726.875 142.708 725.959 141.833 725.292 141C724.625 140.167 724.417 139 724.667 137.5C724.917 134.667 725.542 131.375 726.542 127.625L727.167 125.125C727.417 122.875 728.709 118.458 731.042 111.875C733.459 105.208 735.459 100.708 737.042 98.375C737.875 97.5417 739.292 97.125 741.292 97.125C742.959 97.125 744.125 97.4583 744.792 98.125C745.459 98.625 745.792 99.4583 745.792 100.625C745.792 102.542 744.584 105.917 742.167 110.75L740.917 113.375C740.334 114.458 739.834 115.458 739.417 116.375C739.084 117.292 739.125 117.708 739.542 117.625C740.459 116.042 742.667 113.875 746.167 111.125C749.75 108.375 752.209 106.667 753.542 106C754.125 105.667 754.875 105.333 755.792 105C756.709 104.667 757.334 104.417 757.667 104.25C759.167 103.5 760.875 103.125 762.792 103.125C764.125 103.125 765.25 103.333 766.167 103.75C767.167 104.083 767.834 104.625 768.167 105.375C768.25 105.958 768.459 106.417 768.792 106.75C769.209 107.083 769.5 107.292 769.667 107.375C769.917 107.375 770.084 107.5 770.167 107.75C770.25 107.917 770.292 108.042 770.292 108.125C770.292 108.792 769.709 109.667 768.542 110.75C767.375 111.75 766.167 112.292 764.917 112.375C764 112.458 763.042 112.667 762.042 113C761.042 113.333 760.042 113.75 759.042 114.25L755.792 116.125C752.959 117.542 750.542 118.958 748.542 120.375C746.625 121.708 744.667 123.458 742.667 125.625C742.25 126.042 741.625 126.625 740.792 127.375C740.042 128.125 739.375 129 738.792 130C738.209 130.583 737.584 132.125 736.917 134.625C736.334 137.042 736.042 138.542 736.042 139.125C735.959 139.375 735.792 139.875 735.542 140.625C735.292 141.375 734.917 142.042 734.417 142.625C733.667 143.542 733.042 144.208 732.542 144.625C732.042 145.042 731.5 145.25 730.917 145.25C730.084 145.25 729.125 144.708 728.042 143.625ZM786.086 147C781.336 147 777.503 145.667 774.586 143C771.669 140.333 770.211 136.542 770.211 131.625C770.211 129.708 770.336 127.583 770.586 125.25C770.753 123.25 771.544 120.5 772.961 117C774.461 113.5 776.461 110.083 778.961 106.75C781.544 103.417 784.544 100.958 787.961 99.375C789.544 98.625 790.878 98.125 791.961 97.875C793.044 97.5417 794.294 97.375 795.711 97.375C799.128 97.375 801.878 98 803.961 99.25C806.128 100.5 807.628 101.917 808.461 103.5C809.378 105.083 809.836 106.458 809.836 107.625V108.25V108.625C809.836 109.625 809.253 111.458 808.086 114.125C806.919 116.792 805.044 119.292 802.461 121.625C799.961 123.958 796.711 125.25 792.711 125.5C790.711 125.5 788.753 125.333 786.836 125C785.003 124.583 783.836 124.375 783.336 124.375C782.086 124.375 781.294 124.833 780.961 125.75C780.628 126.667 780.461 128.208 780.461 130.375C780.711 132.708 781.336 134.333 782.336 135.25C783.419 136.167 784.961 136.625 786.961 136.625C787.961 136.625 789.128 136.333 790.461 135.75C791.794 135.083 793.378 134.042 795.211 132.625C796.211 131.792 797.003 131.208 797.586 130.875C798.169 130.542 798.878 130.375 799.711 130.375C800.461 130.375 801.336 130.875 802.336 131.875C803.336 132.875 803.878 133.833 803.961 134.75C803.794 135.75 802.878 137.25 801.211 139.25C799.544 141.25 797.378 143.042 794.711 144.625C792.044 146.208 789.169 147 786.086 147ZM790.461 116.875C792.044 116.875 793.128 116.708 793.711 116.375C794.544 115.958 795.794 114.917 797.461 113.25C799.211 111.5 800.128 110.292 800.211 109.625C800.211 108.792 799.836 108.125 799.086 107.625C798.419 107.042 797.461 106.667 796.211 106.5H794.836C793.753 106.5 792.169 107.417 790.086 109.25C788.086 111 786.336 113.042 784.836 115.375C784.919 115.792 785.544 116.167 786.711 116.5C787.878 116.75 789.128 116.875 790.461 116.875ZM823.584 145.25C822.751 145.417 822.001 145.5 821.334 145.5C820.251 145.5 819.251 145.417 818.334 145.25C817.417 145 816.959 144.708 816.959 144.375C816.959 144.125 816.917 143.958 816.834 143.875C816.751 143.792 816.584 143.75 816.334 143.75C816.084 143.5 815.501 143.083 814.584 142.5C813.751 141.833 813.042 141.375 812.459 141.125C811.459 139.708 810.959 138.167 810.959 136.5C810.959 134.917 811.459 132.375 812.459 128.875C812.542 125.625 813.709 122 815.959 118C818.292 113.917 821.084 110.167 824.334 106.75C827.584 103.25 830.501 100.75 833.084 99.25C834.334 98 836.084 97.375 838.334 97.375C840.084 97.375 841.626 97.75 842.959 98.5C844.042 99.1667 845.376 100.583 846.959 102.75C848.626 104.917 849.876 106.875 850.709 108.625C850.876 109.208 851.084 110 851.334 111C851.667 112 851.834 113.208 851.834 114.625L851.584 118.125C850.584 121.542 850.084 124.625 850.084 127.375C849.917 128.542 850.001 129.5 850.334 130.25C850.667 130.917 851.126 131.25 851.709 131.25C852.126 131.25 852.584 131.125 853.084 130.875C853.584 130.625 854.167 130.5 854.834 130.5C855.917 130.5 856.834 130.833 857.584 131.5C858.334 132.167 858.709 133 858.709 134C858.709 134.833 858.501 135.625 858.084 136.375C857.334 138.042 855.917 139.542 853.834 140.875C851.834 142.208 849.959 142.875 848.209 142.875C846.792 142.875 845.417 142.125 844.084 140.625C842.834 139.125 841.834 137.167 841.084 134.75L840.334 131.875L835.834 136L832.959 138.875C831.626 140.208 830.876 141 830.709 141.25C830.292 141.917 829.542 142.542 828.459 143.125C827.459 143.708 825.834 144.417 823.584 145.25ZM826.959 133.25C828.459 132.417 829.709 131.375 830.709 130.125C831.792 128.875 833.126 127.125 834.709 124.875C835.042 124.375 835.376 123.875 835.709 123.375C836.042 122.792 836.459 122.208 836.959 121.625C838.376 119.708 839.376 118.167 839.959 117C840.626 115.833 841.126 114.583 841.459 113.25C841.126 112.167 840.626 111.167 839.959 110.25C839.376 109.25 838.834 108.708 838.334 108.625C836.001 108.625 832.834 111.375 828.834 116.875C828.417 117.458 827.751 118.5 826.834 120C826.001 121.5 825.459 122.5 825.209 123C824.792 123.583 824.209 125 823.459 127.25C822.792 129.417 822.459 130.833 822.459 131.5C822.459 133.333 823.001 134.25 824.084 134.25C824.917 134.25 825.876 133.917 826.959 133.25ZM897.502 147.5C895.585 147.25 893.919 145.958 892.502 143.625C891.169 141.292 890.502 138.708 890.502 135.875L890.627 134.375C890.96 131.458 891.585 128.75 892.502 126.25C893.419 123.75 894.835 121.042 896.752 118.125C898.085 115.708 900.544 113.083 904.127 110.25C907.71 107.333 910.877 105.417 913.627 104.5C915.627 103.75 917.46 103.375 919.127 103.375C920.627 103.375 922.127 103.625 923.627 104.125C924.794 104.708 925.71 105 926.377 105C927.21 105 927.752 104.583 928.002 103.75C928.252 103.333 928.585 102.542 929.002 101.375C929.502 100.125 929.96 99.125 930.377 98.375L933.127 90.25L936.377 82.5L940.002 74C942.169 69.75 944.21 67.625 946.127 67.625C946.877 67.625 947.502 67.8333 948.002 68.25C949.169 69.0833 950.044 69.9167 950.627 70.75C951.294 71.5833 951.627 72.6667 951.627 74C951.627 75.0833 951.252 76.5833 950.502 78.5C949.085 80.9167 947.669 83.625 946.252 86.625L944.377 90.875C942.127 96.2083 940.794 99.4167 940.377 100.5L939.377 103.875C938.627 106.208 938.085 108.208 937.752 109.875C937.085 113.458 936.502 115.25 936.002 115.25C934.502 116.833 933.085 121.75 931.752 130C931.419 132 931.252 135.833 931.252 141.5C931.252 143.5 931.169 144.875 931.002 145.625C930.835 146.375 930.502 146.792 930.002 146.875C928.669 147.042 927.752 147.125 927.252 147.125C925.335 147.125 923.877 146.583 922.877 145.5C921.794 144.5 921.085 143.667 920.752 143C920.419 142.25 920.294 141.375 920.377 140.375C920.46 139.375 920.46 138.333 920.377 137.25C920.377 136.083 920.419 135.208 920.502 134.625C920.252 134.292 919.419 134.833 918.002 136.25C917.252 137 916.294 137.833 915.127 138.75C912.21 142 909.585 144.333 907.252 145.75C905.002 147.083 902.627 147.75 900.127 147.75C899.544 147.75 898.669 147.667 897.502 147.5ZM901.627 137C902.96 137 904.252 136.542 905.502 135.625C906.835 134.708 908.169 133.667 909.502 132.5C910.835 131.25 911.794 130.333 912.377 129.75C914.71 127.5 917.21 124.583 919.877 121C922.627 117.417 924.002 115.292 924.002 114.625C924.002 114.042 923.335 113.5 922.002 113C920.752 112.5 919.71 112.375 918.877 112.625C917.044 113.042 915.419 113.833 914.002 115C912.669 116.083 910.919 117.958 908.752 120.625C906.335 123.542 904.377 126.458 902.877 129.375C901.46 132.208 900.752 134.333 900.752 135.75C900.752 136.583 901.044 137 901.627 137ZM956.545 148.125C955.545 148.208 954.712 148.125 954.045 147.875C953.462 147.708 952.587 147.25 951.42 146.5C949.587 145.083 948.045 143.333 946.795 141.25C945.628 139.167 945.087 137.417 945.17 136C945.253 135.75 945.295 135.375 945.295 134.875C945.295 134.375 945.253 134 945.17 133.75C945.087 133.417 945.045 133.208 945.045 133.125C944.712 132.875 944.503 132.708 944.42 132.625C944.42 132.458 944.462 132.292 944.545 132.125C944.712 131.958 944.837 131.792 944.92 131.625C945.253 131.542 945.42 131.375 945.42 131.125C945.42 130.875 945.337 130.583 945.17 130.25C944.92 129.583 945.045 128.083 945.545 125.75C946.128 123.333 946.878 121.083 947.795 119C948.462 117.417 949.503 115.375 950.92 112.875C952.42 110.375 953.795 108.458 955.045 107.125C957.128 104.708 958.837 102.917 960.17 101.75C961.587 100.583 963.17 99.6667 964.92 99C966.337 98.4167 967.795 98.125 969.295 98.125C971.295 98.125 973.045 98.7083 974.545 99.875C979.295 101.208 982.17 103.792 983.17 107.625C983.67 109.375 983.92 111.333 983.92 113.5C983.92 118.167 982.462 123.292 979.545 128.875C977.962 132.042 976.378 134.667 974.795 136.75C973.295 138.75 971.462 140.667 969.295 142.5C967.795 143.75 965.795 144.917 963.295 146C960.878 147 958.628 147.708 956.545 148.125ZM967.42 129.25C968.503 127.667 969.378 126.167 970.045 124.75C970.712 123.333 971.295 121.417 971.795 119C972.128 117.5 972.295 116 972.295 114.5C972.295 111.833 971.92 110.375 971.17 110.125C970.587 109.875 970.003 109.75 969.42 109.75C967.67 109.75 965.837 110.875 963.92 113.125C962.003 115.208 960.587 117.25 959.67 119.25C958.753 121.25 957.712 124.458 956.545 128.875C956.212 130.208 956.045 131.542 956.045 132.875C956.045 134.208 956.253 135.292 956.67 136.125C957.087 136.875 957.712 137.25 958.545 137.25C960.878 137.25 963.837 134.583 967.42 129.25ZM1031.61 154.625C1025.77 153.208 1021.44 148.333 1018.61 140C1018.52 139.5 1018.48 138.5 1018.48 137C1018.48 134.917 1018.56 132.875 1018.73 130.875C1018.9 128.792 1019.11 127.583 1019.36 127.25C1019.61 127.083 1019.73 126.583 1019.73 125.75C1019.65 125.25 1019.94 123.875 1020.61 121.625C1021.19 120.125 1021.36 118.833 1021.11 117.75C1021.19 117.583 1021.31 117.292 1021.48 116.875C1021.73 116.458 1022.02 116.042 1022.36 115.625C1022.77 115.208 1022.98 114.792 1022.98 114.375C1023.06 113.875 1023.06 113.542 1022.98 113.375V113.25C1022.98 112.917 1023.06 112.5 1023.23 112C1023.48 111.417 1023.73 110.958 1023.98 110.625C1024.23 110.375 1024.44 110.042 1024.61 109.625C1024.86 109.208 1025.02 108.917 1025.11 108.75C1025.19 108.167 1025.81 106.333 1026.98 103.25C1028.23 100.083 1029.06 98.1667 1029.48 97.5V97.25C1029.81 96.4167 1030.27 95.5417 1030.86 94.625C1031.02 93.4583 1031.61 91.8333 1032.61 89.75C1034.52 85.5 1037.19 80.625 1040.61 75.125C1044.11 69.5417 1046.86 65.7917 1048.86 63.875C1051.02 61.375 1052.98 60.125 1054.73 60.125C1055.65 60.125 1056.48 60.5 1057.23 61.25C1057.81 61.8333 1058.27 62.6667 1058.61 63.75C1059.02 64.8333 1059.23 65.7917 1059.23 66.625C1059.23 67.7917 1058.9 68.4167 1058.23 68.5C1057.4 69.0833 1056.11 70.7917 1054.36 73.625C1052.69 76.4583 1050.44 80.4583 1047.61 85.625L1045.73 89.125C1044.65 91.4583 1043.69 93.4167 1042.86 95C1042.11 96.5833 1041.61 97.625 1041.36 98.125L1040.86 99.25C1038.86 103.5 1036.98 108.083 1035.23 113C1034.81 113.5 1034.52 114.042 1034.36 114.625C1034.27 115.125 1034.23 115.458 1034.23 115.625C1034.06 115.542 1033.9 115.792 1033.73 116.375C1033.65 116.875 1033.52 117.333 1033.36 117.75C1032.77 118.25 1032.48 119.458 1032.48 121.375C1031.73 123.375 1031.06 125.875 1030.48 128.875C1029.9 131.875 1029.61 134.333 1029.61 136.25C1029.61 138.083 1029.9 139.583 1030.48 140.75C1031.15 141.917 1032.15 142.792 1033.48 143.375C1035.48 144.375 1036.98 144.875 1037.98 144.875C1038.56 144.958 1039.44 144.917 1040.61 144.75C1041.86 144.583 1043.27 144.375 1044.86 144.125H1044.73C1045.15 144.042 1047.44 143.542 1051.61 142.625C1053.61 142.375 1055.27 142 1056.61 141.5C1057.27 141.333 1058.19 141.083 1059.36 140.75C1060.61 140.333 1061.52 140.125 1062.11 140.125C1062.69 140.042 1063.11 140.083 1063.36 140.25C1063.86 140.75 1064.31 141.458 1064.73 142.375C1065.23 143.208 1065.36 143.958 1065.11 144.625C1064.94 145.042 1064.06 145.917 1062.48 147.25C1060.9 148.667 1059.15 150 1057.23 151.25C1055.31 152.5 1053.65 153.333 1052.23 153.75C1049.4 155 1045.31 155.625 1039.98 155.625C1036.23 155.625 1033.44 155.292 1031.61 154.625ZM1088.45 147C1083.7 147 1079.87 145.667 1076.95 143C1074.04 140.333 1072.58 136.542 1072.58 131.625C1072.58 129.708 1072.7 127.583 1072.95 125.25C1073.12 123.25 1073.91 120.5 1075.33 117C1076.83 113.5 1078.83 110.083 1081.33 106.75C1083.91 103.417 1086.91 100.958 1090.33 99.375C1091.91 98.625 1093.25 98.125 1094.33 97.875C1095.41 97.5417 1096.66 97.375 1098.08 97.375C1101.5 97.375 1104.25 98 1106.33 99.25C1108.5 100.5 1110 101.917 1110.83 103.5C1111.75 105.083 1112.2 106.458 1112.2 107.625V108.25V108.625C1112.2 109.625 1111.62 111.458 1110.45 114.125C1109.29 116.792 1107.41 119.292 1104.83 121.625C1102.33 123.958 1099.08 125.25 1095.08 125.5C1093.08 125.5 1091.12 125.333 1089.2 125C1087.37 124.583 1086.2 124.375 1085.7 124.375C1084.45 124.375 1083.66 124.833 1083.33 125.75C1083 126.667 1082.83 128.208 1082.83 130.375C1083.08 132.708 1083.7 134.333 1084.7 135.25C1085.79 136.167 1087.33 136.625 1089.33 136.625C1090.33 136.625 1091.5 136.333 1092.83 135.75C1094.16 135.083 1095.75 134.042 1097.58 132.625C1098.58 131.792 1099.37 131.208 1099.95 130.875C1100.54 130.542 1101.25 130.375 1102.08 130.375C1102.83 130.375 1103.7 130.875 1104.7 131.875C1105.7 132.875 1106.25 133.833 1106.33 134.75C1106.16 135.75 1105.25 137.25 1103.58 139.25C1101.91 141.25 1099.75 143.042 1097.08 144.625C1094.41 146.208 1091.54 147 1088.45 147ZM1092.83 116.875C1094.41 116.875 1095.5 116.708 1096.08 116.375C1096.91 115.958 1098.16 114.917 1099.83 113.25C1101.58 111.5 1102.5 110.292 1102.58 109.625C1102.58 108.792 1102.2 108.125 1101.45 107.625C1100.79 107.042 1099.83 106.667 1098.58 106.5H1097.2C1096.12 106.5 1094.54 107.417 1092.45 109.25C1090.45 111 1088.7 113.042 1087.2 115.375C1087.29 115.792 1087.91 116.167 1089.08 116.5C1090.25 116.75 1091.5 116.875 1092.83 116.875ZM1135.2 95C1134.95 95.25 1134.7 95.375 1134.45 95.375C1134.12 95.375 1133.58 95.125 1132.83 94.625C1131.99 94.5417 1130.87 93.8333 1129.45 92.5C1128.12 91.1667 1127.45 90.2917 1127.45 89.875C1127.37 88.875 1127.45 87.4583 1127.7 85.625C1127.95 83.7083 1128.41 82 1129.08 80.5C1129.83 79 1130.79 78.2083 1131.95 78.125C1132.54 78.2083 1133.33 78.4167 1134.33 78.75C1135.33 79 1136.45 79.375 1137.7 79.875C1139.29 83.0417 1140.08 85.75 1140.08 88C1140.08 91.3333 1138.45 93.6667 1135.2 95ZM1123.7 146.875C1121.7 146.875 1119.95 145.833 1118.45 143.75C1117.04 141.667 1116.16 139.083 1115.83 136C1116.16 132.917 1116.41 130.667 1116.58 129.25C1117.49 125.167 1118.62 120.375 1119.95 114.875C1121.37 109.292 1122.2 106.208 1122.45 105.625C1122.87 104.875 1123.54 104.5 1124.45 104.5C1125.37 104.5 1126.37 104.875 1127.45 105.625C1128.62 106.292 1129.58 107.25 1130.33 108.5C1130.99 109.417 1131.33 110.458 1131.33 111.625C1131.33 113.375 1130.49 117.042 1128.83 122.625C1127.66 126.792 1126.91 129.75 1126.58 131.5C1126.24 133.25 1126.12 135.125 1126.2 137.125C1125.87 140.875 1125.54 143.458 1125.2 144.875C1124.87 146.292 1124.37 146.958 1123.7 146.875ZM1150.99 154.5C1147.74 154.417 1145.4 153.625 1143.99 152.125C1142.65 150.708 1141.99 148.667 1141.99 146C1141.99 145.333 1142.07 144.25 1142.24 142.75C1142.57 141.583 1142.82 140.417 1142.99 139.25C1143.4 137.417 1143.82 136.333 1144.24 136C1144.32 135.917 1144.4 135.75 1144.49 135.5C1144.57 135.25 1144.49 135.042 1144.24 134.875C1144.24 133.792 1144.61 132.292 1145.36 130.375C1145.53 129.792 1145.74 129.208 1145.99 128.625C1146.24 128.042 1146.4 127.667 1146.49 127.5C1146.32 127.333 1146.24 127.083 1146.24 126.75C1146.24 126.333 1146.45 125.917 1146.86 125.5C1147.36 125.083 1147.7 124.708 1147.86 124.375C1148.11 124.042 1148.11 123.708 1147.86 123.375C1147.7 122.958 1148.49 121.083 1150.24 117.75C1151.32 115.583 1151.9 114.375 1151.99 114.125C1151.9 113.875 1152.49 112.333 1153.74 109.5C1155.07 106.667 1156.11 104.542 1156.86 103.125C1157.61 102.708 1157.32 102.417 1155.99 102.25C1154.65 102.083 1153.03 102.042 1151.11 102.125C1148.36 102.042 1146.24 101.917 1144.74 101.75C1143.24 101.5 1142.03 101.125 1141.11 100.625C1140.53 100.042 1140.24 99.2917 1140.24 98.375C1140.24 97.2917 1140.61 96.2917 1141.36 95.375C1142.2 94.4583 1143.2 93.9583 1144.36 93.875C1146.53 93.7917 1149.86 93.5 1154.36 93L1160.74 92.5L1161.11 90.375C1161.53 89.625 1161.9 89 1162.24 88.5C1162.65 87.9167 1162.9 87.4167 1162.99 87C1163.15 86.5833 1163.28 85.9583 1163.36 85.125C1163.61 84.7917 1164.03 83.9583 1164.61 82.625C1165.28 81.2917 1165.7 80 1165.86 78.75C1166.78 77.1667 1167.61 75.6667 1168.36 74.25C1169.2 72.75 1169.7 71.875 1169.86 71.625C1171.36 69.375 1173.03 68.25 1174.86 68.25C1175.86 68.25 1176.9 68.5833 1177.99 69.25C1179.07 70 1179.9 70.6667 1180.49 71.25C1181.07 71.8333 1181.36 72.625 1181.36 73.625C1181.36 74.375 1180.99 75.4583 1180.24 76.875C1179.9 77.5417 1179.4 78.875 1178.74 80.875C1178.15 81.625 1177.53 82.6667 1176.86 84C1176.2 85.25 1175.74 86.4583 1175.49 87.625C1175.32 88.0417 1175.07 88.625 1174.74 89.375C1174.4 90.0417 1174.15 90.4583 1173.99 90.625C1173.9 90.7083 1173.74 90.75 1173.49 90.75C1173.57 91.25 1173.74 91.5833 1173.99 91.75C1174.24 91.9167 1174.65 92 1175.24 92C1175.65 92 1176.15 91.9583 1176.74 91.875C1177.4 91.7917 1178.2 91.75 1179.11 91.75C1179.95 91.6667 1180.65 91.5417 1181.24 91.375C1181.9 91.2083 1182.53 91.125 1183.11 91.125C1183.45 91.125 1183.95 91.25 1184.61 91.5C1185.03 92 1185.24 92.9583 1185.24 94.375C1185.24 95.4583 1185.07 96.5 1184.74 97.5C1184.4 98.4167 1183.99 99 1183.49 99.25C1183.07 99.3333 1182.15 99.5833 1180.74 100C1179.32 100.417 1177.78 100.667 1176.11 100.75L1169.49 101.375L1167.36 105.625C1166.78 106.625 1166.28 107.583 1165.86 108.5C1165.45 109.417 1165.15 109.958 1164.99 110.125C1164.99 110.542 1164.65 111.375 1163.99 112.625C1163.32 113.875 1162.82 114.875 1162.49 115.625C1162.07 116.792 1161.57 117.958 1160.99 119.125C1160.4 120.208 1160.03 120.917 1159.86 121.25C1159.61 121.25 1159.45 121.333 1159.36 121.5C1159.36 121.583 1159.36 121.75 1159.36 122L1159.61 123C1159.61 123.417 1159.4 123.833 1158.99 124.25C1158.65 124.417 1158.32 124.708 1157.99 125.125C1157.74 125.542 1157.57 125.833 1157.49 126C1157.65 126.167 1157.74 126.375 1157.74 126.625C1157.74 127.208 1157.45 127.958 1156.86 128.875C1156.86 130.292 1156.28 132.417 1155.11 135.25C1155.2 136.75 1155.28 137.708 1155.36 138.125C1155.45 138.542 1155.65 138.708 1155.99 138.625H1156.61L1159.36 138.5C1159.95 138.25 1160.07 138.875 1159.74 140.375C1159.49 141.875 1158.78 144.167 1157.61 147.25C1156.36 149.167 1155.03 150.833 1153.61 152.25C1152.28 153.75 1151.4 154.5 1150.99 154.5ZM1193 148.125C1192 148.208 1191.16 148.125 1190.5 147.875C1189.91 147.708 1189.04 147.25 1187.87 146.5C1186.04 145.083 1184.5 143.333 1183.25 141.25C1182.08 139.167 1181.54 137.417 1181.62 136C1181.7 135.75 1181.75 135.375 1181.75 134.875C1181.75 134.375 1181.7 134 1181.62 133.75C1181.54 133.417 1181.5 133.208 1181.5 133.125C1181.16 132.875 1180.95 132.708 1180.87 132.625C1180.87 132.458 1180.91 132.292 1181 132.125C1181.16 131.958 1181.29 131.792 1181.37 131.625C1181.7 131.542 1181.87 131.375 1181.87 131.125C1181.87 130.875 1181.79 130.583 1181.62 130.25C1181.37 129.583 1181.5 128.083 1182 125.75C1182.58 123.333 1183.33 121.083 1184.25 119C1184.91 117.417 1185.95 115.375 1187.37 112.875C1188.87 110.375 1190.25 108.458 1191.5 107.125C1193.58 104.708 1195.29 102.917 1196.62 101.75C1198.04 100.583 1199.62 99.6667 1201.37 99C1202.79 98.4167 1204.25 98.125 1205.75 98.125C1207.75 98.125 1209.5 98.7083 1211 99.875C1215.75 101.208 1218.62 103.792 1219.62 107.625C1220.12 109.375 1220.37 111.333 1220.37 113.5C1220.37 118.167 1218.91 123.292 1216 128.875C1214.41 132.042 1212.83 134.667 1211.25 136.75C1209.75 138.75 1207.91 140.667 1205.75 142.5C1204.25 143.75 1202.25 144.917 1199.75 146C1197.33 147 1195.08 147.708 1193 148.125ZM1203.87 129.25C1204.95 127.667 1205.83 126.167 1206.5 124.75C1207.16 123.333 1207.75 121.417 1208.25 119C1208.58 117.5 1208.75 116 1208.75 114.5C1208.75 111.833 1208.37 110.375 1207.62 110.125C1207.04 109.875 1206.45 109.75 1205.87 109.75C1204.12 109.75 1202.29 110.875 1200.37 113.125C1198.45 115.208 1197.04 117.25 1196.12 119.25C1195.2 121.25 1194.16 124.458 1193 128.875C1192.66 130.208 1192.5 131.542 1192.5 132.875C1192.5 134.208 1192.7 135.292 1193.12 136.125C1193.54 136.875 1194.16 137.25 1195 137.25C1197.33 137.25 1200.29 134.583 1203.87 129.25ZM1228.41 143.625C1227.24 142.708 1226.32 141.833 1225.66 141C1224.99 140.167 1224.78 139 1225.03 137.5C1225.28 134.667 1225.91 131.375 1226.91 127.625L1227.53 125.125C1227.78 122.875 1229.07 118.458 1231.41 111.875C1233.82 105.208 1235.82 100.708 1237.41 98.375C1238.24 97.5417 1239.66 97.125 1241.66 97.125C1243.32 97.125 1244.49 97.4583 1245.16 98.125C1245.82 98.625 1246.16 99.4583 1246.16 100.625C1246.16 102.542 1244.95 105.917 1242.53 110.75L1241.28 113.375C1240.7 114.458 1240.2 115.458 1239.78 116.375C1239.45 117.292 1239.49 117.708 1239.91 117.625C1240.82 116.042 1243.03 113.875 1246.53 111.125C1250.12 108.375 1252.57 106.667 1253.91 106C1254.49 105.667 1255.24 105.333 1256.16 105C1257.07 104.667 1257.7 104.417 1258.03 104.25C1259.53 103.5 1261.24 103.125 1263.16 103.125C1264.49 103.125 1265.62 103.333 1266.53 103.75C1267.53 104.083 1268.2 104.625 1268.53 105.375C1268.62 105.958 1268.82 106.417 1269.16 106.75C1269.57 107.083 1269.87 107.292 1270.03 107.375C1270.28 107.375 1270.45 107.5 1270.53 107.75C1270.62 107.917 1270.66 108.042 1270.66 108.125C1270.66 108.792 1270.07 109.667 1268.91 110.75C1267.74 111.75 1266.53 112.292 1265.28 112.375C1264.37 112.458 1263.41 112.667 1262.41 113C1261.41 113.333 1260.41 113.75 1259.41 114.25L1256.16 116.125C1253.32 117.542 1250.91 118.958 1248.91 120.375C1246.99 121.708 1245.03 123.458 1243.03 125.625C1242.62 126.042 1241.99 126.625 1241.16 127.375C1240.41 128.125 1239.74 129 1239.16 130C1238.57 130.583 1237.95 132.125 1237.28 134.625C1236.7 137.042 1236.41 138.542 1236.41 139.125C1236.32 139.375 1236.16 139.875 1235.91 140.625C1235.66 141.375 1235.28 142.042 1234.78 142.625C1234.03 143.542 1233.41 144.208 1232.91 144.625C1232.41 145.042 1231.87 145.25 1231.28 145.25C1230.45 145.25 1229.49 144.708 1228.41 143.625Z" fill="black"/>
<path d="M492.435 100.987L478.744 88L423 146.767L436.691 159.754L492.435 100.987Z" fill="#D66F5A"/>
<path d="M492.435 100.987L478.744 88L453.912 114.178L467.604 127.165L492.435 100.987Z" fill="#E3C658"/>
<path d="M544.823 52.3472L515.49 41L474 148.255L503.333 159.602L544.823 52.3472Z" fill="#D66F5A"/>
<path d="M533.733 63.5801L516.478 56.9053L509.782 74.2164L527.036 80.8912L533.733 63.5801Z" fill="white"/>
<path d="M1372.87 78H1354V160.144H1372.87V78Z" fill="#7ABFA9"/>
<path d="M1372.87 78.0148H1354V114.276H1372.87V78.0148Z" fill="#D66F5A"/>
<path d="M1373.44 34L1363 36.4781L1392.4 160.323L1402.84 157.845L1373.44 34Z" fill="#9455B5"/>
<path d="M1375.49 42.6405L1365.05 45.1186L1373.43 80.3999L1383.87 77.9218L1375.49 42.6405Z" fill="#7ABFA9"/>
<path d="M1433 160H1445.58V78H1433V160Z" fill="#7ABFA9"/>
<path d="M1433 149.288H1445.58V113.09H1433V149.288Z" fill="#D66F5A"/>
<path d="M1407 160H1433V45H1407V160Z" fill="#E3C658"/>
<path d="M1429.43 53.1441H1410.67V72.1467H1429.43V53.1441Z" fill="white"/>
</svg>
