<svg xmlns="http://www.w3.org/2000/svg" viewBox="0 0 309.57062 90"><defs><style>.cls-1,.cls-2{fill:#333}.cls-1{fill-rule:evenodd}</style></defs><title>FMAM_preto_lg</title><g id="Layer_2" data-name="Layer 2"><g id="wireframe"><path class="cls-1" d="M179.878 32.867c.215-.272.399-.015.524 0-.043.243-.716-.084-.837-.05.082.017.548-.17.313.05M34.103 5.432c0-.298.454-.429.74-.674a3.422 3.422 0 0 1 .96-.608c.117-.044.234-.08.356-.114.43-.08.254-.149.595-.358.329-.202.755-.216 1.033-.507.29-.296.705-.284 1.034-.615a5.493 5.493 0 0 1 1.5-.748c.54-.264 1.072-.534 1.632-.75a10.272 10.272 0 0 0 1.08-.663 2.776 2.776 0 0 1 2.448-.182c1.06.562-.106 1.838-.4 2.511a31.419 31.419 0 0 1-1.613 2.805c-.278.482-1.233 1.441-1.08 2.001-.454-.012-.971 1.323-1.155 1.698-.443.89-1.324 1.468-1.57 2.501-.423.163-.572.62-.842.944.082.46-.474.68-.732.941.059.39-.352.607-.474.922a6.938 6.938 0 0 1-.58.975c-.203.349-.309.744-.524 1.09a1.658 1.658 0 0 1-.34.41c-.306.27-.22.382-.345.761-.153.472-.548.646-.693 1.085-.122.37-.435.634-.52 1.014a15.782 15.782 0 0 1-1.63 3.212c-.509.989-.935 1.7-1.346 2.65a8.33 8.33 0 0 0 1.491-1.579c.204-.217.415-.425.615-.644a3.094 3.094 0 0 1 .9-.671c.27-.17.306-.376.6-.521.336-.167.65-.38.97-.57a2.836 2.836 0 0 1 1.978-.474 7.454 7.454 0 0 1-.627.472c.775-.237 1.97-.54 2.271.513a8.042 8.042 0 0 1-.227 3.528.804.804 0 0 1-.208.315 2.047 2.047 0 0 1-.078.754 14.407 14.407 0 0 1-.52 1.49c-.079.2-.145.405-.212.608-.117.386-.348.366-.384.744a3.995 3.995 0 0 1-.536 1.28c.012.02 2.518-2.034 2.772-2.292.313-.317.717-.286 1.104-.562a4.87 4.87 0 0 1 1.057-.65c.56-.235.96-.853 1.605-.391.71.505.286 1.135.42 1.76a5.877 5.877 0 0 1-.545 2.437 7.608 7.608 0 0 1-.54 1.169 2.427 2.427 0 0 1-.4 1.217 4.525 4.525 0 0 0-.544 1.666c.89.08 1.927-1.729 2.255-2.253-.371.184.169-.28.263-.159a7.43 7.43 0 0 0 .693-1.008 1.156 1.156 0 0 1 .344-.317c.341-.198.102-.147.31-.439a6.16 6.16 0 0 1 .622-.769c.227-.233.411-.628.634-.912.282-.36.09-.82.349-1.026.278-.219.748.145.756.407a1.945 1.945 0 0 1-.517 1.202c-.165.23-.286.883-.568.87-.16.575-.576.898-.717 1.413a12.157 12.157 0 0 1-.63 1.628c-.098.224-.442.65-.14.83.148.09.289-.05.375-.156a4.397 4.397 0 0 0 .415-.568 2.374 2.374 0 0 1 .446-.603c.286-.252.157-.399.27-.769.18-.597.627-2.19 1.45-1.932.038.147-.142.113-.103.262.094.127.588-.023.263.366a.342.342 0 0 0-.055-.106 2.027 2.027 0 0 1-.345 1.459c-.223.305-.031.693-.313.947-.294.265-.086.711.012 1.016.094.278.012.59.34.682.302.086.455-.23.525-.46.227-.785.349-1.659.525-2.467.176-.826.348-1.656.599-2.465.133-.434.058-.82.157-1.258.101-.433.363-.515.407-.971a11.646 11.646 0 0 1 .274-1.369 4.609 4.609 0 0 1 .211-1.266c.176-.308.419-.456.43-.842.02-.517.189-.568.38-.979.075-.166-.11-.115.047-.426.173-.34.45-.605.63-.936-.156-.777.694-1.03.788-1.68 1.256-1.041 2.877 1.028 3.758 1.82.96.864 1.801 1.788 2.702 2.542.348.287.967.466 1.041 1.041.34.053.462.366.725.538.493.33-.012.077.117.408.47.154.771.614 1.1.953.13.131.176.127.157.325-.024.245.454.58.607.785a23.916 23.916 0 0 1 2.114 3.7c.266.546.423 1.14.689 1.685.427.122.478-.918.56-1.184.38-1.224.52-2.232.975-3.426a1.708 1.708 0 0 1 .38-.658c.223-.213.156-.295.262-.579.192-.505.43-.951.67-1.459.191-.407.297-.362.175-.786a1.148 1.148 0 0 1 .204-.852c.149-.305.04-.35.333-.483.258-.12.184-.478.31-.719.238-.464.618-.403.484-.975.431-.252.482-.842.693-1.245a.873.873 0 0 1 .408-.423c.31-.143.29-.4.485-.708.153-.235.321-.46.458-.707a2.032 2.032 0 0 0 .212-.536l.317-.106c-.141-.131.56-1.345.736-1.576a.513.513 0 0 1 .313-.207.519.519 0 0 1 .09-.533c.403-.546.482.26.384.533.654-.006.932-1.208 1.276-1.653.157-.193 1.175-1.54 1.504-.918.086-.012-.047-.154.05-.21a4.967 4.967 0 0 1 2.177 2.101 7.737 7.737 0 0 1 .54.96c.067.25.177.485.255.734.114.377-.062.675-.094 1.06-.047.535-.05 1.377.603 1.271.497-.082 1.284.033 1.496-.513.149-.383 1.08-.301 1.468-.344.321-.036.607-.159.877.053.333.256.889.052 1.288-.012a19.528 19.528 0 0 1 3.868-.272 10.88 10.88 0 0 0 2.013-.235 5.202 5.202 0 0 1 1.159-.075c.332.02.622.24.935.214a9.893 9.893 0 0 1 3.039.262c.336.077.375.282.743.352a3.772 3.772 0 0 1 .956.323 3.699 3.699 0 0 1 .838.56c.446.4.383.529.97.33.905.416-.011 1.456.2 2.11a5.015 5.015 0 0 1-.059 1.945 1.919 1.919 0 0 0 .126.926c-.345.264-.603.58-.004.67a15.219 15.219 0 0 0 1.742-.004 8.647 8.647 0 0 0 2.193-.088 11.14 11.14 0 0 1 1.307-.082c.748-.102 1.453-.396 2.205-.496.442-.058 1.738-.015 1.139.68a2.364 2.364 0 0 1-1.829.626 7.236 7.236 0 0 0-2.16.376 2.77 2.77 0 0 1-.976.26 1.188 1.188 0 0 1-.943.472 18.458 18.458 0 0 1-1.88.854c-.442.174-1.628.328-1.84.76-.63 1.293 1.84.66 2.444.608.477-.041 3.648-.842 3.214.581a6.49 6.49 0 0 1-.677 1.531c-.18.31-.404.587-.596.887-.2.307-.02.527-.297.812.246.709 5.27-3.292 5.865-3.437 1.535-.368.536 1.429-.012 1.754-.149.088-.145.395-.243.528-.125.177-.376.212-.524.368a4.803 4.803 0 0 0-.944 1.574c.94-.078 1.61-.85 2.353-1.337.533-.354 1.186-.456 1.59-.969.113-.14.336-.43.254-.632.403-.069.752-.174.99.233a.92.92 0 0 1-.062.86 1.168 1.168 0 0 1-.34.492c-.27.235-.126.425-.22.723-.113.356-.4.59.227.411a4.07 4.07 0 0 0 1.48-.54c.317-.247.607-.525.944-.748.356-.239.732-.2 1.06-.423 1.75-1.182 1.05 2.003 1.273 2.98-.031-.028-.544.125-.63.101a1.986 1.986 0 0 1-.7-1.221c-.205-1.13-1.422.06-1.939.346-1.131.627-3.997 1.468-3.026-.941.254-.63-1.144.595-1.382.724-.666.37-1.202.767-1.884 1.102-.43.21-1.66.783-1.699-.168-.008-.255.909-1.79.858-1.827 0 0 .207.116.14.055-.223-.204 0-.603.189-.9-.051.027-.204.183-.102 0-1.003.669-2.087 1.194-3.117 1.818a10.158 10.158 0 0 0-1.546 1.112c-.33.292-.838 1.206-1.261 1.202-1.131-.012-.775-1.777-.689-2.484a6.382 6.382 0 0 1 1.417-3.432c-.787-.33-1.758.092-2.56.149-.533.04-.333.5-.45.985-.032.127-.247.932-.384.642a.347.347 0 0 0 .14.113.429.429 0 0 1-.258.159c.243.313-.72 1.026-.528 1.206.125-.043-.145-.126 0-.212.423.482-.341 1.563-.537 2.07a2.467 2.467 0 0 1-1.088 1.235c.078.593-.482.965-.998 1.05-.65-.537-1.289-1.79-.47-2.465-.008-.476.744-3.536.485-3.663-.446-.216-.54.215-.994.192a1.351 1.351 0 0 1-1.167-.517c-.673-1.053 1.55-1.183 1.895-1.484.247-.213.63-.198.795-.583.121-.278.493-.057.442-.35-.07-.39-.196-.206-.004-.594a2.331 2.331 0 0 0 .172-.818 1.317 1.317 0 0 0 .525-.84c-.09-.339-1.327-.149-1.628-.149-1.257 0-2.518-.05-3.77.022a10.7 10.7 0 0 1-1.892.023c-.266-.033-.282-.198-.599-.164-.278.027-.587.125-.818-.098a17.137 17.137 0 0 1-4.088-.198c-.301-.031-2.11-.06-2.102-.327a.658.658 0 0 0-.819.617 11.462 11.462 0 0 1-1.017 2.373 20.36 20.36 0 0 0-1.148 2.263c-.125.456-1.366 3.036-1.127 3.333.278.345 1.002-.51 1.315-.732.2-.14 1.155-.855 1.171-.667a2.03 2.03 0 0 0 .838-.735c-.082.018-.102.053-.051.106-.188-.017.145-.19.262-.106-.027-.1-.094.044-.156-.052a11.176 11.176 0 0 0 1.06-1.189 3.174 3.174 0 0 1 .678-.575c.321-.19.278-.364.56-.533.438-.262.712-.724 1.155-.986.454-.265.88-.476.951-1.02a.771.771 0 0 1 1.16.3c.128.326-.099.645-.165.96-.274 1.394-.846 3.086-.525 4.513.764-.429.936-1.459 1.75-1.696.693-.203 1.633-.546 1.899-1.31.13-.371-.254-.66-.043-.99.278-.43.65-.35.994-.097.478.346.466 2.028.697 2.634.231.6.368 1.31.63 1.977.11.286.525.61.204.91-.497.478-.564-.355-.787-.594-.215-.235-.219-.511-.47-.736-.375-.335-.348-.676-.56-1.13-.136-.286-.199-.936-.587-.752-.258.124-.481 1.083-.892.523q.047-.053.105 0a.374.374 0 0 0-.368-.21c.333 1.314-1.996 1.455-1.992 2.044-.192.122-.263.456-.36.638-.103.183-.447.23-.478.365-.15.636-.96-.269-1.042-.545a6.856 6.856 0 0 1-.156-1.744c-.016-.403.207-.81.23-1.231a10.247 10.247 0 0 1 .075-1.625c-.595.09-.893.578-1.343.908a9.931 9.931 0 0 0-1.66 1.549c-.376.44-.756 1.239-1.315 1.354a2.541 2.541 0 0 0-1.253.918 6.17 6.17 0 0 1-1.179.85 3.574 3.574 0 0 0-.681.495c-.372.384-.791.214-1.276.065a8.22 8.22 0 0 1 .313-2.465 2.18 2.18 0 0 1 .376-.851c.156-.239.274-.887.462-1.04a6.705 6.705 0 0 0-1.304 1.559c-.25.291-.164.422-.42.663a1.77 1.77 0 0 0-.36.887c-.046.164-.27.354-.273.511-.02.354.207.487-.094.822-.22.241.062.66-.486.595a2.521 2.521 0 0 1-.524-.892 6.95 6.95 0 0 0-1.171.93 4.922 4.922 0 0 1-.666.747c-.415.034-.285-.16-.755.043l-1.006.44c-.368.163-.537.026-.893.154-.713.256-.92-.141-1.594-.216-.567-.063-.68-.38-1.155-.734-.599-.448-.54-1.184-.732-1.781-.094-.298-.274-.22-.391-.558a.845.845 0 0 0-.364-.48c-.411-.227-.956-.104-1.398-.276.023.413.023.613-.486.386a3.906 3.906 0 0 0-1.401-.3c-.486-.031-.783-.229-1.23-.291a3.772 3.772 0 0 0-1.57.332c-.555.173-.563-.03-.994-.203-.208-.082-.908-.339-1.041-.116-.231.376.11.511-.396.584-.419.058-.705.356-1.1-.02a3.171 3.171 0 0 1-.51-.914c-.097-.198.06-1.235-.414-.897-.223.159-.149.476-.196.703-.395.127-.873.534-1.311.317-.584.525-1.527 1.13-1.93.063-.247-.65.046-1.341.042-2.005a4.289 4.289 0 0 0-1.62 1.713c-.231.591-.024 1.165-.282 1.707a5.56 5.56 0 0 0-.353 1.719c-.47 2.883-.689 5.796-.928 8.701-.101 1.218-.41 2.455-.442 3.673a14.933 14.933 0 0 1-.466 3.784c-.16.52.079 1.084-.027 1.615a15.954 15.954 0 0 0-.168 1.897c-.055.714-.15 1.403-.134 2.124.02.689-.147-.288-.159.364a12.08 12.08 0 0 1-.125 2.024c-.09.533.215 1.04.11 1.64a23.128 23.128 0 0 0-.263 4.505 8.966 8.966 0 0 1-.082 2.445 12.96 12.96 0 0 0-.141 1.782c-.188 1.395-.067 2.572-.145 3.952a26.73 26.73 0 0 1-.242 2.357c-.114.773-.4-.077-.353.704a8.893 8.893 0 0 1-.254 2.2 13.123 13.123 0 0 1-.404 2.236 9.685 9.685 0 0 0-.293 1.752 5.351 5.351 0 0 1-.611 1.738c-.255.433-.094 1.04-.544 1.365-.494 0-.995.818-1.19-.266a5.747 5.747 0 0 1 .563-3.46c.266.056.29.531.259.735.618-.175.603-1.907.665-2.373.165-1.22.403-2.431.49-3.659.098-1.335.38-.956.54-2.284.145-1.217.004-2.435.078-3.666.036-.62.075-1.24.102-1.86.012-.266.227-.671.016-.889-.29-.303.062-1.174.14-1.538a6.442 6.442 0 0 0 .106-1.9 4.22 4.22 0 0 1 .122-1.686c.137-.45-.16-.887-.067-1.379a5.248 5.248 0 0 0 .133-1.638c-.07-.69.184-1.269.153-1.928a34.003 34.003 0 0 1 .382-6.107c.27-2.566.353-5.207.826-7.699.47-2.472.42-5.078.756-7.581.153-1.12.34-2.234.517-3.348.09-.57-.082-.912-.756-.742-.168-.153-1.06-1.337-1.112-1.29-.07.068-.066.131.012.186a.99.99 0 0 0-.54.376c-.227.27-.74.448-.67.885-1.707.916-1.276-1.61-.842-2.441 0-.004.416-.739.028-.49-.345.225-.544.713-.846 1.04a4.334 4.334 0 0 0-1.014 1.366c-.532.184-.434.873-.951 1.022-.822.23-.533 1.595-1.57 1.29-.353-.106-.33-.165-.24-.587a5.16 5.16 0 0 1 .271-.754c.255-.681.4-1.316.709-1.997a8.623 8.623 0 0 0 .689-2.094 4.825 4.825 0 0 1 .325-1.602 4.862 4.862 0 0 0 .517-1.86c.05-.422.466-.988.25-1.391a15.155 15.155 0 0 0-3.058 1.793 11.679 11.679 0 0 0-1.155.77c-.09.346-.203.336-.642.567a.321.321 0 0 0-.18.436c-.305.073-.477.382-.787.42a9.856 9.856 0 0 1-1.253 1.593c-.68.855-.877 1.871-1.593 2.608a.242.242 0 0 0-.04.362c-.32.283-.512.673-.837.945.25.133-.568 1.042-.65 1.222a4.373 4.373 0 0 1-.693 1.123c-.278.321-.239.478-.442.82-.134.224-.544.433-.525.692.02.295-.572 1.092-.799 1.366a4.927 4.927 0 0 0-1.069 1.803c-.098.346-.172.534-.54.677-.56.216-.622-.045-.54-.48a3.401 3.401 0 0 1 .266-.984c.043-.082.317-.198.321-.205.102-.216-.11-.693.368-.578a5.725 5.725 0 0 1 .685-1.619c.51-.943.87-1.785 1.312-2.67.11-.213.133-.961.575-.957.047-.282-.207-.347.15-.506-.04.018.618-.26.27-.387a13.426 13.426 0 0 1 2.043-2.568c.223-.288.85-.86.787-1.208.689-.396.654-1.044.97-1.643.353-.66.647-1.352.988-2.018a17.319 17.319 0 0 0 .83-2.006 6.914 6.914 0 0 0 .191-1.837c.04-.376.216-.442.228-.857.011-.452.043-.905.035-1.355-.004-.491.039-1.208-.646-1.141-.392.04-.987.444-1.34.104-.062-.157.897-.601 1-.736a3.041 3.041 0 0 0-1.731 1.049 2.126 2.126 0 0 1 .473 0c-.387.366-.79.417-1.1.683a2.616 2.616 0 0 0-1.221.961c-.885 1.245-1.844 2.33-2.714 3.602-.039-.031-.039-.064 0-.104a18.578 18.578 0 0 1-1.064 1.71c-.255.405-.447 1.276-.932 1.386 0 .52-.45.982-.576 1.573-.434.31-.29.934-.892 1.102.054.141.176.042.262.157-.082.245-.61.439-.497.63.117.198-.431.7-.517.93a23.683 23.683 0 0 0-.99 2.522c-.18.72-.65 1.282-.866 1.98-.172.549-.967 1.51-.854 2.066.055.257-.285.822-.391 1.114-.22.597-.415 1.206-.685 1.781-.29.611-.223 1.414-.662 2.038a1.473 1.473 0 0 0-.262.62c-.106.42-.517.666-.623 1.06-.074.278.082.499-.055.838a5.14 5.14 0 0 0-.567 1.235 15.325 15.325 0 0 1-.858 2.539 16.438 16.438 0 0 1-.998 2.84c-.176.325-.227.691-.403.991-.133.235-.427.466-.454.675-.055.413-.083.977-.474 1.224-.337.211-.294.671-.494.988a11.613 11.613 0 0 1-.865 1.707c-.61.652-.88-.236-.747-.73.105-.397.528-.93.516-1.333-.004-.182.302-.509.33-.785a.947.947 0 0 1 .144-.47c.313-.434.247-.09.153-.068.493-.233.47-1.189.563-1.635a5.065 5.065 0 0 1 .537-1.413c.415-.298.149-1.063.262-1.465.795-.217.212-1.329 1.05-1.413-.204-.487.152-.417.168-.91.008-.25.29-.519.2-.77.563 0 .035-.69.626-.84-.008-.078-.223-.097 0-.105-.008-.041-.282-.153-.153-.207a.822.822 0 0 0 .396-.455c.129-.41-.282-.102.047-.509a3.041 3.041 0 0 0 .407-.926c.196-.546.454-.94.634-1.509.16-.509.38-.984.548-1.511a25.145 25.145 0 0 0 1.03-2.533 13.002 13.002 0 0 1 .619-1.588c.223-.619.461-1.27.645-1.916a18.878 18.878 0 0 1 1.245-3.101 7.025 7.025 0 0 0 .513-1.48c.098-.245.364-.32.42-.578.054-.262-.161-.188.125-.475a.375.375 0 0 0 .082-.521 1.124 1.124 0 0 0 .575-.756 10.931 10.931 0 0 1 .686-1.668c.215-.446.747-1.207.68-1.67.165-.125.154-.377.42-.366-.043-.291.059-.53.368-.577a.142.142 0 0 0-.157 0 4.4 4.4 0 0 1 1.1-1.678c-.105-.305.243-.65.337-.92a1.355 1.355 0 0 0 .031-.76c.145-.11.545.087.372-.258-.11-.22.439-.879.47-1.262.137-.357.306.13.294-.42a.558.558 0 0 1 .387-.577c-.16-.358.376-.462.314-.654a.751.751 0 0 1 .07-.487c.149-.327.337-.344.407-.632.075-.298.274-.108.486-.163.066-.02.043-.286.113-.397a6.006 6.006 0 0 0 .517-1.374 2.986 2.986 0 0 1 .403-1.116c.384-.54.576-1.15.936-1.739a2.605 2.605 0 0 1 .556-.66c.262-.223.211-.371.427-.612a4.787 4.787 0 0 0 .689-.99c.211-.373.419-.7.662-1.07a.49.49 0 0 1 .45-.281 1.824 1.824 0 0 1 .513-1.057 4.087 4.087 0 0 1 .747-.625 1.014 1.014 0 0 1 .278-.842c.15-.166.314-.311.447-.49.18-.242.372-.066.481-.24-.02-.045-.039-.045-.05 0-.106-.121.164-.143.207-.158-.012-.124-.231-.038-.208.052a.82.82 0 0 1 .083-.761.715.715 0 0 1 .442-.235c.012-.149-.082-.384 0-.525.118-.655 1.128-.381.944-.943-.008.096-.047.15-.122.162-.105-.385.482-1.063.697-1.055-.07-.264.145-.31.262-.523.051-.209-.376-.133-.207-.317q.053.047 0 .106c.85-.59.916-1.693 1.362-2.518-.301-.178-.834-.13-.943.263a10.155 10.155 0 0 0-2.04.738 30.788 30.788 0 0 1-3.543 1.627.44.44 0 0 0-.474.287c-.172.349-.305.227-.646.404-.532.282-1.037.7-1.57 1.024a16.295 16.295 0 0 0-1.734 1.256c-.505.407-1.105.648-1.606 1.087-1.66 1.46-3.128 2.84-4.74 4.344-.212.196-.38.391-.596.61-.254.26-.544.386-.572.846-.395.268-.943.607-.943 1.153-.306-.149-.403.478-.423.578-.552.06-.446.497-.787.76a3.426 3.426 0 0 0-.748 1.001c-.176.298-1.35 1.486-1.284 1.578.137.198-.532.852-.693 1.016-.243.257-.462.255-.376.584.086.336-.184.424-.462.464a.166.166 0 0 0 .079.209c.011.01-.412.562-.435.6-.313.465-.74 1.078-.983 1.46a7.036 7.036 0 0 0-.896 1.548c-.126.417-1.1 1.245-.967 1.9-.126.16-.51.61-.498.725.036.31-.258.143-.395.325a1.353 1.353 0 0 1-.172.638c-.169.298-.173.885-.349 1.061-.27.276-.145-.137-.278.35-.086.314-.066.416-.407.416a.446.446 0 0 0 .157.264 1.367 1.367 0 0 0-.341.58 1.215 1.215 0 0 1-.345.575c-.305.235-.097.149-.18.503-.094.397-.466.667-.618 1.043a3.336 3.336 0 0 1-.353.916.064.064 0 0 1 0-.103 5.093 5.093 0 0 0-.693 1.76 1.309 1.309 0 0 1-.36.84 2.466 2.466 0 0 0-.532 1.039c-.212.507-.724 2.37-1.179 2.488a7.097 7.097 0 0 0-.665 1.694c-.102.291-.302.618-.188.937-.333.125-.376.145-.404.47-.039.534-.837 1.153-.595 1.682-.607.493-.56 1.333-1.002 1.928-.25.33-.074.507-.247.879a3.29 3.29 0 0 0-.481 1.231c-.153-.127-.544.762-.56.971-.008.186-.665 1.304-.49 1.392a2.47 2.47 0 0 0-.438.983c-.117.36-.442.606-.434.959.007.278-.286.44-.4.689a4.864 4.864 0 0 1-.548 1.096 6.359 6.359 0 0 0-.865 1.9c-.208.582-.584 1.023-.76 1.571-.07.221-.297.033-.207.307.062.19-.035.337-.102.52-.164.428-.818.782-.65 1.26a7.79 7.79 0 0 0 1.625-1.26q.059.046 0 .105a13.669 13.669 0 0 0 2.415-2.015c.772-.696 1.559-1.296 2.322-1.906a3.124 3.124 0 0 0 1.034-1.01c.203.078.333-.079.497-.192a.233.233 0 0 0 .078-.282c.15.004.368.004.427-.172.145-.423.654-.558 1.026-.93s.583-.903 1.037-1.07a2.084 2.084 0 0 0 .83-.641c.318-.817 1.112-1.226 1.774-1.856.368-.354.795-.65 1.136-1.036a.282.282 0 0 1 .383-.22c.259-.017.09-.175.25-.31.353-.3 1.022-1.325 1.586-1.055-.305-.225.572-.948.627-1.206.039.113.317-.041.262.156.196-.197.043-.15.063-.352.031-.286.254-.258.423-.425.336-.33.536-.78 1.088-.532-.082.503-.481.413-.666.855-.113.272-.54.29-.485.666-.16.145-.392.002-.525.207-.137.206.079.298-.23.433-.447.194-.232.296-.6.628-.07.067-.822.521-.728.615.086.09-.454.68-.595.79-.262.216-.775.383-.995.63-.168.185-.086.448-.348.551-.286.108-.348.243-.576.437a14.55 14.55 0 0 0-1.123 1.231c-.349.376-.905.632-1.151 1.038a6.266 6.266 0 0 1-1.48 1.34c-.61.486-.83.893-1.476 1.402-1.073.838-1.97 1.748-3.074 2.475-.481.317-.834.799-1.323 1.1-.333.201-.192.07-.301.307-.083.188-.494.34-.69.558-.172.192-.12.39-.371.529-.188.101-.392.166-.572.274a.859.859 0 0 0-.42.509.601.601 0 0 0-.579.419c-.56 0-.274.008-.524.37-.078-.159-.317.11-.357.145-.262.256-1.049.789-1.162.062-.067-.415.446-.843.603-1.194a6.846 6.846 0 0 1 .47-.996c.219-.34.407-.764.606-1.114a2.613 2.613 0 0 0 .176-.644c.106-.378.365-.4.474-.771.321-1.05.92-1.946 1.25-2.906.191-.56.497-1.11.712-1.693.243-.662.748-1.01.924-1.727.262-1.03.834-1.902 1.186-2.909a14.577 14.577 0 0 1 .795-1.71c.258-.517.31-1.11.591-1.568a5.034 5.034 0 0 0 .407-.932 3.058 3.058 0 0 1 .274-.656.902.902 0 0 1 .341-.325.701.701 0 0 1-.012-.456 2.417 2.417 0 0 1 .317-.511c.2-.302.028-.55.302-.791.176-.159.348-.133.168-.38-.086-.135-.027-.22.172-.25q.341-.086.2-.427c.027-.184.446-.564.168-.7.227-.426.439-.858.639-1.297a18.237 18.237 0 0 1 .861-1.871c.157-.27.078-.368.278-.525.27-.213.2-.343.29-.697a1.963 1.963 0 0 1 .368-.787c.258-.313.023-.385.278-.722a1.284 1.284 0 0 0 .168-.66c.438.024.391-.34.513-.644.211-.525.376-.957.587-1.457.153-.362.584-1.35.858-1.478.007-.003.458-1.013.552-1.176a1.106 1.106 0 0 0 .168-.699c.344-.025.407-.25.411-.544 0-.313.188-.208.368-.42.27-.324-.04-.526.321-.708a.52.52 0 0 0 .212-.585c.364-.03.254-.38.32-.624.09-.335.275-.01.408-.4a.884.884 0 0 1 .372-.55c-.082-.358.403-.552.481-1.014.07-.44.122-1.425.885-.979-.262-.352.121-.546.349-.773a.882.882 0 0 0 .227-.695c.34-.2.301.059.45-.407.098-.306.094-.474.337-.617.188-.111.172-.127.211-.393.583 0 .188-1.022.889-.838a4.285 4.285 0 0 0 .446-1.053c.106-.437.591-.58.783-.963.047-.092.188-.459.396-.241a2.432 2.432 0 0 1 .125-.439c.059-.14.156-.323.333-.334.313-.024.227-.2.403-.498a12.008 12.008 0 0 1 1.045-1.25 2.829 2.829 0 0 1 .72-.833 4.174 4.174 0 0 0 .886-.86c.105-.126.25-.27.422-.14a2.268 2.268 0 0 1 .455-.789c.415-.485.947-.848 1.382-1.308.407.069 1.006-.828 1.284-1.076a18.411 18.411 0 0 1 3.492-2.388m45.953 15.527a10.323 10.323 0 0 1-.13-1.713c.095-.274-.21-.61-.356-.814a3.457 3.457 0 0 1-.513-1.458c-.524-.497-1.037-1.204-1.69-.427a10.887 10.887 0 0 1-.905 1.018 6.154 6.154 0 0 1-.999.902c-.485.276-.618 1.306-.865 1.758-.02.041-.403.404-.43.445a2.83 2.83 0 0 0-.431 1.078c-.086.337-.16.245-.165.58-.004.327-.352.36-.599.311a15.242 15.242 0 0 0-1.21 2.956 4.001 4.001 0 0 0-.05.716.79.79 0 0 0-.263.472c-.536.096-.442.159-.473.683a2.638 2.638 0 0 0-.96 1.868c.02.623-.751 1.51-.877 2.222-.125.74-.49 1.306-.607 2.057a1.101 1.101 0 0 1-.281.725 1.846 1.846 0 0 1-.087 1.113 3.814 3.814 0 0 0 .04.993 3.175 3.175 0 0 0 .258 1.454c.223.417.063.594.528.875a2.62 2.62 0 0 0 1.289.355 4.922 4.922 0 0 0 2.325-.542c-.29-.016.165-.46.165-.46.317-.147.68-.118.99-.274.122-.122.247-.243.364-.368a3.165 3.165 0 0 0 .423-.104 2.87 2.87 0 0 0 .462-.545 3.215 3.215 0 0 0 .388-.546.439.439 0 0 0 .043-.432.45.45 0 0 0 .235-.417 4.367 4.367 0 0 1 .716-2.034 20.746 20.746 0 0 0 1.198-2.112 7.849 7.849 0 0 1 .83-1.668c.165-.237.145-.466.33-.685a1.239 1.239 0 0 0 .348-.676c0-.164-.02-.049-.032-.256a2.809 2.809 0 0 1 .466-.963c-.52-.27-1.17-.106-1.722-.37-.498-.24-1.085-.063-1.477-.46-.32-.325-.81-.492-1.04-.8a1.512 1.512 0 0 1-.342-1.67 1.964 1.964 0 0 1 1.116-1.154c.56-.186.987-.705 1.652-.826.45-.084.416-.472.952-.51.446-.03 1.053.087 1.386-.297m.732 5.51c.419.115.572.332.987.058.524-.349.857-.159 1.06.362 1.156-.088 2.295.333 3.466.305a1.51 1.51 0 0 1 .677.09c.372.128.364-.035.681-.029a5.56 5.56 0 0 1 1.539.194c.294.233 1.386-.022 1.774-.024.661-.004 1.327.024 1.988.044 1.175.033 2.338-.126 3.508-.104.971.02 1.974.319 2.326-.79.098-.308-.02-.66.356-.682.223-.016.047-.5.13-.719.348-.91 1.26-1.867 1.049-2.907-.212-1.063-1.676-1.6-2.608-1.752-.509-.084-.384-.305-.908-.311a40.229 40.229 0 0 0-1.88.014c-1.197.04-2.38.11-3.578.213a29.939 29.939 0 0 0-3.1.18c-2.138.397-4.272.64-6.398 1.05a6.3 6.3 0 0 0-.595.14 2.704 2.704 0 0 1 .055 1.063c-.032.26-.06.523-.087.783-.027.302-.215.452-.23.672.461.804-.44 1.439-.212 2.15m-27.277-2.94c-.446-.246-.403.86 0 .316a.33.33 0 0 1-.067.425q-.305-.06.012.152c-.129-.125-.262.106-.364-.103.211-.124-.023.015.102.05.14-.086-.063-.229-.137-.187.012.1.039.11.086.031-.215.18-.188.544-.262.787a.256.256 0 0 0 .211-.106.254.254 0 0 0-.235.102c.047.027.384-.016.337-.102.086.155-.11.443-.262.474a.23.23 0 0 0-.051-.315c-.094.227-.083.274.113.383.247.136-.102.99-.157 1.206-.215.895-.434 1.79-.614 2.692-.024.112-.4 1.545-.443 1.543.212.039-.254.87-.301 1.025a3.313 3.313 0 0 0-.117 1.44c.395-.048.56-.51.935-.559.537-.07.78-.847 1.214-1.227.208.403.556.158.43.697-.05.227.09.904-.273.93.023.906-.607 2.492.775 1.343.787-.654 1.613-2.023 2.607-.907a2.416 2.416 0 0 1 .56 1.234c.075.33.854-.116.955-.243.282-.362 1.316-.237 1.085.356.384.343.85-.06 1.257.159.11-.366.524.056.716.025a12.695 12.695 0 0 1 3.113.34c.305.122 1.707.825 1.942.367a6.145 6.145 0 0 0-.517-1.224 14.08 14.08 0 0 1-.697-1.934c-.294-.675-.88-1.06-1.124-1.771a14.938 14.938 0 0 0-1.292-1.991c-.959-1.711-2.709-2.573-3.903-4.053a26.91 26.91 0 0 0-2.06-1.851 8.005 8.005 0 0 0-2.212-1.706 17.807 17.807 0 0 1-.892 1.942c-.11.249-.235.241-.243.521-.008.337-.368-.133-.227-.26m23.342 1.732a4.976 4.976 0 0 0 1.72.658 1.792 1.792 0 0 1 .7.323c.364.264.525.276.623-.11a12.22 12.22 0 0 0 .34-1.382 19.09 19.09 0 0 1 .239-2.218c-.294-.004-.897-.127-.99.131-.118.331-1.226.165-1.32-.184-.626.562-1.48.494-2.005 1.183-.203.266-.516.567-.27.865a3.829 3.829 0 0 0 .963.734m23.135 1.733c.145-.01.384.182.42.209a1.63 1.63 0 0 0 .262-1.364 2.273 2.273 0 0 0-.682 1.155m-21.56 5.925a2.542 2.542 0 0 1 .254-.937c.152-.272.325-.535.462-.817.105-.219.285-.348.36-.542.152-.395.23-.91.595-1.141.388-.243.853-1.64 1.108-2.122-1.135-.47-1.296 1.893-1.676 2.411a2.166 2.166 0 0 0-.317.157c-.125.198-.031.388-.203.61-.247.318-.341 1-.678 1.172a3.927 3.927 0 0 0-.481 1.21c-.18-.146-.27.332-.251.383.09.264.623-.556.881-.487-.082.015-.098.05-.055.103m24.81-4.46c1 .336-.203-.982 0 0m-3.617-.154c-.211.61-.693 1.257-.575 1.94a1.414 1.414 0 0 0 1.256-.869 1.262 1.262 0 0 0 .145-.754c-.082-.503-.41-.317-.826-.317m1.312 1.048c.63.074.889-.643 1.26-.997-.548-.18-1.358.52-1.26.997zm-2.205 1.993c.102.309 1.077.058 1.202-.145.368-.596-1.237 0-1.202.145m5.877.945c-.626-.366-1.253 1.364-1.39 1.727-.055.146.047.477.255.336.223-.15.278-.352.395-.644a6.241 6.241 0 0 1 .74-1.42m-7.501 5.298c.329-.301.595-.4.755-.824.176-.462.372-.916.576-1.37a11.634 11.634 0 0 0 1.03-2.946 2.433 2.433 0 0 0-.885.152c-.505.176-.627.21-.595.682a1.906 1.906 0 0 1-.29.91 8.914 8.914 0 0 0-.33 1.353 6.703 6.703 0 0 1-.351 1.217c-.18.413-.06.323-.094.715-.016.193.168.191.184.111M44.222 86.975a1.576 1.576 0 0 0-.314.472c.298.03.27-.127.314-.472z"/><path class="cls-1" d="M130.362 34.234c.008.18.642-.615.47-.736-.16-.114-.834.597-.912.732-.247.427-.693.497-.905.883-.203.372-2.2 1.752-2.165.744.016-.456-.258.043-.062-.595.098-.327.203-.652.325-.971a5.13 5.13 0 0 1 .955-1.645c.438-.473.618-.9 1.194-1.223a2.58 2.58 0 0 0 .783-.601c.04-.002.568.007.423.211.654-.184.603-.842.787-1.39.207-.63.65-1.135.834-1.742.102-.34.587-1.059.96-1.004a.765.765 0 0 1 .633.742c.083.988-.83 1.348-.99 2.208-.043.213-.192.66-.443.66.024.614-.372.83-.575 1.374a3.023 3.023 0 0 0-.333 1.591c.125.63 1.183-.329 1.34-.581a7.72 7.72 0 0 1 .982-1.545 1.302 1.302 0 0 1 .313-.712 2.594 2.594 0 0 0 .61-.907 1.786 1.786 0 0 1 .549-.74.969.969 0 0 1 .317-.73c.4-.407.525-1.01.971-1.41a7.41 7.41 0 0 0 1.073-1.48c.149-.248.246-.52.384-.774.203-.37.528-.431.728-.807a16.95 16.95 0 0 1 1.104-1.834c.356-.503.967-.971 1.163-1.517.195-.547.841-.69 1.033-1.212a2.665 2.665 0 0 1 .795-1.11c.427-.133.932-1.157 1.253-1.523a7.6 7.6 0 0 0 1.292-1.472 5.304 5.304 0 0 1 1.053-1.294c.623-.64 1.272-1.253 1.899-1.89.951-.972 2.102-1.812 2.952-2.871.348-.43.564-1.298 1.05-1.566a.607.607 0 0 1 .755.92c-.791 1.02-1.288 2.298-2.016 3.36-.302.44-.38 1.144-.803 1.473.008.284-.255 1.226-.58 1.206-.035.147.141.114.106.262-.196.363-.387.725-.58 1.09-.371.727-.728 1.457-1.084 2.19-.755 1.575-1.492 3.165-2.306 4.713-.207.396-.282 1.024-.54 1.241a.635.635 0 0 0-.188.55c.027.331-.235.462-.38.76-.188.374-.098.572-.336.936a5.992 5.992 0 0 0-.482.931 15.087 15.087 0 0 0-.764 1.543 3.344 3.344 0 0 1-.912 1.562c-.195.218-.47.421-.192.744a5.183 5.183 0 0 0-.732 1.523c.576-.205.709-.824 1.16-1.086.434-.247.61-.772.95-1.11.698-.695 1.414-1.359 2.166-2.09.54-.522 1.123-.994 1.695-1.477.29-.243.571-.486.85-.742 0-.386-.07-.54.219-.836a2.523 2.523 0 0 1 1.687-.748c.529-.017 1.03-.329 1.656-.2.6.122 2.287.114 3.046.631a1.737 1.737 0 0 1 1.57.525c.756-.096 1.241.338 1.872.644a1.877 1.877 0 0 0 .752.194c-.235.322.52.42.58.42.567.682 1.319 1.03 1.835 1.705.173.224.364.435.517.676.345.544.235.474.936.446a7.47 7.47 0 0 0 1.304-.111c.344-.077.72.236.884.008.177-.243.333.019.51.072.12.037.473-.18.72-.155.47.055 1.002.15 1.002-.49a21.581 21.581 0 0 1 3.097-4.367c.43-.446 2.565-2.822 3.199-1.405a10.746 10.746 0 0 1-1.026 2.292c-.227.427-.458.852-.654 1.296a6.812 6.812 0 0 0-.258.662.392.392 0 0 0-.317.264c-.04-.033-.04-.068 0-.107a9.681 9.681 0 0 1-1.418 2.204 6.017 6.017 0 0 0 1.343.503c.176.057 1.449.562.807.703.387.366-1.206.29-1.449.293-.646.012-1.766-.317-2.134.337-.113.198-.395.304-.458.523-.098.33.783.282.98.283a8.39 8.39 0 0 1 2.29.024c.473.147.634-.043 1.037-.096a10.801 10.801 0 0 0 2.443.094 11.168 11.168 0 0 1 3.05.143c.767.141 1.28.11 1.903.235-.18.172.094.523.211.317.133.104-.113.192.153.104-.098.47-3.226-.149-3.7-.169a39.354 39.354 0 0 0-4.326-.093 3.56 3.56 0 0 1 .102 1.779c-.063.297-.177.597-.49.34-.368-.297-.301-.285-.5-.702-.326.015-.62.409-.624-.235-.003-.28-.274-.221-.097-.496.164-.258.446-.32.407-.686a36.01 36.01 0 0 0-3.622.158c-.779.777-.799 2.067-1.163 3.013-.383.984-.125 1.734-.36 2.703.321.184.932 1.646.58 1.942.082-.022.098-.055.05-.108.016-.023.353.402 0 .474.611.315.251 1.05.521 1.455.525.788-.266 1.975.059 2.793.25.634-1.222.52-1.46-.123-.137-.372-.447-.529-.376-.98.027.116-.298-.565-.055-.312-.227-.398-.04-1.711-.52-1.89.011-.915-.212-1.73-.22-2.65-.004-.992.575-2.32.082-3.265-.305-.576-.552.088-.967.197.004-.044-.642.31-.748.337-.333.086-.751.12-.877.501a3.91 3.91 0 0 1-2.067-.152 5.61 5.61 0 0 1-1.491-.77c-.466-.333-.834-.5-.94.26a2.017 2.017 0 0 0 .14 1.03 5.913 5.913 0 0 0-.575 1.05c-.125.323-.015.697-.313.996-.114.114-.87.343-.63 0-.141.02-.278.037-.42.053a6.093 6.093 0 0 1-.477-.78c-.172-.306-.478-1.115-.904-.955a1.72 1.72 0 0 0-.897.64 1.469 1.469 0 0 1-1.041.874c-1.07.145-.603-1.24-1.007-1.725-.242-.291-2.25.01-2.623-.012-1.613-.097-3.692-.745-4.745.803a1.69 1.69 0 0 1-.599.642c-.415.192-1.034-.162-.92-.656.078-.346.49-.61.466-.98-.157-.333-.752.027-.838-.42.29-.148.587.03.877-.148a1.724 1.724 0 0 0 .587-.699c.302-.59.431-1.269.791-1.828a3.26 3.26 0 0 0-1.57.184c-.438.227-1.002-.024-1.37.287-.932-.248-1.288 1.435-1.75 1.95q-.194.211-.4.411a.589.589 0 0 1-.172.722 2.97 2.97 0 0 0-.681.985 5.657 5.657 0 0 1-.881 1.59c-.102.154-.697.779-.677.951a10.444 10.444 0 0 0 2.29-.524 8.8 8.8 0 0 0 2.713-.77c.372-.26.685.01 1.081-.07.454-.09.853-.357 1.32-.413.489-.057.21.344.622.205a1.707 1.707 0 0 1 1.26-.158c.09.714-3.492 1.111-4.044 1.172a9.392 9.392 0 0 0-1.961.41c-.404.15-.827.123-1.238.254-.2.064-.328.258-.63.288a2.827 2.827 0 0 0-1.127.39c-.318.164-.463-.02-.729.195a1.807 1.807 0 0 0-.544.985 3.704 3.704 0 0 1-.486.935c-.442.783-.696.989-1.519.668.294-.583-.058-1.206.576-1.625-.34-.004.223-.035-.074-.196a.94.94 0 0 0-.807.047c-.235.098-1.253.752-1.268.57-.729.519-1.711.724-2.412 1.216-.69.487-1.222.683-1.97 1.174a7.025 7.025 0 0 1-1.19.707c-.419.164-.74.55-1.182.65-1.167.262-.4-2.304-.067-2.175a.29.29 0 0 0-.156-.313 2.163 2.163 0 0 0 .665-1.126c.153-.386.595-.722.658-1.008.102-.466.239-.474.52-.89a6.23 6.23 0 0 1 .866-1.385c.16-.139.466-.111.337-.364-.169-.339.133-.188.266-.437a6.434 6.434 0 0 0 .204-.614c.375-.059.489-.503.65-.783a9.46 9.46 0 0 1 1.166-1.652c.266-.298.885-.967.807-1.447-.024.127-.63-.12-.674-.135-.446-.157-.176-.6-.007-.912m18.726-21.98a.8.8 0 0 1-.106.262c.274.339.38-.1.47-.262a.719.719 0 0 0-.364 0m-3.356 7.764a10.47 10.47 0 0 1 1.034-2.183c.212-.26.18-.42.282-.738.13-.378.415-.378.493-.748.141-.681.81-1.216.76-1.948.325.014.693-1.5.626-1.781a.564.564 0 0 1-.575.262c0 .398-.255.442-.537.697-.505.462-.947.995-1.456 1.453a1.692 1.692 0 0 1-.924 1.068c-.376.108-.99 1.328-1.237 1.715-.25.392-.709.349-.967.832a4.37 4.37 0 0 1-.842 1.22 6.009 6.009 0 0 0-1.5 2.069 10.247 10.247 0 0 1-.67.965c-.156.284-.99.938-.888 1.259-.258.059-.583.585-.693.85a6.096 6.096 0 0 1-.81 1.244 49.098 49.098 0 0 0-2.678 4.196 23.18 23.18 0 0 1-1.277 1.892c.036.558-.583.697-.63 1.208a4.535 4.535 0 0 1 1.468.2 2.94 2.94 0 0 1 1.03.39c.423.338.916.577 1.335.932a3.562 3.562 0 0 1 1.738-.795c.771-.206 1.053-1.707 1.472-2.373.125-.207.016-.317.094-.505.098-.237.325-.387.42-.628.038-.098.207-1.026.312-.787a7.8 7.8 0 0 0 .388-1.004 4.941 4.941 0 0 1 .822-1.198c-.063-.345.25-.515.368-.809a10.966 10.966 0 0 0 .662-1.533 13.968 13.968 0 0 1 .642-1.376c.188-.566.36-1.172.587-1.713a4.694 4.694 0 0 0 .521-1.339c.34-.268.184-.742.63-.994m25.28 6.135c-.14-.613.435-.91.631-1.415-.56-.259-.783.955-1.206.68-.52-.334-1.143 1.293-1.104 1.314.368-.174.49-.943.947-.998-.281.068.028.063.028.078-.008-.154.246-.297.286-.13-.032.115-.372.263-.051.105a4.845 4.845 0 0 1-1.104 1.546 15.733 15.733 0 0 0-1.363 2.126c.376.192.454.15.63 0a4.854 4.854 0 0 0 .96-1.22.702.702 0 0 1 .227-.334c.32-.211.2-.26.34-.65a3.178 3.178 0 0 1 .78-1.102m-18.151 2.1a21.741 21.741 0 0 0 3.727.627c1.202.258 2.56.836 3.83.524.438.353.93.057.5-.43-.481-.54-1.018-1.024-1.5-1.562a6.592 6.592 0 0 1-1.342-.777c-.494-.316-1.214-.343-1.578-.71-.321-.32-.994-.28-1.437-.412a7.227 7.227 0 0 0-2.008-.48 11.626 11.626 0 0 0-2.498.02c-.063.491-.525.83-.791 1.211-.325.456.43.868.826 1.036a2.907 2.907 0 0 0 .572.168c.928.178 0-.015.336.26a2.45 2.45 0 0 1 .838.437c.317.222.231.016.525.088m2.729 2.254c.72-.145 1.421-.382 2.15-.472-.087 0 .332-.02.316-.21-.16-.213-.434-.01-.63 0a8.104 8.104 0 0 0-1.574-.315c-.767-.117-1.507-.338-2.26-.509a23.036 23.036 0 0 1-1.753-.466 3.69 3.69 0 0 1-.795-.4c-.43-.263-.642-.148-1.069-.285a3.505 3.505 0 0 1-.654-.376c-.418-.245-.262.114-.493.339a8.91 8.91 0 0 0-.79 1.435 6.288 6.288 0 0 0-1.09 1.89c-.14.68-.814 1.426-1.06 2.15 1.989-.323 3.895-.078 5.806-.853.215 0 .278-.078.184-.233-.11-.266.286-.255.446-.358a2.955 2.955 0 0 1 1.018-.6c.423-.066.74-.377 1.19-.483a2.847 2.847 0 0 1 .53-.076c.43-.016.23-.03.528-.178m-12.063.943a29.805 29.805 0 0 1-2.048 2.363 6.906 6.906 0 0 0 1.55-.255 4.829 4.829 0 0 1 .94-.107c.564-.018.646-.634.89-1.114.743-1.46 1.561-2.882 2.391-4.293a10.546 10.546 0 0 0-2.325 1.971 12.228 12.228 0 0 1-.948.881 6.31 6.31 0 0 0-.45.554m22.187-1.362c.02.364.67.281.787.052-.27-.188-.466-.005-.787-.052zm3.986.209c-.423.004-.49.384-.098.282.255-.067.576.274.99.137-.18-.29-1.052-.17-.892-.419m-12.85.63c-.806.59-2.07.132-2.204 1.469.356.107 1.382.28 1.629.011.266-.284.67-.906 1.104-.5.184.17.294.414.52.542a10.372 10.372 0 0 1 1.128-.108c.78-.035 1.558-.014 2.341-.032.4-.01.8-.029 1.199-.07a1.531 1.531 0 0 0-.251-.87 4.598 4.598 0 0 1-.43-.915 5.276 5.276 0 0 0-1.081-.1c-1.343.015-2.616.546-3.955.573m5.666-.42c.168.395.403.761.595 1.145.34.683.254.458.96.509a4.51 4.51 0 0 0 1.538-.012c.419-.116.607-.852.736-1.272-1.284-.028-2.55-.302-3.83-.37m-31.79 1.26c-.764 0-1.645 1.169-2.044 1.764-.145.213-1.026 1.505-.893 1.646.333.141 1.092-.646 1.304-.83.5-.438.904-1.493 1.687-1.217.172-.456-.102-.893-.055-1.363m30.793 1.153c-.45-.023-.896.174-1.347.13a.397.397 0 0 1-.328-.183c-.227.165-.365.253-.63 0-.373.478-2.244-.374-1.763 1.052.177.53.752.146 1.077.366.306-.104.783-.235.999.105-.067.163-1.206.22-1.469.21a2.506 2.506 0 0 0 1.872 1.417 9.795 9.795 0 0 0 1.746-.21c-.078.016-.094.05-.05.104.594-.403 1.827-.661 1.91-1.349.066-.55-.302-.97-.521-1.438-.164-.353-1.073-.182-1.496-.204m2.518.893c.149.32.078.487.497.237a1.972 1.972 0 0 0 .764-.758c.29-.587-.834-.339-1.16-.344-.86-.018-.309.415-.101.865m-11.855-.262c-.412-.12-.936.203-1.351.254-.623.074-1.159.634-1.711.975a21.25 21.25 0 0 0-3.023 1.971 58.13 58.13 0 0 0 2.49.217 6.193 6.193 0 0 0 2.624-.068c.27-.125 1.057-.856.873-1.073-.266-.307.422-1.69.622-1.961-.278.035-.297-.25-.524-.315m-6.135 2.202a9.74 9.74 0 0 0 2.936-1.94 2.854 2.854 0 0 0-1.417.053c-.545.049-1.218-.176-1.73.066-.753.35-.898 1.478-1.258 2.136.42.121 1.566-.906 1.469-.315m-7.87-.525a1.87 1.87 0 0 1-.893.474 8.756 8.756 0 0 0-1.335-.719 8.475 8.475 0 0 0-2.647-.59c-.712-.144-1.154.91-1.515 1.454a6.852 6.852 0 0 1-.52.902c-.18.186-.49.472-.486.787a8.829 8.829 0 0 0-1.413 1.893c-.176.302-.24.595-.529.8-.325.23-.258.353-.454.749-.176.354-.411.143-.513.517a6.969 6.969 0 0 1-.712 1.184c-.016.03-.423 1.043-.627.836.082-.102.212-.012.208.107-.11.368-.517.224-.474.568.078.668-.54 1.412-.681 2.054.978-.412 1.754-1.014 2.678-1.488 1.002-.511 2.028-.981 2.987-1.566a12.667 12.667 0 0 1 2.455-.922c.372-.124.9-.084 1.127-.423.231-.34.294-.785.72-.952-.297-.17.044-.352.154-.45.336-.295.25-.432.438-.836a.914.914 0 0 1 .458-.497 6.902 6.902 0 0 0 .497-1.23 4.957 4.957 0 0 1 .826-1.446c.192-.21.533-.415.596-.714.05-.237-.067-.506-.314-.394-.043.02.016-.09-.031-.098m15.528-.628c.144.395-.353.797-.529 1.092a1.827 1.827 0 0 0-.102 1.32c.384-.177.501-.627.662-.977.305-.658.626-.777.282-1.592l-.313.157m10.856.787c.216.011.36-.247.157-.263a.597.597 0 0 0-.157.263m-9.545 1.675c.259-.039.321.12.525.212.18-.4.607-1.135.313-1.572a1.345 1.345 0 0 0-.838 1.36m.889 1.052c.02-.124.184-.1.16-.263-.136-.025-.297.186-.16.263zm9.917 2.308c-.266.027-.36-.447-.63-.263.09.425.227.846.282 1.277.023.223.16.916-.02 1.084.392.077-.14 1.216.419 1.418.442-.637-.11-1.433.212-2.1a5.493 5.493 0 0 0-.368-1.05c.368-.086.113-.163.09-.176-.141-.092.015-.186.015-.19m-47.37-9.128c.223-.08-.074-.179-.05-.316a.79.79 0 0 1 .825-.313.611.611 0 0 1 .396.417c.121.421-.055.329-.227.474.52.256.352.994-.133.793a1.66 1.66 0 0 1-.697-.607c-.036-.055-.2-.607-.141-.59.082.03.09.077.027.142m6.82 3.306c-.426.156-.434.456-.798.615a.876.876 0 0 0-.407.33 3.351 3.351 0 0 0-.85.085c-.462.125-.697.235-1.065-.188a.522.522 0 0 1 .184-.895c-.074-.244-.49-.104-.474-.419-.266.143-.481.356-.736.525a1.3 1.3 0 0 1 .227-1.437c.141-.174.858-.906.877-.715a1.637 1.637 0 0 1 .999-.315c.52.276 1.123-.156 1.675-.105a4.28 4.28 0 0 1 .752 1c.302.75-.364.887-.384 1.519m-1.206-.21c.658-.262 1.054-1.58.036-1.609a2.064 2.064 0 0 0-1.018.272 5.45 5.45 0 0 0-.016 1.65c.364-.083.6-.41.998-.313"/><path class="cls-1" d="M160.732 34.338c-.039.178-.473.066-.47.156-.203-.057.196-.509.47-.156m9.388.418c.181-.127.017.09-.05.106.223.331.411.37.004.607-.368.212-.23.239-.372.619-.18.481-.685 1.149-.313 1.66a13.957 13.957 0 0 0 .877-1.382c.18-.247.462-.288.278-.584-.102-.162-.157-.377.07-.44a1.874 1.874 0 0 1 1.053.023c.102.036.24.108.235.237-.011.356-.094.24.079.656.462 1.14 3.108.462 4.02.258a2.79 2.79 0 0 0 1.547-.603c.396-.39.846.321.944.71.188.714-.533.833-1.077.87-.638.041-1.057.176-1.672.194-.556.018-.916.35-1.464.354a8.933 8.933 0 0 1-2.33-.505c-.27-.072-.896-.464-1.127-.368-.493.208-.674.777-1.026 1.16-.274.299-.478 1.091-.771 1.207-.54.22-1.14.133-1.104-.634.05-.045.086-.026.101.053.06-.004-.015-.274 0-.316-.117.079-.066-.978 0-1.155a8.173 8.173 0 0 0 .54-1.07c.103-.396.193-.494.564-.502-.497-.75.748-.77.995-1.155m-12.431 2.573c.13.203 1.37-.169 1.68.102-.067-.028-.07-.06-.016-.098a.127.127 0 0 1 .067.15 2.562 2.562 0 0 1 .681-.02c.243.018.916.02.998.02a2.605 2.605 0 0 1 1.469.21.378.378 0 0 1-.102.211 19.812 19.812 0 0 0-3.152-.105.071.071 0 0 1 0-.106c-.286-.047-.728.401-.944 0 .075.086-.747.157-.994 0a.996.996 0 0 1 .313-.364m4.984.261c.04.007-.007.124.047.093.341-.188-.427-.225.372-.174a2.108 2.108 0 0 1 .893.184c-.035.249-1.23.2-1.312-.104"/><path class="cls-2" d="M292.556 42.448c-2.453 0-3.864-1.692-3.864-4.11a3.818 3.818 0 0 1 4.077-4.064c2.543 0 3.841 1.758 3.841 4.085a3.802 3.802 0 0 1-4.054 4.09zm.113-7.39a2.95 2.95 0 0 0-3.058 3.268c0 1.793.996 3.349 2.98 3.349 2.105 0 3.09-1.455 3.09-3.325s-1.074-3.293-3.012-3.293zm7.712.1v7.155h-.895v-7.155h-2.709v-.76h6.314v.76zm8.248 7.155l-1.027-2.977h-3.248l-1.155 2.977h-.895l3.112-7.915h1.41l2.745 7.915zm-2.116-6.136l-.434-1.265-.496 1.265-.95 2.44h2.72zm-98.249 6.136l-1.031-2.977h-3.248l-1.151 2.977h-.895l3.112-7.915h1.41l2.74 7.915zm-2.116-6.136l-.438-1.265-.493 1.265-.953 2.44h2.72zm9.29 6.136l-3.961-7.2.077.93v6.27h-.895v-7.915h1.387l4.078 7.413-.113-1.177v-6.236h.896v7.915zm6.422-7.155v7.155h-.896v-7.155h-2.713v-.76h6.318v.76zm6.883 7.29c-2.453 0-3.864-1.692-3.864-4.11a3.817 3.817 0 0 1 4.073-4.064c2.543 0 3.845 1.758 3.845 4.085a3.804 3.804 0 0 1-4.054 4.09zm.108-7.39a2.95 2.95 0 0 0-3.054 3.268c0 1.793.996 3.349 2.977 3.349 2.104 0 3.093-1.455 3.093-3.325a2.972 2.972 0 0 0-3.016-3.293zm-1.139-.952l-.202-.638 2.508-.909.267.808zm11.522 8.207l-3.964-7.2.081.93v6.27h-.895v-7.915h1.387l4.074 7.413-.113-1.177v-6.236h.895v7.915zm4.004 0v-7.915h.895v7.915zm6.569.135c-2.453 0-3.864-1.692-3.864-4.11a3.817 3.817 0 0 1 4.074-4.064c2.542 0 3.84 1.758 3.84 4.085a3.801 3.801 0 0 1-4.05 4.09zm.109-7.39a2.95 2.95 0 0 0-3.054 3.268c0 1.793.996 3.349 2.976 3.349 2.105 0 3.093-1.455 3.093-3.325a2.973 2.973 0 0 0-3.015-3.293zm11.879 7.255h-2.174v-7.926h2.104c2.554 0 4.403 1.197 4.403 3.94s-1.69 3.986-4.333 3.986zm-.1-7.178h-1.187v6.44h1.407c2.062 0 3.318-1.053 3.318-3.125 0-2.261-1.411-3.315-3.539-3.315zm11.185 7.178l-1.028-2.977h-3.248l-1.154 2.977h-.896l3.113-7.915h1.41l2.744 7.915zm-2.117-6.136l-.434-1.265-.496 1.265-.95 2.44h2.721zm15.527 6.136v-6.114l.046-.907-2.72 7.02h-1.427l-2.426-7.02.066.752v6.269h-.896v-7.915h1.454l2.565 7.401 2.876-7.4h1.357v7.914zm7.545-11.678c-1.496 0-3.096-.543-3.096-2.798v-5.163h.891v5.085c0 1.725 1.105 2.099 2.205 2.099 1.19 0 2.206-.486 2.206-2.364v-4.82h.837v4.864a2.787 2.787 0 0 1-3.043 3.097zm5.112-.145v-7.816h4.298v.72h-3.426V26.2h3.186v.729h-3.186v2.83h3.674v.73zm6.403 0v-7.816h.872v7.054h3.349v.762zm-33.106 0v-6.035l.042-.895-2.65 6.93h-1.384l-2.368-6.93.066.738v6.192h-.872v-7.816h1.418l2.496 7.308 2.806-7.308h1.318v7.816zm8.158 0l-1.004-2.942h-3.162l-1.124 2.942h-.876l3.035-7.816h1.376l2.67 7.816zm-2.062-6.06l-.426-1.246-.48 1.246-.927 2.41h2.651zm8.899 6.06l-3.86-7.108.073.916v6.192h-.872v-7.816h1.353l3.973 7.318-.109-1.16v-6.158h.872v7.816zm-84.312-7.1v3.032h3.267v.73h-3.267v3.34h-.841V22.67h4.34v.719zm8.143 7.247c-1.48 0-3.07-.543-3.07-2.8V22.67h.888v5.09c0 1.725 1.089 2.103 2.182 2.103 1.174 0 2.182-.488 2.182-2.37V22.67h.83v4.87a2.772 2.772 0 0 1-3.012 3.096zm9.418-.145l-3.713-7.112.073.918v6.194h-.837V22.67h1.299l3.813 7.325-.104-1.163V22.67h.84v7.82zm5.321 0h-2.03v-7.833h1.968c2.387 0 4.116 1.186 4.116 3.895 0 2.711-1.581 3.938-4.054 3.938zm-.093-7.091h-1.112v6.362h1.321a2.799 2.799 0 0 0 3.1-3.089 2.978 2.978 0 0 0-3.31-3.273zm10.624 7.091l-.962-2.94h-3.042l-1.078 2.94h-.837l2.91-7.821h1.322l2.566 7.82zm-1.981-6.062l-.407-1.25-.461 1.25-.892 2.41h2.547zm9.317 5.876l-.244-.733a4.16 4.16 0 0 1-1.686.244 2.983 2.983 0 0 1-3.143-3.294c0-2.29 1.383-3.155 2.934-3.155a4.524 4.524 0 0 1 1.875.31l.24-.72a4.898 4.898 0 0 0-2.135-.377c-2.422 0-3.782 1.595-3.782 4.052a3.655 3.655 0 0 0 3.433 3.954 1.056 1.056 0 0 1 .066.333c0 .289-.159.564-.608.853l.26.486c.829-.364 1.112-.864 1.1-1.35a1.116 1.116 0 0 0-.054-.315 5.537 5.537 0 0 0 1.744-.288zm6.829.186l-.965-2.94h-3.04l-1.077 2.94h-.841l2.91-7.821h1.322l2.57 7.82zm-1.764-8.13c-.5 0-.868-.474-1.286-.474a1.142 1.142 0 0 0-.841.33l-.26-.586a1.64 1.64 0 0 1 1.14-.554c.546 0 .883.474 1.29.474a1.198 1.198 0 0 0 .787-.34l.295.542a1.599 1.599 0 0 1-1.125.608zm-.216 2.068l-.411-1.25-.462 1.25-.891 2.41h2.546zm6.987 6.195c-2.29 0-3.616-1.67-3.616-4.06a3.677 3.677 0 0 1 3.818-4.017c2.38 0 3.593 1.739 3.593 4.039 0 2.413-1.427 4.038-3.795 4.038zm.105-7.3c-1.895 0-2.86 1.404-2.86 3.229 0 1.771.934 3.31 2.79 3.31 1.97 0 2.892-1.44 2.892-3.289 0-1.846-1.008-3.25-2.822-3.25z"/></g></g></svg>