<?xml version="1.0" encoding="UTF-8"?> <svg xmlns="http://www.w3.org/2000/svg" viewBox="0 0 306.28 85.77"><defs><style>.cls-1{fill:#937cb9;}.cls-2{fill:#ffe05d;}.cls-3{fill:#7bcbdd;}.cls-4{fill:#eb5337;}.cls-5{fill:#67bd93;}.cls-6{fill:#f8b015;}</style></defs><g id="Layer_2" data-name="Layer 2"><g id="Layer_3" data-name="Layer 3"><rect class="cls-1" width="11.97" height="81.53"></rect><path class="cls-2" d="M265.36,54.37a28.42,28.42,0,0,0-56.84,0Z"></path><path class="cls-3" d="M142.92,54.37a28.42,28.42,0,0,0,56.84,0Z"></path><path class="cls-2" d="M136.6,54.37a28.42,28.42,0,0,0-56.83,0Z"></path><path class="cls-1" d="M220.48,54.37a16.46,16.46,0,0,1,32.92,0h12a28.42,28.42,0,0,0-56.84,0Z"></path><path class="cls-4" d="M248,66.48a16.45,16.45,0,0,1-27.54-12.11h-12A28.42,28.42,0,0,0,256.11,75.3Z"></path><polygon class="cls-4" points="39.45 85.77 9.12 55.44 39.45 25.12 47.91 33.57 26.04 55.44 47.91 77.31 39.45 85.77"></polygon><rect class="cls-5" x="190.23" width="11.97" height="81.55"></rect><rect class="cls-6" x="79.77" y="27.31" width="11.97" height="54.22"></rect><rect class="cls-5" x="55.35" y="27.31" width="11.97" height="54.22"></rect><rect class="cls-3" x="55.35" width="11.97" height="11.97"></rect><rect class="cls-6" x="271.95" y="27.23" width="11.97" height="54.37"></rect><rect class="cls-6" x="124.64" y="54.37" width="11.97" height="27.18"></rect><path class="cls-5" d="M154.88,54.37a16.46,16.46,0,0,1,32.92,0h12a28.42,28.42,0,0,0-56.84,0Z"></path><path class="cls-1" d="M187.8,54.37a16.46,16.46,0,0,1-32.92,0h-12a28.42,28.42,0,0,0,56.84,0Z"></path><path class="cls-4" d="M91.73,54.37a16.46,16.46,0,0,1,32.91,0h12a28.42,28.42,0,0,0-56.83,0Z"></path><path class="cls-4" d="M306.28,26a28.41,28.41,0,0,0-28.41,28.38h12A16.47,16.47,0,0,1,306.28,38Z"></path></g></g></svg> 