<svg id="Layer_1" data-name="Layer 1" xmlns="http://www.w3.org/2000/svg" viewBox="0 0 262.19 200.26"><path d="M237.71,34.6l24.48,0v9.72H227.81V79h-10V53.25c0-3.68-1.41-6-3.21-7.27a15.52,15.52,0,0,0-6.68-1.55l-24.48-.06V34.65h34.38V0h10V34.6Z" style="fill:#62bb46"/><polygon points="53.06 142.35 53.06 129.45 13.25 129.45 13.25 54.97 0.11 54.97 0.11 142.35 53.06 142.35" style="fill:#e03a3e;fill-rule:evenodd"/><path d="M206.47,142.35s-12.77-20.91-22.9-37.18a16.24,16.24,0,0,0-1.26-1.88,27.61,27.61,0,0,0,7.77-3.13C197,96,200.59,88.27,200.59,79.63S197,63.23,190.08,59c-6-3.63-13.27-4-18.78-4H140v87.38h13.27V104.29h9.64a7.3,7.3,0,0,1,4.76,1.63,22.45,22.45,0,0,1,4.63,6C181.06,126.2,191,142.35,191,142.35ZM187.32,79.63c0,4.76-1.75,8-4.25,9.64-2.88,1.63-7.14,2-11.77,2h-18V67.86h18c4.63,0,8.89.5,11.77,2.13C185.44,71.62,187.32,74.75,187.32,79.63Z" style="fill:#e03a3e;fill-rule:evenodd"/><path d="M128.45,128.82l-12.16-8.95c-5.72,7.16-12.7,10.2-21.28,10.2-9.3,0-16.63-3.94-20-9.12-2.86-4.12-3.93-10.37-4.11-16.1h56.86c.18-10.72.89-25-5.19-34.5C115.93,60.33,105.74,55,93.4,55c-13.59,0-24.5,5.18-31.29,15.38-5.9,9.12-6.62,20.38-6.62,29.32,0,8,.54,20.2,6.62,29.32,6.62,10,18.77,15.92,32.9,15.74C107.88,144.73,119.33,140.08,128.45,128.82ZM112.53,90.19H71.23c1.61-12.51,8-20.56,22.17-20.56,7.33,0,12.52,2.86,16.27,8.76C111.1,80.54,112.17,85.37,112.53,90.19Z" style="fill:#e03a3e;fill-rule:evenodd"/><path d="M13.2,162.52a5,5,0,0,0-2.26-4.41,7.48,7.48,0,0,0-4-.89H0v18.11H2.75v-7.55H6.9a7.73,7.73,0,0,0,4-.86A5,5,0,0,0,13.2,162.52Zm-2.75,0a2.41,2.41,0,0,1-1,2.12,5.36,5.36,0,0,1-2.59.47H2.75V159.9H6.9a5.49,5.49,0,0,1,2.59.46A2.43,2.43,0,0,1,10.45,162.52Z" style="fill:#58595b;fill-rule:evenodd"/><polygon points="26.86 175.33 26.86 172.66 18.61 172.66 18.61 157.22 15.89 157.22 15.89 175.33 26.86 175.33" style="fill:#58595b;fill-rule:evenodd"/><path d="M44.83,175.33l-7.19-18.11H35.05l-7.18,18.11h2.95l2-5.09h7l2,5.09Zm-6-7.71H33.88l2.47-6.22Z" style="fill:#58595b;fill-rule:evenodd"/><polygon points="59.84 175.33 59.84 157.22 57.11 157.22 57.11 169.75 49.38 157.22 46.87 157.22 46.87 175.33 49.62 175.33 49.62 162.8 57.32 175.33 59.84 175.33" style="fill:#58595b;fill-rule:evenodd"/><path d="M77.73,166.28c0-2.75-.39-4.52-1.45-6.15a7,7,0,0,0-6-3.14,7,7,0,0,0-6,3.14c-1.09,1.63-1.48,3.4-1.48,6.15s.39,4.51,1.48,6.14a6.93,6.93,0,0,0,6,3.14,7,7,0,0,0,6-3.14C77.34,170.79,77.73,169,77.73,166.28Zm-2.75,0c0,2.38-.31,3.6-1,4.69a4.54,4.54,0,0,1-7.37,0c-.73-1.09-1-2.31-1-4.69s.31-3.61,1-4.7a4.54,4.54,0,0,1,7.37,0C74.67,162.67,75,163.89,75,166.28Z" style="fill:#58595b;fill-rule:evenodd"/><polygon points="101.36 175.33 101.36 157.22 98.64 157.22 98.64 169.75 90.91 157.22 88.39 157.22 88.39 175.33 91.14 175.33 91.14 162.8 98.85 175.33 101.36 175.33" style="fill:#58595b;fill-rule:evenodd"/><path d="M120.37,175.33l-7.18-18.11h-2.6l-7.18,18.11h3l2-5.09h7l2,5.09Zm-6-7.71h-4.93l2.46-6.22Z" style="fill:#58595b;fill-rule:evenodd"/><path d="M134.5,160.44c-2.26-2.62-3.79-3.45-6.23-3.45a7,7,0,0,0-6,3.14c-1.06,1.63-1.45,3.4-1.45,6.15s.39,4.51,1.45,6.14a6.94,6.94,0,0,0,6,3.14c2.44,0,4-.83,6.23-3.45l-2.13-1.74c-1.79,2.13-2.62,2.49-4.1,2.49a4.16,4.16,0,0,1-3.65-1.89c-.7-1.09-1-2.31-1-4.69s.32-3.61,1-4.7a4.16,4.16,0,0,1,3.65-1.89c1.48,0,2.31.36,4.1,2.49Z" style="fill:#58595b;fill-rule:evenodd"/><rect x="137.56" y="157.22" width="2.83" height="18.1" style="fill:#58595b"/><path d="M158.39,166.28c0-2.75-.39-4.52-1.45-6.15a7,7,0,0,0-6-3.14,6.94,6.94,0,0,0-6,3.14c-1.09,1.63-1.48,3.4-1.48,6.15s.39,4.51,1.48,6.14a6.91,6.91,0,0,0,6,3.14,7,7,0,0,0,6-3.14C158,170.79,158.39,169,158.39,166.28Zm-2.75,0c0,2.38-.31,3.6-1,4.69a4.53,4.53,0,0,1-7.36,0c-.73-1.09-1-2.31-1-4.69s.31-3.61,1-4.7a4.53,4.53,0,0,1,7.36,0C155.33,162.67,155.64,163.89,155.64,166.28Z" style="fill:#58595b;fill-rule:evenodd"/><polygon points="174.3 175.33 174.3 157.22 171.58 157.22 171.58 169.75 163.85 157.22 161.34 157.22 161.34 175.33 164.08 175.33 164.08 162.8 171.79 175.33 174.3 175.33" style="fill:#58595b;fill-rule:evenodd"/><path d="M193.31,175.33l-7.18-18.11h-2.59l-7.19,18.11h3l2-5.09h7l2,5.09Zm-6-7.71h-4.93l2.46-6.22Z" style="fill:#58595b;fill-rule:evenodd"/><polygon points="206.32 175.33 206.32 172.66 198.08 172.66 198.08 157.22 195.35 157.22 195.35 175.33 206.32 175.33" style="fill:#58595b;fill-rule:evenodd"/><path d="M13.58,191c0-1.42-.13-3.34-.21-3.94-.59-4.49-4-5.11-7.52-5.11H.12V200H5.85c3.56,0,6.93-.63,7.52-5.11C13.45,194.32,13.58,192.4,13.58,191Zm-2.75,0a35.39,35.39,0,0,1-.18,3.58c-.18,1.32-.62,1.95-1.27,2.26a8.68,8.68,0,0,1-3.53.52h-3V184.59h3a8.65,8.65,0,0,1,3.53.55c.65.31,1.09.93,1.27,2.23A36,36,0,0,1,10.83,191Z" style="fill:#58595b;fill-rule:evenodd"/><polygon points="37.15 200.03 37.15 197.35 27.84 197.35 27.84 191.96 35.98 191.96 35.98 189.29 27.84 189.29 27.84 184.59 37.15 184.59 37.15 181.92 25.11 181.92 25.11 200.03 37.15 200.03" style="fill:#58595b;fill-rule:evenodd"/><polygon points="69.69 200.03 69.69 197.35 61.45 197.35 61.45 181.92 58.73 181.92 58.73 200.03 69.69 200.03" style="fill:#58595b;fill-rule:evenodd"/><polygon points="92.24 200.03 92.24 197.35 82.93 197.35 82.93 191.96 91.07 191.96 91.07 189.29 82.93 189.29 82.93 184.59 92.24 184.59 92.24 181.92 80.2 181.92 80.2 200.03 92.24 200.03" style="fill:#58595b;fill-rule:evenodd"/><rect x="103.77" y="181.92" width="2.83" height="18.1" style="fill:#58595b"/><polygon points="130.94 184.59 130.94 181.92 117.35 181.92 117.35 184.59 122.77 184.59 122.77 200.03 125.52 200.03 125.52 184.59 130.94 184.59" style="fill:#58595b;fill-rule:evenodd"/><path d="M155,192.14V181.92h-2.75v10.2a7.51,7.51,0,0,1-.72,3.86,3.68,3.68,0,0,1-3.32,1.58,3.74,3.74,0,0,1-3.32-1.58,7.68,7.68,0,0,1-.73-3.84V181.92h-2.75v10.22a10.05,10.05,0,0,0,1.12,5.21,6.43,6.43,0,0,0,5.68,2.91,6.51,6.51,0,0,0,5.68-2.91A10.14,10.14,0,0,0,155,192.14Z" style="fill:#58595b;fill-rule:evenodd"/><path d="M180.73,200s-2.64-4.33-4.74-7.71a4.4,4.4,0,0,0-.26-.39,5.76,5.76,0,0,0,1.61-.64,4.84,4.84,0,0,0,2.18-4.26,4.89,4.89,0,0,0-2.18-4.28,7.54,7.54,0,0,0-3.89-.83H167V200h2.75v-7.89h2a1.47,1.47,0,0,1,1,.34,4.62,4.62,0,0,1,1,1.24l3.87,6.31Zm-4-13a2.29,2.29,0,0,1-.88,2,5.2,5.2,0,0,1-2.44.41h-3.74v-4.85h3.74a5.17,5.17,0,0,1,2.44.45A2.28,2.28,0,0,1,176.77,187Z" style="fill:#58595b;fill-rule:evenodd"/><path d="M206.63,200l-7.18-18.11h-2.59L189.67,200h3l2-5.09h7l2,5.09Zm-6-7.71h-4.93l2.46-6.22Z" style="fill:#58595b;fill-rule:evenodd"/><path d="M241.87,180.29V200h19.74V180.29Zm14.88,4.2a18.67,18.67,0,0,0-6.28,12.31H249c.42-4.62,2.13-8,6.39-12.31l-8.4-.06v-1.13l9.77.07Z" style="fill:#58595b"/><path d="M219.07,180.29V200h19.74V180.29Zm14,15.42v1.13l-10-.07c.15-4.06,4.79-5,7.39-7.33a3.23,3.23,0,0,0,1.29-2.56c0-1.78-1.53-2.81-3.38-2.82-2.49,0-3.49,1.77-3.47,3.78h-1.37c0-2.81,1.62-4.82,4.92-4.8,2.65,0,4.7,1.34,4.67,3.88,0,2.28-1.89,3.69-3.87,4.83-1.49.89-4.22,2.08-4.61,3.91Z" style="fill:#58595b"/><path d="M241.87,157.49v14.7a5,5,0,0,0,5,5h14.7V157.49Zm9.9,16.35c-4.43,0-5.26-3.88-5.22-7.06s.94-7,5.37-7,5.26,3.88,5.22,7.06S256.2,173.87,251.77,173.84Z" style="fill:#58595b"/><path d="M251.91,160.8c-3.47,0-4,3.61-4,6s.39,6,3.86,6,4-3.61,4-6S255.39,160.83,251.91,160.8Z" style="fill:#58595b"/><path d="M219.07,157.49v19.74h19.74V157.49Zm14,15v1.13l-10-.07c.15-4.06,4.79-5,7.39-7.33a3.23,3.23,0,0,0,1.29-2.56c0-1.78-1.53-2.81-3.38-2.82-2.49,0-3.49,1.77-3.47,3.79h-1.37c0-2.82,1.62-4.83,4.92-4.81,2.65,0,4.7,1.34,4.67,3.88,0,2.28-1.89,3.69-3.87,4.83-1.49.89-4.22,2.08-4.61,3.91Z" style="fill:#58595b"/></svg>