<svg width="224" height="201" viewBox="0 0 224 201" fill="none" xmlns="http://www.w3.org/2000/svg">
<g clip-path="url(#clip0_78_443)">
<path d="M145.083 0.304721C126.363 -1.24921 110.309 3.03679 96.2769 15.7678C86.7799 24.4008 78.5576 34.5876 67.6842 41.3772C57.527 47.7249 45.6887 50.6906 34.6731 55.3523C21.0979 61.0907 10.2957 70.5869 4.38414 84.227C1.45772 91.1139 -0.0229841 98.5285 0.0338001 106.011C0.0905842 113.494 1.68365 120.885 4.71425 127.727C10.5801 140.778 21.4737 151.046 33.6625 158.541C45.7191 165.955 60.0714 168.957 71.9401 176.224C83.1487 183.089 95.6421 187.71 108.648 190.285C135.565 195.607 162.573 188.619 181.461 168.352C194.157 154.748 200.496 138.239 203.299 120.135C206.443 99.878 210.054 81.2105 207.717 60.3442C205.94 44.5104 199.927 31.0024 188.348 19.805C176.61 8.50517 161.323 1.61518 145.083 0.304721V0.304721Z" fill="#F2E0C7"/>
<path d="M192.187 76.8027C192.187 76.8027 199.297 97.7554 181.644 122.207" stroke="#007865" stroke-miterlimit="10"/>
<path d="M186.26 114.94C186.26 114.94 188.88 110.877 184.142 103.169C179.404 95.4598 176.727 90.7676 176.727 90.7676C175.392 94.781 175.197 99.0863 176.163 103.204C177.834 109.75 186.26 114.94 186.26 114.94Z" fill="#007865"/>
<path d="M192.624 97.42C192.624 97.42 195.25 93.3574 190.511 85.6538C185.773 77.9502 183.091 73.2478 183.091 73.2478C181.758 77.2617 181.564 81.567 182.533 85.6843C184.188 92.2301 192.624 97.42 192.624 97.42Z" fill="#007865"/>
<path d="M193.701 76.426C193.808 75.0278 192.761 73.8075 191.363 73.7004C189.965 73.5933 188.744 74.6399 188.637 76.0382C188.53 77.4364 189.577 78.6566 190.975 78.7637C192.374 78.8708 193.594 77.8242 193.701 76.426Z" fill="#DD8C33"/>
<path d="M193.228 86.4867C193.228 86.4867 195.361 75.0049 198.916 68.8197C202.471 62.6345 204.441 59.1051 204.441 59.1051C205.485 64.3065 205.156 69.6901 203.486 74.7256C201.737 79.8367 198.054 84.0588 193.228 86.4867V86.4867Z" fill="#007865"/>
<path d="M202.41 70.1704C202.41 70.1704 199.241 78.8033 194.086 85.4558" stroke="#0D173D" stroke-miterlimit="10"/>
<path d="M184.305 80.3574C184.305 80.3574 188.992 91.5294 192.623 97.4202" stroke="#0D173D" stroke-miterlimit="10"/>
<path d="M188.947 101.935C188.947 101.935 196.184 92.7583 202.152 88.9039C208.119 85.0496 211.552 82.866 211.552 82.866C210.075 87.9568 207.295 92.5743 203.487 96.2622C199.569 99.9808 194.349 102.017 188.947 101.935V101.935Z" fill="#007865"/>
<path d="M205.686 90.9556L188.947 101.935" stroke="#0D173D" stroke-miterlimit="10"/>
<path d="M179.455 123.309C179.455 123.309 189.049 113.66 196.479 109.984C203.909 106.307 208.16 104.24 208.16 104.24C205.763 109.936 201.922 114.908 197.017 118.667C188.795 125.005 179.455 123.309 179.455 123.309Z" fill="#007865"/>
<path d="M201.121 110.501C200.78 110.811 189.856 121.552 179.658 123.106" stroke="#0D173D" stroke-miterlimit="10"/>
<path d="M178.424 95.7139C178.424 95.7139 179.805 103.169 181.395 105.723C182.984 108.277 186.26 114.94 186.26 114.94" stroke="#0D173D" stroke-miterlimit="10"/>
<path d="M185.712 196.242C160.472 199.246 135.077 200.755 109.659 200.761C84.2412 200.755 58.8461 199.246 33.6064 196.242C84.1287 190.209 135.189 190.209 185.712 196.242V196.242Z" fill="#F2E0C7"/>
<path d="M54.6904 30.5178L45.5537 36.9481L55.5041 51.0839L64.6408 44.6535L54.6904 30.5178Z" fill="#FF8C3E"/>
<path d="M26.1308 13.4013C26.4117 12.411 26.8675 11.4788 27.4766 10.649C29.0459 8.35869 31.245 6.39343 33.9062 5.60124C36.5674 4.80904 39.7161 5.3524 41.6257 7.3786C36.8475 9.04072 32.479 11.7035 28.8123 15.1889C28.2334 15.7373 27.4005 16.8088 26.532 16.174C25.7347 15.5951 25.9327 14.2037 26.1308 13.4013Z" fill="#0D173D"/>
<path d="M84.3672 12.7056L23.5912 59.7043L20.9147 61.7762C20.9147 61.7762 20.4069 60.3086 19.8381 57.8305C17.6085 48.2784 14.1754 23.6694 33.5199 9.77551C34.5712 9.01886 35.6326 8.32823 36.6839 7.70361C47.349 1.41173 58.0395 1.75705 66.5666 4.05747C72.9844 5.81327 79.0203 8.74573 84.3672 12.7056Z" fill="#FEB52B"/>
<path d="M23.5915 59.7043L20.9151 61.7762C20.9151 61.7762 9.15294 27.2699 33.5202 9.77551C34.5715 9.01886 35.6329 8.32823 36.6842 7.70361C36.6842 7.70361 13.7694 23.9081 23.5915 59.7043Z" fill="#FFDFAB"/>
<g style="mix-blend-mode:multiply" opacity="0.43">
<path d="M84.368 12.7057L23.592 59.7044L20.9155 61.7763C20.9155 61.7763 20.4077 60.3087 19.8389 57.8305C29.8082 51.8585 38.4673 43.6826 45.8719 34.6739C53.7032 25.1472 60.2699 14.6811 66.5725 4.0575C72.9885 5.81389 79.0227 8.74632 84.368 12.7057V12.7057Z" fill="#FEB52B"/>
</g>
<path opacity="0.38" d="M39.9552 14.3408C40.1837 13.7365 40.397 12.9951 39.9907 12.4924C39.4321 11.7966 38.3198 12.208 37.5834 12.7056C34.0773 15.056 31.1807 18.2065 29.1326 21.8972C28.1479 23.521 27.5469 25.3482 27.3754 27.2394C27.1773 31.302 31.7379 35.7809 33.8202 30.5301C35.938 25.1726 37.8831 19.7288 39.9552 14.3408Z" fill="#EFEF95"/>
<path opacity="0.38" d="M46.374 8.58722C47.1053 8.41964 47.9738 8.2419 48.2531 7.57158C48.343 7.26145 48.3192 6.92943 48.1861 6.63526C48.0529 6.34109 47.8192 6.10407 47.5269 5.96687C46.928 5.71472 46.2601 5.67881 45.6376 5.86531C44.8006 6.07018 44.0153 6.44684 43.3316 6.97137C42.6479 7.4959 42.0807 8.15684 41.6661 8.91223C41.4569 9.24261 41.3525 9.62849 41.3665 10.0193C41.5188 11.5427 42.824 10.2173 43.3979 9.85169C44.3098 9.26211 45.3166 8.83434 46.374 8.58722V8.58722Z" fill="#EFEF95"/>
<path d="M169.245 30.5156L159.297 44.6531L168.435 51.0818L178.383 36.9444L169.245 30.5156Z" fill="#FF8C3E"/>
<path d="M197.819 13.4013C197.536 12.4117 197.081 11.4799 196.473 10.649C194.899 8.35869 192.705 6.39343 190.039 5.60124C187.372 4.80904 184.229 5.3524 182.324 7.3786C187.102 9.04157 191.47 11.7042 195.138 15.1889C195.717 15.7373 196.549 16.8088 197.418 16.174C198.205 15.5951 198.017 14.2037 197.819 13.4013Z" fill="#0D173D"/>
<path d="M139.582 12.7056L200.353 59.7043L203.029 61.7762C203.029 61.7762 203.537 60.3086 204.111 57.8305C206.346 48.2784 209.774 23.6694 190.429 9.77551C189.373 9.01717 188.317 8.32654 187.26 7.70361C176.595 1.41173 165.93 1.75705 157.378 4.05747C150.962 5.81408 144.927 8.74649 139.582 12.7056V12.7056Z" fill="#FEB52B"/>
<path d="M200.353 59.7043L203.03 61.7762C203.03 61.7762 214.792 27.2699 190.43 9.77551C189.373 9.01717 188.317 8.32654 187.261 7.70361C187.261 7.70361 210.181 23.9081 200.353 59.7043Z" fill="#FFDFAB"/>
<g style="mix-blend-mode:multiply" opacity="0.43">
<path d="M139.582 12.7057L200.353 59.7044L203.029 61.7763C203.029 61.7763 203.537 60.3087 204.111 57.8305C194.142 51.8585 185.483 43.6826 178.078 34.6739C170.242 25.1472 163.695 14.6811 157.372 4.0575C150.958 5.81469 144.926 8.74708 139.582 12.7057V12.7057Z" fill="#FEB52B"/>
</g>
<path opacity="0.38" d="M184 14.3408C183.766 13.7365 183.553 12.9951 183.959 12.4924C184.518 11.7966 185.63 12.208 186.371 12.7056C189.876 15.0574 192.773 18.2077 194.822 21.8972C195.807 23.521 196.408 25.3482 196.579 27.2394C196.772 31.302 192.217 35.7809 190.135 30.5301C188.007 25.1726 186.062 19.7288 184 14.3408Z" fill="#EFEF95"/>
<path opacity="0.38" d="M177.586 8.58722C176.86 8.41964 175.987 8.2419 175.707 7.57158C175.619 7.26084 175.644 6.92876 175.778 6.63477C175.912 6.34077 176.146 6.10402 176.439 5.96687C177.037 5.71472 177.705 5.67881 178.328 5.86531C179.165 6.07018 179.95 6.44684 180.634 6.97137C181.318 7.4959 181.885 8.15684 182.299 8.91223C182.506 9.24362 182.61 9.62878 182.599 10.0193C182.441 11.5427 181.141 10.2173 180.567 9.85169C179.653 9.26292 178.645 8.83524 177.586 8.58722V8.58722Z" fill="#EFEF95"/>
<path d="M74.3266 168.692C74.3266 168.692 58.4407 194.982 65.5711 194.982C72.7015 194.982 88.5468 179.641 88.5468 179.641C88.5468 179.641 88.1405 168.662 74.3266 168.692Z" fill="#0D173D"/>
<path d="M144.955 168.692C144.955 168.692 160.826 194.982 153.716 194.982C146.606 194.982 130.74 179.641 130.74 179.641C130.74 179.641 131.141 168.662 144.955 168.692Z" fill="#0D173D"/>
<path d="M192.095 104.723C192.181 115.654 190.101 126.493 185.977 136.617C181.853 146.741 175.765 155.948 168.065 163.708C160.365 171.468 151.205 177.627 141.114 181.83C131.022 186.033 120.197 188.196 109.265 188.196C98.3328 188.196 87.5087 186.033 77.4168 181.83C67.3248 177.627 58.1648 171.468 50.4648 163.708C42.7649 155.948 36.6773 146.741 32.553 136.617C28.4288 126.493 26.3496 115.654 26.4352 104.723C26.4348 100.996 26.6825 97.2743 27.1766 93.581C30.0084 72.7763 40.6361 53.8233 56.9105 40.5551C73.1848 27.2869 93.8911 20.6938 114.842 22.1092C135.792 23.5246 155.423 32.8428 169.765 48.1793C184.106 63.5158 192.088 83.726 192.095 104.723V104.723Z" fill="#54BEC6"/>
<path d="M132.736 25.2691C45.2161 10.8471 27.385 93.972 27.385 93.972L27.1768 93.581C28.7936 81.7533 32.9457 70.4142 39.3491 60.3389C45.7526 50.2637 54.2564 41.6899 64.2791 35.2037C74.3019 28.7176 85.6072 24.4721 97.4221 22.7575C109.237 21.0429 121.283 21.8996 132.736 25.2691Z" fill="#66D9E2"/>
<path d="M109.264 179.88C150.778 179.88 184.432 146.229 184.432 104.718C184.432 63.2065 150.778 29.5552 109.264 29.5552C67.749 29.5552 34.0947 63.2065 34.0947 104.718C34.0947 146.229 67.749 179.88 109.264 179.88Z" fill="#176B6B"/>
<path d="M109.263 177.285C149.344 177.285 181.837 144.795 181.837 104.718C181.837 64.6397 149.344 32.1501 109.263 32.1501C69.1818 32.1501 36.6895 64.6397 36.6895 104.718C36.6895 144.795 69.1818 177.285 109.263 177.285Z" fill="#FEB52B"/>
<path d="M173.168 103.793C174.435 101.361 174.931 98.5996 174.59 95.878C174.249 93.1563 173.087 90.6032 171.258 88.5586C171.904 85.8943 171.723 83.0964 170.74 80.5374C169.756 77.9783 168.017 75.7793 165.753 74.233C165.743 71.4916 164.899 68.8182 163.332 66.5684C161.765 64.3187 159.55 62.5993 156.982 61.6391C156.318 58.9789 154.859 56.5843 152.799 54.7743C150.74 52.9643 148.177 51.825 145.454 51.5081C144.169 49.0863 142.178 47.1124 139.746 45.8481C137.313 44.5838 134.553 44.0889 131.833 44.4291C130.004 42.3866 127.599 40.9476 124.934 40.3028C122.269 39.658 119.472 39.8379 116.912 40.8185C114.65 39.2691 111.969 38.4455 109.228 38.4573C106.486 38.4691 103.813 39.3157 101.564 40.8845C98.9949 39.9247 96.1943 39.7702 93.5351 40.4415C90.8759 41.1128 88.4843 42.5781 86.6787 44.6424C83.9555 44.3221 81.1995 44.8386 78.7771 46.1232C76.3548 47.4077 74.3811 49.3994 73.1187 51.8331C70.3982 52.1731 67.8457 53.3333 65.8008 55.1594C63.7559 56.9854 62.3156 59.3908 61.6715 62.0555C59.1119 63.0392 56.912 64.7778 55.3636 67.0407C53.8153 69.3036 52.9917 71.9838 53.0022 74.7256C50.7521 76.2915 49.0319 78.5052 48.0703 81.0722C47.1087 83.6393 46.9513 86.4382 47.6189 89.0969C45.8123 91.1561 44.6741 93.7156 44.3548 96.4361C44.0356 99.1567 44.5504 101.91 45.8312 104.332C44.5651 106.765 44.0701 109.526 44.4122 112.247C44.7542 114.969 45.917 117.522 47.7458 119.566C47.0998 122.231 47.28 125.029 48.2624 127.588C49.2449 130.148 50.983 132.348 53.246 133.897C53.2581 136.638 54.1034 139.31 55.6699 141.559C57.2364 143.809 59.45 145.529 62.0168 146.491C62.6847 149.149 64.1457 151.542 66.2057 153.351C68.2658 155.159 70.8275 156.298 73.5504 156.617C74.8374 159.039 76.8315 161.012 79.2675 162.272C81.7034 163.533 84.4656 164.023 87.1865 163.675C89.0116 165.721 91.4165 167.162 94.0812 167.807C96.7458 168.452 99.5438 168.27 102.102 167.286C104.364 168.835 107.044 169.658 109.786 169.647C112.527 169.637 115.2 168.792 117.45 167.225C120.018 168.179 122.815 168.332 125.471 167.662C128.128 166.991 130.518 165.531 132.325 163.472C135.048 163.793 137.804 163.277 140.226 161.994C142.648 160.71 144.622 158.719 145.885 156.287C148.606 155.944 151.158 154.782 153.202 152.956C155.247 151.129 156.687 148.724 157.333 146.059C159.892 145.078 162.093 143.34 163.641 141.078C165.188 138.815 166.01 136.135 165.997 133.394C168.248 131.829 169.969 129.616 170.931 127.048C171.892 124.481 172.049 121.681 171.38 119.023C173.189 116.965 174.329 114.405 174.649 111.684C174.968 108.963 174.451 106.209 173.168 103.788V103.793Z" fill="#FFD45A"/>
<path d="M164.924 103.829C166.025 101.711 166.455 99.308 166.158 96.9396C165.86 94.5713 164.849 92.3496 163.259 90.5696C163.818 88.2503 163.66 85.8157 162.805 83.5884C161.95 81.3611 160.438 79.4462 158.469 78.0976C158.461 75.7132 157.728 73.3876 156.368 71.4295C155.007 69.4713 153.083 67.9731 150.851 67.1337C150.273 64.8187 149.003 62.7348 147.21 61.1599C145.417 59.5849 143.187 58.5936 140.816 58.318C139.699 56.2089 137.965 54.4899 135.847 53.3896C133.729 52.2893 131.326 51.8598 128.958 52.1581C127.368 50.3776 125.274 49.1231 122.955 48.5616C120.635 48 118.199 48.1581 115.971 49.0147C114.003 47.6658 111.671 46.9486 109.284 46.9586C106.898 46.9686 104.572 47.7053 102.615 49.0706C100.38 48.2328 97.9428 48.0951 95.6277 48.6756C93.3126 49.2561 91.229 50.5275 89.654 52.3206C87.2833 52.0416 84.8839 52.4907 82.7747 53.6083C80.6655 54.7258 78.9465 56.4589 77.8461 58.577C75.4765 58.8754 73.2541 59.8886 71.4749 61.4817C69.6957 63.0748 68.4441 65.1721 67.8869 67.4943C65.6583 68.3478 63.7427 69.8602 62.3953 71.8298C61.048 73.7994 60.3328 76.1328 60.3451 78.519C58.3864 79.8828 56.889 81.8102 56.0517 84.0451C55.2144 86.2801 55.077 88.7168 55.6576 91.0317C54.0822 92.8244 53.0898 95.054 52.8122 97.4242C52.5346 99.7944 52.985 102.193 54.1035 104.301C53.0025 106.418 52.5721 108.82 52.8697 111.188C53.1673 113.555 54.1786 115.776 55.7693 117.555C55.2065 119.874 55.3634 122.31 56.2189 124.538C57.0744 126.766 58.588 128.681 60.5585 130.027C60.5672 132.411 61.3004 134.737 62.6609 136.695C64.0214 138.653 65.9449 140.151 68.1764 140.991C68.7573 143.306 70.0289 145.389 71.8224 146.964C73.6159 148.538 75.8462 149.53 78.2169 149.807C79.3319 151.917 81.0638 153.637 83.1817 154.737C85.2995 155.838 87.7026 156.267 90.0704 155.967C91.6597 157.747 93.7534 159.002 96.0732 159.563C98.393 160.125 100.829 159.967 103.056 159.11C105.026 160.458 107.359 161.175 109.745 161.166C112.132 161.157 114.459 160.422 116.418 159.059C118.654 159.898 121.091 160.036 123.407 159.454C125.722 158.872 127.805 157.599 129.379 155.804C131.749 156.084 134.148 155.636 136.257 154.518C138.366 153.4 140.083 151.666 141.182 149.548C143.552 149.248 145.774 148.233 147.552 146.638C149.331 145.043 150.581 142.944 151.136 140.62C153.364 139.766 155.28 138.253 156.628 136.284C157.976 134.315 158.693 131.982 158.683 129.596C160.64 128.233 162.137 126.307 162.973 124.074C163.81 121.841 163.946 119.406 163.365 117.093C164.942 115.302 165.936 113.074 166.215 110.704C166.493 108.335 166.043 105.936 164.924 103.829V103.829Z" fill="#FFE39C"/>
<path d="M110.538 36.0756H107.983V43.5151H110.538V36.0756Z" fill="#FFF7EB"/>
<path d="M76.4158 44.9351L74.1934 46.2123L77.9135 52.6847L80.1359 51.4075L76.4158 44.9351Z" fill="#FFF7EB"/>
<path d="M50.4472 69.2915L49.1699 71.5037L55.6133 75.2234L56.8906 73.0113L50.4472 69.2915Z" fill="#FFF7EB"/>
<path d="M48.0506 103.443H40.6104V105.997H48.0506V103.443Z" fill="#FFF7EB"/>
<path d="M55.6104 134.217L49.167 137.937L50.4443 140.149L56.8877 136.429L55.6104 134.217Z" fill="#FFF7EB"/>
<path d="M77.5521 157.086L73.832 163.529L76.0443 164.806L79.7644 158.363L77.5521 157.086Z" fill="#FFF7EB"/>
<path d="M110.538 165.925H107.983V173.364H110.538V165.925Z" fill="#FFF7EB"/>
<path d="M140.972 157.091L138.76 158.369L142.48 164.811L144.692 163.534L140.972 157.091Z" fill="#FFF7EB"/>
<path d="M162.911 134.213L161.634 136.425L168.077 140.145L169.354 137.933L162.911 134.213Z" fill="#FFF7EB"/>
<path d="M177.911 103.443H170.471V105.997H177.911V103.443Z" fill="#FFF7EB"/>
<path d="M168.08 69.2893L161.637 73.009L162.914 75.2211L169.357 71.5014L168.08 69.2893Z" fill="#FFF7EB"/>
<path d="M142.792 43.9917L139.072 50.4641L141.295 51.7413L145.015 45.2689L142.792 43.9917Z" fill="#FFF7EB"/>
<path d="M107.161 11.5784H111.676C112.888 11.5784 114.05 12.0599 114.908 12.917C115.765 13.7741 116.246 14.9366 116.246 16.1487V22.075H102.59V16.1487C102.59 14.9366 103.071 13.7741 103.929 12.917C104.786 12.0599 105.948 11.5784 107.161 11.5784V11.5784Z" fill="#FF8C3E"/>
<g style="mix-blend-mode:multiply" opacity="0.22">
<path d="M192.09 104.723C192.094 124.411 185.084 143.458 172.317 158.447C159.55 173.437 141.861 183.389 122.421 186.52C102.981 189.651 83.0618 185.755 66.2335 175.533C49.4053 165.31 36.769 149.427 30.5898 130.733C51.204 141.991 77.7094 141.463 99.8167 132.546C125.347 122.258 145.844 102.412 163.3 81.1191C168.378 74.9034 173.335 68.4236 176.26 60.9231C176.687 59.8262 177.068 58.709 177.383 57.5817C186.99 71.422 192.123 87.8749 192.09 104.723V104.723Z" fill="#D6CFAA"/>
</g>
<path d="M157.617 81.9774C157.866 84.1458 159.719 85.7657 161.588 86.9083C165.544 89.2659 170.045 90.5525 174.649 90.6416C179.253 90.7306 183.801 89.619 187.845 87.4161C189.876 86.2684 191.826 84.7856 192.923 82.7239C193.044 82.4971 193.151 82.2631 193.243 82.0231C194.036 80.0731 193.965 77.732 192.669 76.0968C191.842 75.0507 190.638 74.4058 189.587 73.5577C188.535 72.7097 187.621 71.5011 187.784 70.1757C187.987 68.4998 189.815 67.3623 189.998 65.6814C190.12 64.4119 189.236 63.2592 188.256 62.4416C185.971 60.5423 185.209 58.1606 183.437 55.9364C181.461 53.4227 178.053 51.757 174.95 51.2594C172.366 50.7956 169.7 51.186 167.358 52.3715C166.196 52.9758 165.177 53.8226 164.371 54.8547C163.565 55.8868 162.99 57.08 162.685 58.3536C162.279 60.2122 162.523 62.2486 161.639 63.9396C161.096 64.9553 160.171 65.7729 159.75 66.8545C159.522 67.4726 159.434 68.1332 159.491 68.7893C159.592 70.3889 160.253 72.0546 160.141 73.6847C159.938 76.5894 157.271 79.0676 157.617 81.9774Z" fill="#3F0727"/>
<path d="M199.008 171.028L169.09 147.623L164.057 157.5L196.067 175.416L199.008 171.028Z" fill="#CC7256"/>
<path d="M160.516 125.167C160.811 130.718 161.217 137.192 161.613 142.667C161.786 145.099 161.964 147.339 162.121 149.213C162.375 152.204 162.593 154.26 162.725 154.682C163.091 155.425 163.518 156.136 164 156.809L171.379 150.538C170.983 150.259 170.75 150.122 170.75 150.122L171.918 141.626L175.473 115.889H162.167C161.364 118.754 160.491 122.496 160.516 125.167Z" fill="#CC7256"/>
<path d="M160.456 126.909C160.75 132.46 161.217 137.192 161.614 142.651C161.786 145.084 161.964 147.323 162.121 149.197L169.816 127.061L162.167 115.889C161.365 118.754 160.43 124.238 160.456 126.909Z" fill="#CC7256"/>
<path d="M166.478 143.667L172.065 115.9H184.188C185.163 120.688 186.514 128.641 185.203 130.824C184.05 132.774 180.333 140.559 177.621 146.313C176.834 147.979 176.133 149.477 175.589 150.609C175.589 150.66 175.544 150.711 175.523 150.756C175.503 150.802 175.432 150.939 175.391 151.031C175.259 151.315 175.143 151.569 175.036 151.792C175.036 151.848 174.985 151.899 174.965 151.95C174.894 152.102 174.828 152.239 174.777 152.356L174.752 152.407C174.635 152.661 174.569 152.793 174.569 152.793C174.569 152.793 174.061 162.162 173.401 163.173V163.203C172.563 164.605 159.653 191.697 159.653 191.697L155.59 190.844L165.397 149.152L166.478 143.667Z" fill="#CC7256"/>
<path d="M171.299 162.68C172.101 161.004 172.411 150.97 172.411 150.97L172.863 150.116L172.904 150.035L173.036 149.786L173.112 149.649L173.198 149.477L173.325 149.243L173.457 148.989L173.615 148.689L173.782 148.37L174.331 147.323L174.438 147.125C174.448 147.108 174.457 147.089 174.463 147.07L174.854 146.338L174.885 146.277L175.174 145.719C178.323 139.732 183.087 130.611 183.599 129.331C184.067 128.153 183.33 121.161 182.685 115.889H184.189C185.164 120.678 186.515 128.631 185.204 130.814C184.051 132.764 180.334 140.549 177.622 146.303C177.571 146.404 177.525 146.511 177.475 146.612C176.748 148.136 176.098 149.538 175.601 150.599C175.601 150.65 175.555 150.7 175.535 150.746L175.403 151.02C175.271 151.305 175.154 151.559 175.047 151.782C175.047 151.838 174.996 151.889 174.976 151.94C174.9 152.097 174.839 152.229 174.788 152.346L174.763 152.397C174.732 152.463 174.707 152.513 174.686 152.564L174.656 152.62V152.666C174.649 152.689 174.639 152.711 174.626 152.732V152.762C174.626 152.762 174.118 162.131 173.457 163.142V163.172C172.655 164.523 160.705 189.579 159.745 191.544C161.949 186.832 170.512 164.462 171.319 162.7L171.299 162.68Z" fill="#A04F39"/>
<path d="M160.527 95.8509C161.577 98.1478 162.752 100.386 164.047 102.554C164.047 102.554 160.263 118.647 160.517 120.465C160.659 122.281 160.672 124.106 160.558 125.924C163.524 127.097 185.748 125.924 185.748 125.924L184.57 104.946L184.458 102.915C184.458 102.915 184.239 81.5101 183.706 81.2968C183.457 81.2003 182.492 80.1999 181.538 79.6057C180.85 79.1917 180.108 78.8755 179.333 78.6663L168.729 77.7014L165.139 78.8643L163.737 79.3214C163.737 79.3214 163.122 81.0022 162.376 83.2214C161.162 86.8219 159.593 91.8137 159.715 93.2661C159.86 94.1622 160.134 95.0328 160.527 95.8509V95.8509Z" fill="#FFDEBB"/>
<path d="M150.019 150.401L163.731 153.834H163.848L193.786 155.677C193.786 155.677 190.16 134.983 189.551 132.906C188.631 129.763 187.402 125.325 187.402 125.325L185.097 114.01L185.295 103.194L181.902 99.6392L181.537 79.1741L179.332 78.6663L178.256 88.848C178.256 88.848 168.185 89.2898 165.138 88.4316V78.8643L163.152 79.1741L162.349 83.2366C161.618 87.157 160.481 96.5415 160.496 96.8106C160.557 98.9726 161.421 101.034 162.918 102.595C162.918 102.595 159.185 118.845 157.977 124.284C156.159 132.551 150.019 150.401 150.019 150.401Z" fill="#008C7B"/>
<path d="M163.711 153.834L163.828 153.849L169.262 129.844L166.484 127.077L167.261 132.551L163.711 153.834Z" fill="#007865"/>
<path d="M165.138 78.8644L169.795 77.1226L170.419 76.7468H170.765L175.457 76.9195H175.838L176.397 77.2089L179.332 78.641C175.788 82.9321 169.124 82.1754 165.138 78.8644Z" fill="#FFDEBB"/>
<path d="M176.895 77.4881C176.895 77.4881 171.928 78.5038 171.187 78.1788C170.445 77.8538 169.43 77.346 169.43 77.346C169.597 77.1581 170.745 75.4213 170.72 74.8069C170.637 73.7078 170.483 72.6154 170.258 71.5365L174.879 70.2009C174.879 70.2009 175.001 71.506 175.194 72.8975C175.387 74.2889 176.621 77.2647 176.895 77.4881Z" fill="#CC7256"/>
<path d="M175.194 72.9179C173.899 73.7863 172.31 74.8171 171.802 74.9492C171.438 75.0416 171.053 74.9964 170.72 74.8222C170.637 73.7232 170.483 72.6308 170.258 71.5519L174.879 70.2163C174.879 70.2163 175.001 71.5569 175.194 72.9179Z" fill="#A04F39"/>
<path d="M178.018 57.6172C176.893 56.1551 175.297 55.1264 173.501 54.7054C171.704 54.2843 169.818 54.4967 168.16 55.3067C167.475 55.6068 166.886 56.09 166.459 56.7032C165.27 58.8208 163.325 66.7529 164.793 70.6834C166.261 74.614 168.901 74.2382 169.841 73.9944C170.781 73.7507 175.25 72.1612 176.331 70.7901C177.413 69.419 179.947 62.1571 179.561 60.2224C179.429 59.5723 178.8 58.6126 178.018 57.6172Z" fill="#E1836C"/>
<path d="M178.342 57.0586C177.22 55.5952 175.625 54.5656 173.829 54.1444C172.033 53.7232 170.146 53.9365 168.49 54.748C167.803 55.0416 167.213 55.524 166.789 56.1394C165.595 58.2621 163.655 66.1892 165.118 70.1197C166.58 74.0502 169.226 73.6744 170.171 73.4307C171.116 73.1869 175.575 71.6025 176.656 70.2263C177.738 68.8501 180.272 61.5934 179.886 59.6586C179.759 59.0086 179.109 58.0488 178.342 57.0586Z" fill="#CC7256"/>
<path d="M172.477 68.4694L167.104 68.3882C167.104 68.3882 167.515 70.9273 169.704 70.8816C171.893 70.8359 172.477 68.4694 172.477 68.4694Z" fill="white"/>
<path d="M169.46 66.6767C169.659 66.6335 169.865 66.6335 170.065 66.6767C169.753 67.0801 169.295 67.3446 168.79 67.413C168.753 67.4207 168.715 67.4207 168.678 67.413C168.633 67.3969 168.592 67.3688 168.561 67.3318C168.343 67.1242 168.17 66.8734 168.054 66.5954C168.026 66.5419 168.01 66.483 168.008 66.4228C168.008 66.2196 168.13 66.2958 168.236 66.3669C168.354 66.4504 168.482 66.5187 168.617 66.57C168.885 66.6736 169.175 66.7102 169.46 66.6767V66.6767Z" fill="#E1836C"/>
<path d="M168.785 67.2861C168.693 67.1541 168.587 67.0322 168.49 66.9002C168.373 66.7417 168.272 66.5715 168.19 66.3923C168.912 66.1181 169.064 65.4732 169.206 64.7318C169.274 64.3951 169.262 64.0472 169.171 63.7161C169.127 63.5389 169.061 63.3682 168.973 63.2083C168.927 63.1271 168.876 63.0509 168.825 62.9747C168.773 62.9085 168.709 62.8519 168.637 62.8071C168.662 62.86 168.684 62.9143 168.703 62.9696C168.769 63.1049 168.827 63.2439 168.876 63.386C168.922 63.5319 168.956 63.6814 168.978 63.8329C169.021 64.1354 169.011 64.4431 168.947 64.7419C168.89 65.038 168.771 65.3184 168.597 65.5646C168.397 65.8569 168.114 66.0818 167.784 66.2095C167.784 66.2095 168.084 66.8087 168.114 66.8595C168.197 66.9885 168.293 67.1093 168.399 67.2201C168.493 67.3466 168.624 67.4406 168.774 67.4892C168.821 67.502 168.87 67.502 168.917 67.4892L168.861 67.413C168.859 67.3996 168.859 67.3859 168.861 67.3724L168.785 67.2861Z" fill="#A04F39"/>
<path d="M176.956 66.829C177.194 66.7275 178.454 65.2497 179.226 66.2298C179.998 67.2099 180.14 68.7689 179.317 69.6017C178.495 70.4345 177.525 71.1607 176.331 70.79L176.956 66.829Z" fill="#CC7256"/>
<path d="M179.14 67.413C179.167 67.6252 179.137 67.8407 179.054 68.0376C178.729 68.8857 177.87 69.4951 177.053 70.0689C177.31 69.6708 177.436 69.2019 177.413 68.7283C177.413 68.5658 177.383 68.4033 177.413 68.2458C177.429 67.5857 178.922 66.1739 179.14 67.413Z" fill="#E1836C"/>
<path d="M176.646 70.2772H176.692C176.723 70.2772 176.773 70.2366 176.824 70.201C176.977 70.1098 177.114 69.995 177.231 69.8608C177.399 69.667 177.522 69.438 177.591 69.1905C177.672 68.8888 177.657 68.5697 177.55 68.2764C177.539 68.2354 177.522 68.1961 177.5 68.1596V68.1291L177.525 68.0834L177.586 67.9869C177.665 67.8684 177.752 67.7548 177.845 67.6467C177.928 67.5443 178.018 67.4476 178.114 67.3572C178.196 67.2765 178.283 67.2002 178.373 67.1287C178.448 67.0714 178.538 67.0362 178.632 67.0271C178.707 67.0228 178.781 67.0405 178.846 67.0779C178.885 67.1001 178.917 67.1337 178.937 67.1744C178.939 67.1896 178.939 67.205 178.937 67.2201C178.94 67.2051 178.94 67.1895 178.937 67.1744C178.928 67.1268 178.903 67.0837 178.866 67.0525C178.798 66.9929 178.712 66.9588 178.622 66.9561C178.504 66.95 178.386 66.9763 178.282 67.0322C178.172 67.0963 178.067 67.1675 177.967 67.2455C177.854 67.3313 177.747 67.4246 177.647 67.5248C177.541 67.6342 177.441 67.7495 177.347 67.8701L177.281 67.9717L177.246 68.0174L177.2 68.0885L177.17 68.1393C177.18 68.1569 177.189 68.1756 177.195 68.1951L177.231 68.2662C177.246 68.3009 177.26 68.3365 177.271 68.3729C177.369 68.6302 177.395 68.9092 177.347 69.1803C177.308 69.4096 177.223 69.6287 177.098 69.8252C177.011 69.9669 176.903 70.0952 176.779 70.2061C176.745 70.2387 176.709 70.2692 176.672 70.2975L176.646 70.2772Z" fill="#A04F39"/>
<path d="M165.56 60.6388C165.56 60.6388 166.758 59.811 167.474 59.9177C168.19 60.0243 168.373 60.6997 168.084 60.8165C167.794 60.9333 165.56 60.6388 165.56 60.6388Z" fill="#55062C"/>
<path d="M175.676 62.2994C175.676 62.2994 174.097 60.7505 172.989 60.4814C171.882 60.2122 171.43 60.8419 171.837 61.1212C172.243 61.4005 175.676 62.2994 175.676 62.2994Z" fill="#55062C"/>
<path d="M173.168 66.7072C173.193 67.0525 173.955 67.2709 174.864 67.2151C175.773 67.1592 176.489 66.8037 176.464 66.4584C176.439 66.1131 175.677 65.8947 174.768 65.9506C173.859 66.0065 173.137 66.3619 173.168 66.7072Z" fill="#E1836C"/>
<path d="M163.757 65.0263C163.635 65.2599 164.097 65.7474 164.773 66.1232C165.448 66.4989 166.129 66.631 166.256 66.3821C166.382 66.1333 165.915 65.661 165.24 65.2852C164.564 64.9095 163.874 64.7977 163.757 65.0263Z" fill="#E1836C"/>
<path d="M173.442 63.4318C174.158 63.6575 174.756 64.1554 175.108 64.8182C174.09 64.2853 172.95 64.0313 171.802 64.0818H171.446C171.675 63.7856 171.988 63.5651 172.344 63.4492C172.7 63.3332 173.083 63.3272 173.442 63.4318V63.4318Z" fill="#161818"/>
<path d="M166.748 62.7512C166.23 62.6711 165.7 62.7949 165.271 63.0966C166.074 63.0824 166.866 63.2822 167.566 63.6755L167.795 63.777C167.742 63.5213 167.615 63.287 167.428 63.1042C167.242 62.9215 167.005 62.7986 166.748 62.7512V62.7512Z" fill="#161818"/>
<path d="M180.583 68.9365C180.497 68.649 180.354 68.3819 180.162 68.1514C179.97 67.921 179.733 67.732 179.465 67.5958C179.192 67.521 178.906 67.5068 178.628 67.5541C178.349 67.6015 178.083 67.7093 177.85 67.8701C178.227 66.113 178.724 64.384 179.338 62.6954C177.743 62.3226 176.241 61.6263 174.925 60.6498C173.61 59.6732 172.509 58.4371 171.69 57.0179C171.693 58.088 172.118 59.1135 172.873 59.8719C172.209 59.8557 171.559 59.6769 170.98 59.3511C170.401 59.0253 169.91 58.5624 169.552 58.0031C168.908 58.7523 168.116 59.3612 167.227 59.7918C166.338 60.2225 165.369 60.4658 164.382 60.5067C164.439 59.0794 164.864 57.6911 165.615 56.4759C166.366 55.2607 167.417 54.2598 168.668 53.5699C169.949 52.9307 171.363 52.6015 172.794 52.6085C174.226 52.6156 175.636 52.9588 176.911 53.6105C178.176 54.2774 179.286 55.2038 180.168 56.3292C181.05 57.4545 181.685 58.7535 182.03 60.141C182.731 62.9239 181.969 66.4482 180.583 68.9365Z" fill="#3F0727"/>
<path d="M159.491 68.7741C160.481 67.7177 161.26 66.4819 161.787 65.133C162.619 63.1576 163.193 61.0705 164.382 59.2677C165.656 57.3532 167.556 55.9466 169.41 54.5856L170.766 56.0786L171.527 54.2961C174.04 57.6432 177.701 59.9438 181.806 60.7556C181.156 62.0658 182.385 63.5131 183.564 64.3764C184.742 65.2396 186.154 66.3315 185.966 67.7787C185.803 69.0432 184.483 69.81 184.011 71.0085C183.295 72.7909 184.742 74.746 186.403 75.7109C188.063 76.6757 190.034 77.148 191.456 78.4328C192.475 79.3769 193.115 80.6609 193.254 82.0434C194.046 80.0934 193.975 77.7523 192.68 76.1171C192.604 76.0207 192.517 75.9242 192.436 75.8328C191.618 74.9441 190.532 74.3449 189.597 73.5831C188.581 72.7452 187.632 71.5265 187.794 70.201C187.997 68.5252 189.826 67.3877 190.008 65.7068C190.13 64.4373 189.247 63.2845 188.267 62.467C185.981 60.5677 185.219 58.186 183.447 55.9618C181.471 53.4481 178.064 51.7824 174.96 51.2848C172.376 50.821 169.711 51.2114 167.368 52.3969C166.207 52.9973 165.188 53.8397 164.38 54.8673C163.573 55.8949 162.995 57.0837 162.685 58.3536C162.624 58.6431 162.579 58.9325 162.538 59.2271C162.33 60.8369 162.386 62.5076 161.639 63.9295C161.096 64.9451 160.172 65.7627 159.75 66.8444C159.523 67.4609 159.435 68.1196 159.491 68.7741V68.7741Z" fill="#55062C"/>
<path d="M162.538 59.2219C162.85 59.0855 163.147 58.9152 163.422 58.7141C164.686 57.7848 165.58 56.4492 166.581 55.2406C167.581 54.032 168.805 52.8792 170.344 52.5593C170.395 52.9402 170.451 53.3261 170.512 53.707C171.511 52.9712 172.705 52.5456 173.945 52.4831C176.321 55.8374 179.847 58.2014 183.853 59.1254C183.442 60.2629 184.259 61.4614 185.148 62.279C186.037 63.0965 187.098 63.8735 187.378 65.0466C187.718 66.4634 186.778 67.8548 186.626 69.3021C186.458 70.9424 187.337 72.5471 188.566 73.6389C189.72 74.5908 191.029 75.338 192.436 75.8479C191.618 74.9592 190.532 74.36 189.597 73.5983C188.581 72.7604 187.632 71.5416 187.794 70.2162C187.997 68.5404 189.826 67.4029 190.008 65.722C190.13 64.4524 189.247 63.2997 188.266 62.4821C185.981 60.5828 185.219 58.2012 183.447 55.9769C181.471 53.4632 178.063 51.7976 174.96 51.2999C172.376 50.8362 169.711 51.2265 167.368 52.412C166.209 53.0108 165.191 53.8509 164.383 54.8757C163.575 55.9005 162.997 57.0864 162.685 58.3535C162.624 58.6379 162.579 58.9274 162.538 59.2219Z" fill="#6F0A32"/>
<path d="M186.347 99.3548C186.347 99.3548 194.056 114.127 196.875 115.036C199.693 115.945 211.572 106.865 211.572 106.865L208.398 102.981L200.404 105.855L194.899 96.3638L186.347 99.3548Z" fill="#CC7256"/>
<path d="M181.537 79.6057C181.537 79.6057 187.921 80.8499 191.187 84.7195C192.39 86.1515 199.023 97.029 199.023 97.029L186.971 103.042L183.706 94.8403L181.537 79.6057Z" fill="#FFDEBB"/>
<path d="M159.531 77.2394L151.268 71.435L141.233 56.0074L137.419 60.6438C137.419 60.6438 141.71 71.308 144.626 75.0557C146.657 77.6659 155.006 83.2723 155.006 83.2723L159.531 77.2394Z" fill="#CC7256"/>
<path d="M132.736 51.7976C132.737 52.0277 132.776 52.2561 132.853 52.473V52.473C133.052 52.9956 133.331 53.4839 133.681 53.9203C134.047 54.4281 134.397 54.9359 134.742 55.4742C135.032 55.916 135.321 56.3578 135.616 56.7894C135.789 57.0434 135.961 57.2973 136.124 57.5309L136.804 59.3742L137.399 60.6387L139.151 60.0801L141.243 59.4098L142.406 59.0391L141.781 57.4445L141.213 56.0125C142.446 54.2801 143.327 52.3215 143.803 50.2487C143.874 49.9085 143.914 49.5632 143.965 49.2331C144.02 48.7366 144.117 48.2456 144.255 47.7655C144.602 46.8974 145.026 46.0613 145.519 45.267C145.585 45.135 145.651 45.003 145.707 44.8659C145.835 44.6504 145.878 44.3954 145.829 44.1498C145.829 44.1498 145.829 44.1498 145.829 44.1194C145.763 43.9804 145.656 43.8648 145.523 43.7877C145.389 43.7107 145.236 43.6758 145.082 43.6877C145.039 43.6849 144.994 43.6849 144.95 43.6877C144.683 43.7485 144.429 43.8606 144.204 44.0178L144.123 44.0787C142.91 44.9069 142.002 46.1089 141.538 47.5014C141.502 47.6933 141.41 47.8702 141.274 48.0093C141.128 48.0955 140.96 48.1345 140.791 48.121C140.108 48.1029 139.441 47.9068 138.856 47.5522C138.558 47.3763 138.273 47.1795 138.003 46.9631V46.9631C137.705 46.6612 137.331 46.4454 136.921 46.3385C136.588 46.3175 136.259 46.4206 135.997 46.628L135.951 46.6585C135.741 46.8262 135.547 47.0132 135.372 47.2171C135.281 47.3237 135.194 47.4253 135.108 47.5421C134.419 48.3714 133.807 49.2621 133.28 50.203C132.964 50.6788 132.777 51.2281 132.736 51.7976V51.7976Z" fill="#CC7256"/>
<path d="M137.602 51.7875C136.964 52.7238 136.555 53.7972 136.409 54.9208C136.246 53.821 136.405 52.6977 136.866 51.6859C137.102 51.1861 137.457 50.7514 137.9 50.4196C138.342 50.0878 138.859 49.8688 139.405 49.7816C139.611 49.7385 139.824 49.7385 140.03 49.7816C139.811 50.1219 139.1 50.3148 138.76 50.5738C138.314 50.9162 137.923 51.3256 137.602 51.7875V51.7875Z" fill="#A04F39"/>
<path d="M160.42 90.0872C160.034 91.4532 159.764 92.3876 159.764 92.3876L145.661 79.1843L147.215 77.1175L152.375 70.2314C152.375 70.2314 162.979 78.6054 163.066 79.621C163.132 80.3371 161.4 86.6086 160.42 90.0872Z" fill="#FFDEBB"/>
<path d="M160.42 90.0871C160.034 91.4532 159.764 92.3876 159.764 92.3876L145.661 79.1843L147.215 77.1174L160.42 90.0871Z" fill="#F4C69D"/>
<path d="M214.416 106.317C214.282 106.383 214.138 106.427 213.99 106.449L212.68 106.378L211.283 107.5L208.454 103.519L208.921 103.169C208.921 103.169 207.906 100.279 208.921 98.9283C209.577 98.1707 210.082 97.2952 210.409 96.3485C210.519 95.8342 210.655 95.3257 210.816 94.8251C210.9 94.5757 211.038 94.3474 211.218 94.1556C211.399 93.9638 211.618 93.8128 211.862 93.7129C211.922 93.6979 211.985 93.6979 212.045 93.7129C212.105 93.7376 212.158 93.7771 212.199 93.8277C212.24 93.8783 212.267 93.9384 212.278 94.0024C212.278 94.0024 212.278 94.0278 212.278 94.038C212.678 95.4684 212.58 96.9924 211.999 98.3595C211.999 98.3595 214.422 97.1814 216.712 96.1708C218.662 95.3075 220.521 94.5661 220.678 94.7794C220.796 94.9278 220.878 95.1017 220.917 95.2872C220.954 95.4366 220.962 95.5916 220.942 95.7442C220.942 95.7442 218.875 97.1255 217.296 98.2376C216.673 98.6321 216.088 99.0843 215.549 99.5884C215.513 99.7052 216.351 99.4564 217.398 99.1314C218.225 98.8724 219.201 98.5626 219.972 98.3392C220.421 98.1714 220.895 98.0838 221.374 98.0802C221.453 98.1316 221.521 98.1995 221.572 98.2792C221.622 98.359 221.656 98.4487 221.669 98.5423C221.725 98.7651 221.757 98.9932 221.765 99.2228C221.779 99.4579 221.779 99.6936 221.765 99.9287C221.765 99.9287 221.806 99.9947 221.862 100.101C221.918 100.208 222.055 100.472 222.156 100.716C222.223 100.871 222.279 101.03 222.324 101.193C222.481 101.686 216.285 105.54 214.416 106.317Z" fill="#CC7256"/>
<path d="M221.77 99.1872C221.623 99.2634 221.471 99.3345 221.313 99.4056C220.527 99.7511 219.711 100.025 218.875 100.223C218.53 100.308 218.181 100.376 217.829 100.426C217.87 100.401 218.215 100.198 218.753 99.9185C219.292 99.6392 220.135 99.1923 221.034 98.7962L221.674 98.522C221.729 98.7397 221.762 98.9627 221.77 99.1872V99.1872Z" fill="#A04F39"/>
<path d="M222.172 100.685C221.271 101.104 220.332 101.434 219.368 101.67C220.158 101.052 221.009 100.516 221.907 100.071C221.958 100.218 222.07 100.442 222.172 100.685Z" fill="#A04F39"/>
<path d="M209.074 104.479C209.095 104.459 209.119 104.442 209.145 104.428C209.261 104.343 209.373 104.251 209.48 104.154C209.562 104.072 209.63 103.978 209.683 103.875C209.791 103.576 209.804 103.251 209.719 102.945C209.541 101.93 209.272 100.914 209.475 99.8983C209.719 98.7151 210.582 97.7553 211.039 96.633C211.369 95.8154 211.501 94.8912 212.055 94.2209C212.121 94.1396 212.202 94.0634 212.278 93.9822C212.238 93.8603 212.171 93.7232 212.045 93.6978C211.984 93.6854 211.922 93.6854 211.862 93.6978C211.618 93.7974 211.398 93.9489 211.218 94.1418C211.038 94.3347 210.903 94.5644 210.821 94.815C210.655 95.3146 210.517 95.8233 210.409 96.3385C210.085 97.285 209.579 98.1595 208.921 98.9131C207.905 100.269 208.921 103.164 208.921 103.164C208.921 103.164 208.713 103.275 208.454 103.382L208.393 103.407L208.205 103.499L209.074 104.479Z" fill="#CC7256"/>
<path d="M211.613 104.565L211.776 104.474C211.919 104.385 212.053 104.283 212.177 104.169C212.595 103.778 212.893 103.276 213.035 102.722C213.176 102.169 213.155 101.587 212.974 101.046C212.92 100.884 212.85 100.727 212.766 100.579L212.67 100.426V100.609C212.67 100.721 212.67 100.888 212.67 101.086C212.631 101.585 212.548 102.08 212.421 102.564C212.293 103.049 212.123 103.521 211.913 103.976C211.827 104.154 211.755 104.306 211.695 104.402L211.613 104.565Z" fill="#A04F39"/>
<path d="M165.545 93.9719C165.545 93.9719 165.082 100.142 166.052 100.761C167.022 101.381 177.474 101.716 177.474 101.716L178.576 94.3528L165.545 93.9719Z" fill="#47B695"/>
<path d="M165.098 92.7583L178.912 93.5607C178.912 93.5607 177.931 96.2775 177.032 96.6939C176.134 97.1103 167.723 96.5822 166.875 96.1861C166.027 95.79 165.098 92.7583 165.098 92.7583Z" fill="#007865"/>
<path d="M141.883 195.465C141.933 195.273 142.031 195.097 142.169 194.955C142.307 194.812 142.48 194.708 142.67 194.652C144.006 194.302 148.846 193.327 150.247 192.545C151.329 191.94 153.675 190.686 154.122 190.036L161.304 191.59C161.328 194.091 161.215 196.592 160.963 199.08L141.883 195.465Z" fill="#E07122"/>
<path d="M141.513 197.384L160.593 201L160.964 199.081L141.883 195.465L141.513 197.384Z" fill="white"/>
<path d="M151.745 193.393L151.776 193.469C151.837 193.652 151.847 193.921 151.603 193.977C151.479 193.996 151.351 193.977 151.238 193.921C150.844 193.75 150.481 193.517 150.161 193.23C149.776 192.953 149.462 192.587 149.247 192.164C149.054 191.712 149.496 191.402 149.932 191.585C150.747 191.931 151.397 192.579 151.745 193.393Z" fill="white"/>
<path d="M150.115 194.15C150.117 194.175 150.117 194.2 150.115 194.226C150.176 194.409 150.186 194.678 149.948 194.734C149.821 194.753 149.692 194.734 149.577 194.678C149.181 194.506 148.816 194.271 148.495 193.982C148.127 193.701 147.829 193.34 147.622 192.926C147.434 192.474 147.876 192.164 148.312 192.347C149.121 192.695 149.767 193.34 150.115 194.15V194.15Z" fill="white"/>
<path d="M148.222 194.49C148.228 194.516 148.236 194.541 148.247 194.566C148.308 194.754 148.318 195.023 148.074 195.074C147.95 195.093 147.822 195.074 147.709 195.018C147.311 194.846 146.944 194.611 146.622 194.322C146.238 194.045 145.925 193.682 145.708 193.261C145.515 192.804 145.957 192.499 146.393 192.677C147.213 193.023 147.868 193.673 148.222 194.49Z" fill="white"/>
<path d="M194.614 189.879C194.451 189.766 194.319 189.613 194.231 189.436C194.142 189.258 194.099 189.061 194.106 188.863C194.223 187.462 194.95 182.475 194.68 180.87C194.472 179.621 194.066 176.935 193.599 176.3L197.555 169.937C199.965 170.77 202.327 171.737 204.629 172.831L194.614 189.879Z" fill="#E07122"/>
<path d="M196.326 190.884L206.341 173.801L204.629 172.786L194.614 189.869L196.326 190.884Z" fill="white"/>
<path d="M196.006 179.687H196.082C196.286 179.687 196.545 179.778 196.519 180.027C196.496 180.154 196.434 180.271 196.341 180.362C196.041 180.685 195.689 180.956 195.3 181.165C194.901 181.436 194.444 181.61 193.965 181.672C193.457 181.703 193.32 181.165 193.64 180.814C194.256 180.151 195.103 179.747 196.006 179.687V179.687Z" fill="white"/>
<path d="M196.168 181.515H196.25C196.448 181.515 196.712 181.601 196.686 181.855C196.661 181.983 196.597 182.1 196.503 182.191C196.211 182.511 195.868 182.782 195.488 182.993C195.087 183.265 194.628 183.439 194.147 183.501C193.639 183.526 193.502 182.993 193.827 182.642C194.437 181.985 195.274 181.582 196.168 181.515V181.515Z" fill="white"/>
<path d="M195.869 183.455H195.95C196.149 183.455 196.413 183.541 196.387 183.795C196.361 183.921 196.298 184.036 196.204 184.125C195.904 184.449 195.552 184.722 195.163 184.933C194.764 185.204 194.306 185.378 193.828 185.44C193.32 185.466 193.183 184.933 193.508 184.582C194.12 183.916 194.966 183.512 195.869 183.455Z" fill="white"/>
<path d="M140.263 40.6786L107.461 104.281L111.072 106.143L143.874 42.5407L140.263 40.6786Z" fill="#FDF4E3"/>
<path d="M131.061 50.7362C132.213 52.5339 134.616 53.5394 134.616 53.5394C135.053 53.2762 135.45 52.9512 135.794 52.5745C135.96 52.4132 136.117 52.2437 136.266 52.0667C136.617 51.6295 136.941 51.1716 137.236 50.6956C137.373 50.4823 137.505 50.2639 137.632 50.0456C137.967 49.4616 138.277 48.8725 138.552 48.3088C138.673 48.0702 138.78 47.8366 138.887 47.6131C139.166 46.9987 139.395 46.4604 139.557 46.0541C139.72 45.6479 139.852 45.2924 139.852 45.2924C138.359 44.0228 135.316 43.4642 135.316 43.4642C134.697 43.9144 134.149 44.4554 133.691 45.0689C132.483 46.7859 131.592 48.7053 131.061 50.7362V50.7362Z" fill="#CC7256"/>
<path d="M136.018 46.4096C136.018 46.4096 136.211 46.6026 136.525 46.8666C136.905 47.2018 137.307 47.5106 137.729 47.7908C138.003 47.9742 138.286 48.1437 138.577 48.2987C138.699 48.06 138.806 47.8264 138.912 47.603C138.712 47.3847 138.485 47.192 138.237 47.0291C137.776 46.7316 137.256 46.5359 136.713 46.4553C136.484 46.4149 136.25 46.3996 136.018 46.4096Z" fill="#A04F39"/>
<path d="M134.926 48.7964C134.926 48.7964 135.093 48.9996 135.368 49.2687C135.711 49.6073 136.082 49.9181 136.475 50.198C136.749 50.3859 137.018 50.5383 137.267 50.6754C137.404 50.4621 137.536 50.2437 137.663 50.0254C137.47 49.8013 137.248 49.6033 137.003 49.4363C136.574 49.1469 136.09 48.9497 135.581 48.8574C135.365 48.8157 135.146 48.7952 134.926 48.7964Z" fill="#A04F39"/>
<path d="M136.287 52.0465C136.042 51.7659 135.762 51.5184 135.454 51.3102C135.001 51.0106 134.497 50.7987 133.966 50.6855" fill="#A04F39"/>
<path d="M133.712 45.0487C134.324 44.8191 134.973 44.7071 135.627 44.7186C136.222 44.7654 136.809 44.8953 137.369 45.1045C138.04 45.2988 138.694 45.5485 139.324 45.851C139.414 45.9037 139.499 45.9649 139.578 46.0339C139.766 45.5616 139.872 45.2721 139.872 45.2721C138.379 44.0026 135.337 43.444 135.337 43.444C134.718 43.8942 134.17 44.4352 133.712 45.0487Z" fill="#E1836C"/>
<path d="M126.074 51.63L117.653 51.7722L119.116 56.2258L126.074 51.63Z" fill="#FFB447"/>
<path d="M127.566 49.3347L124.397 45.0995L122.559 47.3593L127.566 49.3347Z" fill="#FFB447"/>
<path d="M128.414 54.484L124.352 58.3637L126.368 60.1208L128.414 54.484Z" fill="#FFB447"/>
<path d="M103.184 106.226C103.184 106.226 105.164 117.088 112.218 114.788C119.273 112.487 114.544 101.716 114.544 101.716L103.184 106.226Z" fill="#DD8C33"/>
<path d="M67.126 59.7043L110.264 105.2" stroke="#FDF4E3" stroke-width="2" stroke-miterlimit="10"/>
<path d="M109.263 104.717V56.4949" stroke="#FDF4E3" stroke-width="8" stroke-miterlimit="10"/>
<path d="M109.263 110.796C112.62 110.796 115.342 108.075 115.342 104.718C115.342 101.36 112.62 98.6389 109.263 98.6389C105.905 98.6389 103.184 101.36 103.184 104.718C103.184 108.075 105.905 110.796 109.263 110.796Z" fill="#FDF4E3"/>
<path d="M109.263 108.775C111.504 108.775 113.321 106.958 113.321 104.717C113.321 102.477 111.504 100.66 109.263 100.66C107.022 100.66 105.205 102.477 105.205 104.717C105.205 106.958 107.022 108.775 109.263 108.775Z" fill="#FEB52B"/>
<path d="M118.267 7.74426H100.563C98.2437 7.74426 96.3633 9.62452 96.3633 11.9439V12.1623C96.3633 14.4817 98.2437 16.362 100.563 16.362H118.267C120.587 16.362 122.467 14.4817 122.467 12.1623V11.9439C122.467 9.62452 120.587 7.74426 118.267 7.74426Z" fill="#0D173D"/>
<path d="M103.184 106.226C103.184 106.226 105.164 117.088 112.218 114.788C119.273 112.487 114.544 101.716 114.544 101.716L103.184 106.226Z" fill="#DD8C33"/>
<path d="M67.493 59.3573L66.7559 60.056L109.889 105.553L110.626 104.854L67.493 59.3573Z" fill="#FDF4E3"/>
<path d="M111.294 56.4949H107.231V104.717H111.294V56.4949Z" fill="#FDF4E3"/>
<path d="M109.263 110.796C112.62 110.796 115.342 108.075 115.342 104.718C115.342 101.36 112.62 98.6389 109.263 98.6389C105.905 98.6389 103.184 101.36 103.184 104.718C103.184 108.075 105.905 110.796 109.263 110.796Z" fill="#FDF4E3"/>
<path d="M109.263 108.775C111.504 108.775 113.321 106.958 113.321 104.717C113.321 102.477 111.504 100.66 109.263 100.66C107.022 100.66 105.205 102.477 105.205 104.717C105.205 106.958 107.022 108.775 109.263 108.775Z" fill="#FEB52B"/>
<path opacity="0.38" d="M70.2282 117.525C69.2938 114.259 68.6336 110.278 70.6802 107.287C72.6 104.474 76.3582 103.61 79.5018 104.687C82.6455 105.763 85.0172 108.338 86.7897 111.126C88.5621 113.914 89.8622 116.986 91.6499 119.759C95.1655 125.205 100.404 129.318 106.53 131.439C109.958 132.617 116.581 133.556 117.261 137.964C117.927 142.26 112.899 144.353 109.511 144.993C102.01 146.386 94.2579 145.107 87.6023 141.377C79.9284 137.04 74.5552 129.408 71.4979 121.293C71.0662 120.135 70.6091 118.86 70.2282 117.525Z" fill="#FFFFEE"/>
<path opacity="0.38" d="M130.38 146.806C134.054 146.806 137.033 143.827 137.033 140.153C137.033 136.479 134.054 133.501 130.38 133.501C126.705 133.501 123.727 136.479 123.727 140.153C123.727 143.827 126.705 146.806 130.38 146.806Z" fill="#FFFFEE"/>
<path d="M32.2764 145.531C32.2764 145.531 37.2991 168.941 67.2732 181.84" stroke="#007865" stroke-miterlimit="10"/>
<path d="M65.6787 181.129C65.6787 181.129 53.8658 176.625 46.1768 176.366C38.4877 176.107 34.0947 175.975 34.0947 175.975C38.3013 179.878 43.4528 182.617 49.0411 183.922C54.739 185.2 60.7109 184.198 65.6787 181.129V181.129Z" fill="#007865"/>
<path d="M48.0811 169.591C48.0811 169.591 36.2682 165.087 28.5791 164.828C20.8901 164.569 16.4971 164.437 16.4971 164.437C20.7037 168.34 25.8552 171.079 31.4435 172.384C37.1413 173.663 43.1132 172.66 48.0811 169.591V169.591Z" fill="#007865"/>
<path d="M58.9542 177.65C58.9542 177.65 54.2564 175.325 54.3834 165.549C54.5104 155.774 54.3834 149.918 54.3834 149.918C57.8452 152.905 60.4102 156.794 61.7931 161.151C63.8957 168.154 58.9542 177.65 58.9542 177.65Z" fill="#007865"/>
<path d="M43.3165 164.919C43.3165 164.919 38.6187 162.589 38.7457 152.818C38.8727 143.048 38.7457 137.182 38.7457 137.182C42.212 140.17 44.7822 144.06 46.1707 148.42C48.258 155.423 43.3165 164.919 43.3165 164.919Z" fill="#007865"/>
<path d="M35.6478 144.459C35.6478 145.004 35.4863 145.536 35.1836 145.989C34.8809 146.442 34.4507 146.795 33.9474 147.003C33.4441 147.211 32.8904 147.265 32.3563 147.159C31.8222 147.052 31.3318 146.789 30.947 146.404C30.5622 146.018 30.3005 145.527 30.1949 144.993C30.0892 144.459 30.1445 143.905 30.3536 143.403C30.5627 142.9 30.9163 142.47 31.3696 142.168C31.823 141.867 32.3556 141.706 32.9003 141.707C33.2615 141.707 33.6192 141.778 33.9529 141.917C34.2866 142.055 34.5897 142.258 34.8449 142.513C35.1001 142.769 35.3024 143.073 35.4401 143.406C35.5779 143.74 35.6485 144.098 35.6478 144.459V144.459Z" fill="#DD8C33"/>
<path d="M36.6889 155.103C36.6889 155.103 28.3142 145.638 21.6206 141.839C14.9269 138.041 11.0977 135.887 11.0977 135.887C13.0144 141.298 16.3087 146.114 20.6556 149.863C25.1115 153.634 30.8653 155.515 36.6889 155.103V155.103Z" fill="#007865"/>
<path d="M19.1025 145.049C19.1025 145.049 26.8322 151.285 35.3186 154.621" stroke="#0D173D" stroke-miterlimit="10"/>
<path d="M41.5703 144.459C41.5703 144.459 43.4139 157.424 43.3174 164.92" stroke="#0D173D" stroke-miterlimit="10"/>
<path d="M26.4307 168.688L48.0656 169.586" stroke="#0D173D" stroke-miterlimit="10"/>
<path d="M42.4482 178.58C42.8545 178.712 56.2063 183.622 65.424 181.033" stroke="#0D173D" stroke-miterlimit="10"/>
<path d="M55.5566 155.454C55.5566 155.454 58.4108 163.142 58.355 166.397C58.2991 169.652 58.9542 177.65 58.9542 177.65" stroke="#0D173D" stroke-miterlimit="10"/>
<path d="M26.7857 120.084C26.7857 120.084 25.902 114.671 27.5069 114.615C29.1117 114.559 28.228 120.084 28.228 120.084H26.7857Z" fill="#FFF7EB"/>
<path d="M26.1664 121.074C26.1664 121.074 21.3773 118.393 22.3371 117.103C23.297 115.813 27.0603 119.952 27.0603 119.952L26.1664 121.074Z" fill="#FFF7EB"/>
<path d="M26.5524 122.181C26.5524 122.181 21.4737 124.248 21.0573 122.689C20.6408 121.13 26.2426 120.78 26.2426 120.78L26.5524 122.181Z" fill="#FFF7EB"/>
<path d="M27.6596 122.567C27.6596 122.567 26.1055 127.828 24.6124 127.183C23.1193 126.538 26.334 121.943 26.334 121.943L27.6596 122.567Z" fill="#FFF7EB"/>
<path d="M28.6495 121.943C28.6495 121.943 31.7932 126.437 30.3763 127.183C28.9593 127.93 27.3291 122.567 27.3291 122.567L28.6495 121.943Z" fill="#FFF7EB"/>
<path d="M28.7819 120.78C28.7819 120.78 34.2617 121.12 33.957 122.699C33.6523 124.279 28.4619 122.192 28.4619 122.192L28.7819 120.78Z" fill="#FFF7EB"/>
<path d="M27.9492 119.952C27.9492 119.952 31.6312 115.89 32.6774 117.103C33.7236 118.317 28.8481 121.074 28.8481 121.074L27.9492 119.952Z" fill="#FFF7EB"/>
<path d="M28.8581 121.227C28.8581 121.494 28.7789 121.755 28.6304 121.977C28.482 122.199 28.271 122.373 28.0241 122.475C27.7773 122.577 27.5057 122.604 27.2436 122.552C26.9816 122.5 26.7409 122.371 26.5519 122.182C26.363 121.993 26.2343 121.752 26.1822 121.49C26.1301 121.228 26.1568 120.957 26.2591 120.71C26.3613 120.463 26.5345 120.252 26.7566 120.104C26.9788 119.955 27.24 119.876 27.5072 119.876C27.8655 119.876 28.2091 120.018 28.4624 120.272C28.7158 120.525 28.8581 120.869 28.8581 121.227Z" fill="#DD8C33"/>
<path d="M16.8729 85.1207C16.8729 85.1207 16.2635 81.373 17.3808 81.3324C18.4981 81.2917 17.8887 85.1207 17.8887 85.1207H16.8729Z" fill="#008C7B"/>
<path d="M16.4461 85.8063C16.4461 85.8063 13.1349 83.9477 13.7951 83.0539C14.4553 82.1601 17.0657 85.0242 17.0657 85.0242L16.4461 85.8063Z" fill="#008C7B"/>
<path d="M16.7104 86.5681C16.7104 86.5681 13.1959 88.0001 12.9115 86.9286C12.6271 85.8571 16.4666 85.5981 16.4666 85.5981L16.7104 86.5681Z" fill="#008C7B"/>
<path d="M17.4771 86.8372C17.4771 86.8372 16.4055 90.4782 15.3847 90.0313C14.3639 89.5845 16.5934 86.4055 16.5934 86.4055L17.4771 86.8372Z" fill="#008C7B"/>
<path d="M18.1626 86.4055C18.1626 86.4055 20.3413 89.5134 19.3561 90.0313C18.3708 90.5493 17.2637 86.8372 17.2637 86.8372L18.1626 86.4055Z" fill="#008C7B"/>
<path d="M18.2537 85.5981C18.2537 85.5981 22.0424 85.8368 21.8088 86.9286C21.5752 88.0205 18.0049 86.5681 18.0049 86.5681L18.2537 85.5981Z" fill="#008C7B"/>
<path d="M17.6797 85.0242C17.6797 85.0242 20.219 82.2109 20.9503 83.0538C21.6817 83.8968 18.2993 85.8062 18.2993 85.8062L17.6797 85.0242Z" fill="#008C7B"/>
<path d="M18.3045 85.9078C18.3045 86.0926 18.2497 86.2732 18.147 86.4269C18.0443 86.5805 17.8984 86.7003 17.7276 86.771C17.5569 86.8418 17.369 86.8603 17.1877 86.8242C17.0064 86.7882 16.8399 86.6992 16.7092 86.5685C16.5786 86.4378 16.4896 86.2713 16.4535 86.0901C16.4174 85.9088 16.436 85.7209 16.5067 85.5502C16.5774 85.3795 16.6972 85.2335 16.8509 85.1309C17.0045 85.0282 17.1852 84.9734 17.37 84.9734C17.4927 84.9734 17.6142 84.9976 17.7276 85.0445C17.841 85.0915 17.944 85.1603 18.0308 85.2471C18.1176 85.3338 18.1864 85.4368 18.2334 85.5502C18.2803 85.6636 18.3045 85.7851 18.3045 85.9078V85.9078Z" fill="#FFF7EB"/>
<path d="M159.77 37.5736C159.77 37.5736 158.841 31.9012 160.522 31.8454C162.203 31.7895 161.273 37.5736 161.273 37.5736H159.77Z" fill="#FFF7EB"/>
<path d="M159.115 38.6146C159.115 38.6146 154.102 35.8013 155.108 34.4505C156.114 33.0997 160.055 37.4364 160.055 37.4364L159.115 38.6146Z" fill="#FFF7EB"/>
<path d="M159.521 39.7724C159.521 39.7724 154.199 41.9357 153.767 40.3107C153.335 38.6857 159.186 38.2794 159.186 38.2794L159.521 39.7724Z" fill="#FFF7EB"/>
<path d="M160.679 40.1736C160.679 40.1736 159.054 45.6835 157.515 45.0081C155.976 44.3327 159.303 39.5186 159.303 39.5186L160.679 40.1736Z" fill="#FFF7EB"/>
<path d="M161.72 39.5186C161.72 39.5186 165.016 44.226 163.528 45.0081C162.04 45.7901 160.359 40.1736 160.359 40.1736L161.72 39.5186Z" fill="#FFF7EB"/>
<path d="M161.842 38.2998C161.842 38.2998 167.581 38.6604 167.266 40.3311C166.951 42.0018 161.507 39.7928 161.507 39.7928L161.842 38.2998Z" fill="#FFF7EB"/>
<path d="M160.989 37.4365C160.989 37.4365 164.844 33.1759 165.936 34.4505C167.028 35.7251 161.929 38.6146 161.929 38.6146L160.989 37.4365Z" fill="#FFF7EB"/>
<path d="M161.933 38.7721C161.933 39.0525 161.85 39.3266 161.694 39.5597C161.538 39.7928 161.317 39.9744 161.058 40.0815C160.798 40.1886 160.513 40.2163 160.238 40.1613C159.963 40.1062 159.711 39.9707 159.513 39.7721C159.315 39.5734 159.18 39.3205 159.126 39.0453C159.072 38.7702 159.101 38.4851 159.209 38.2263C159.317 37.9675 159.499 37.7466 159.733 37.5915C159.967 37.4365 160.241 37.3542 160.522 37.3552C160.707 37.3552 160.891 37.3919 161.063 37.4632C161.235 37.5344 161.391 37.6389 161.522 37.7705C161.653 37.9021 161.757 38.0584 161.827 38.2302C161.898 38.4021 161.934 38.5862 161.933 38.7721V38.7721Z" fill="#DD8C33"/>
<path d="M5.83711 98.7607L6.43638 96.9478L7.01535 98.781C7.64776 100.781 9.02897 102.458 10.87 103.463C9.03094 104.462 7.64565 106.129 7.00011 108.12L6.43638 109.963L5.83711 108.12C5.20583 106.118 3.8245 104.439 1.98242 103.433V103.433C3.82147 102.43 5.2024 100.757 5.83711 98.7607V98.7607Z" fill="#FEB52B"/>
<path d="M13.4042 112.233L13.6175 111.563L13.8308 112.233C14.0641 112.968 14.5716 113.585 15.2478 113.955C14.5726 114.326 14.0655 114.942 13.8308 115.676L13.6175 116.352L13.4042 115.676C13.1696 114.942 12.6625 114.326 11.9873 113.955V113.955C12.6635 113.585 13.171 112.968 13.4042 112.233V112.233Z" fill="#FEB52B"/>
<path d="M218.875 73.1413L219.383 71.5874L219.891 73.1413C220.429 74.8338 221.599 76.254 223.156 77.1074V77.1074C221.597 77.9591 220.427 79.38 219.891 81.0735L219.383 82.5969L218.875 81.0735C218.34 79.3792 217.169 77.9579 215.609 77.1074C217.168 76.2557 218.338 74.8348 218.875 73.1413V73.1413Z" fill="#FEB52B"/>
<path d="M213.898 60.5068L214.238 59.4302L214.578 60.5068C214.949 61.6767 215.757 62.6588 216.833 63.249V63.249C215.757 63.8392 214.949 64.8212 214.578 65.9912L214.238 67.0678L213.898 65.9709C213.526 64.7996 212.717 63.817 211.638 63.2287V63.2287C212.713 62.6451 213.522 61.6705 213.898 60.5068V60.5068Z" fill="#FEB52B"/>
</g>
<defs>
<clipPath id="clip0_78_443">
<rect width="223.12" height="201" fill="white" transform="translate(0.000976562)"/>
</clipPath>
</defs>
</svg>
