<svg width="315" height="228" viewBox="0 0 315 228" fill="none" xmlns="http://www.w3.org/2000/svg">
<g clip-path="url(#clip0_78_657)">
<path d="M246.712 50.2865L246.203 49.6982C247.489 48.5796 248.289 47.9839 248.325 47.9622L248.783 48.5796C248.783 48.5796 247.969 49.1825 246.712 50.2865Z" fill="#CCC3BC"/>
<path d="M236.291 164.537V163.767C238.122 163.702 239.924 163.629 241.647 163.535V164.312C239.924 164.399 238.137 164.479 236.291 164.537ZM244.721 164.13L244.67 163.36C246.465 163.244 248.267 163.113 250.011 162.968L250.076 163.738C248.34 163.898 246.537 164.021 244.735 164.13H244.721ZM253.129 163.455L253.056 162.685C254.865 162.511 256.689 162.307 258.375 162.089L258.47 162.859C256.755 163.077 254.96 163.281 253.143 163.455H253.129ZM261.529 162.445L261.42 161.675C263.23 161.421 265.003 161.131 266.696 160.833L266.834 161.559C265.134 161.908 263.346 162.191 261.529 162.445ZM269.85 161.029L269.719 160.266C271.507 159.917 273.258 159.54 274.937 159.118L275.119 159.845C273.411 160.266 271.645 160.68 269.85 161.036V161.029ZM278.077 159.097L277.866 158.37C279.639 157.884 281.354 157.361 282.953 156.809L283.207 157.535C281.587 158.087 279.893 158.61 278.077 159.104V159.097ZM286.114 156.474L285.838 155.748C287.553 155.087 289.195 154.383 290.729 153.642L291.063 154.368C289.515 155.102 287.844 155.821 286.114 156.482V156.474ZM293.803 152.937L293.425 152.262C294.976 151.406 296.476 150.46 297.916 149.429L298.366 150.061C296.902 151.109 295.378 152.072 293.803 152.944V152.937ZM300.801 148.15L300.299 147.562C301.641 146.421 302.886 145.169 304.02 143.821L304.616 144.315C303.456 145.702 302.18 146.988 300.801 148.158V148.15ZM306.469 141.831L305.822 141.402C306.792 139.935 307.611 138.372 308.264 136.739L308.991 137.022C308.316 138.709 307.471 140.322 306.469 141.838V141.831ZM309.965 134.117L309.238 133.913C309.69 132.21 309.987 130.469 310.125 128.713L310.902 128.771C310.752 130.577 310.438 132.367 309.965 134.117ZM310.212 125.684C310.212 125.008 310.212 124.311 310.139 123.606C310.074 122.517 309.957 121.427 309.797 120.403L310.561 120.28C310.728 121.34 310.844 122.459 310.917 123.563C310.96 124.289 310.982 125.015 310.989 125.676L310.212 125.684ZM309.187 117.41C308.751 115.702 308.15 114.041 307.392 112.449L308.119 112.115C308.898 113.747 309.519 115.449 309.972 117.2L309.187 117.41ZM305.924 109.827C304.969 108.348 303.85 106.981 302.589 105.752L303.126 105.2C304.43 106.467 305.586 107.878 306.571 109.406L305.924 109.827ZM300.299 103.798C298.89 102.741 297.378 101.829 295.786 101.074L296.114 100.348C297.754 101.125 299.312 102.064 300.764 103.152L300.299 103.798ZM292.974 99.9121C291.315 99.321 289.614 98.85 287.887 98.503L288.04 97.7766C289.813 98.1304 291.557 98.616 293.258 99.2293L292.974 99.9121ZM255.759 99.6143C255.301 99.6143 254.844 99.6143 254.393 99.6143V98.8371C256.167 98.8863 257.943 98.8427 259.713 98.7063L259.771 99.4763C258.434 99.5635 257.082 99.6143 255.774 99.6143H255.759ZM251.312 99.4037C249.512 99.2335 247.727 98.935 245.97 98.5102L246.152 97.7839C247.873 98.2003 249.622 98.494 251.384 98.6628L251.312 99.4037ZM262.859 99.1494L262.765 98.3795C263.666 98.2633 264.589 98.1325 265.519 97.9727C266.449 97.8129 267.227 97.6967 268.062 97.5805L268.171 98.3504C267.343 98.4666 266.5 98.5901 265.65 98.7354C264.8 98.8807 263.782 99.0332 262.874 99.1494H262.859ZM284.871 98.0163C283.111 97.7938 281.34 97.6629 279.566 97.6241V96.8541C281.367 96.8933 283.164 97.0242 284.951 97.2463L284.871 98.0163ZM271.202 97.98L271.122 97.21C272.953 97.0212 274.755 96.905 276.5 96.8541V97.6313C274.806 97.6749 273.026 97.7984 271.216 97.98H271.202ZM242.998 97.6241C241.283 97.0287 239.636 96.2519 238.086 95.3069L238.485 94.6459C239.993 95.5576 241.591 96.3122 243.253 96.8977L242.998 97.6241ZM235.564 93.4983C234.165 92.3282 232.941 90.9632 231.93 89.4451L232.577 89.0166C233.551 90.4738 234.731 91.7827 236.08 92.9027L235.564 93.4983ZM230.433 86.6922C229.72 85.0045 229.276 83.2152 229.118 81.3897L229.896 81.3243C230.041 83.0746 230.462 84.7908 231.146 86.4089L230.433 86.6922ZM229.881 78.3244L229.104 78.2663C229.222 76.7903 229.489 75.33 229.903 73.9081C229.997 73.5885 230.092 73.2689 230.194 72.9566L230.92 73.189C230.826 73.4941 230.731 73.8064 230.644 74.1187C230.247 75.491 229.991 76.9002 229.881 78.3244ZM231.952 70.3344L231.226 70.0438C231.908 68.373 232.687 66.7432 233.558 65.1626L234.234 65.5403C233.373 67.0868 232.603 68.6827 231.93 70.3198L231.952 70.3344ZM235.797 62.9254L235.143 62.5114C236.087 61.0586 237.134 59.5405 238.26 58.1023L238.871 58.5817C237.744 59.9836 236.727 61.4799 235.797 62.9327V62.9254ZM240.811 56.2283L240.222 55.7198C241.399 54.3688 242.649 53.054 243.936 51.8047L244.473 52.3567C243.202 53.577 241.974 54.8772 240.811 56.2138V56.2283Z" fill="#CCC3BC"/>
<path d="M230.324 164.69V163.898L233.028 163.847V164.617L230.324 164.69Z" fill="#CCC3BC"/>
<path d="M248.557 39.9141L233.812 30.2679L297.385 17.8252L248.557 39.9141Z" fill="#F2E2E5"/>
<path d="M248.558 39.9141L252.845 49.5748L297.385 17.8252L248.558 39.9141Z" fill="#E0D3D5"/>
<path d="M254.866 44.4394L252.846 49.5748L262.373 43.2554L254.866 44.4394Z" fill="#CCBEC1"/>
<path d="M254.865 44.4394L267.009 64.8358L297.385 17.8252L254.865 44.4394Z" fill="#F2E2E5"/>
<path d="M4.47028 180.496C-2.24453 183.401 -11.2557 183.183 60.1799 195.161C131.616 207.139 136.412 209.405 134.137 212.695C131.863 215.986 163.845 218.899 176.054 217.54C188.263 216.182 192.528 212.695 192.528 212.695C192.528 212.695 220.252 215.216 237.89 228C266.086 216.197 314.994 195.132 314.994 195.132L276.028 185.551L24.0915 174.481C24.0915 174.481 11.1706 177.605 4.47028 180.496" fill="#E8E2DD"/>
<path d="M223.835 173.413L217.004 172.629L214.729 175.375L223.835 173.413Z" fill="#0A6C8E"/>
<path d="M197.15 11.7091L197.099 44.6136C197.099 44.6136 158.38 47.5845 149.979 44.926C141.578 42.2675 145.524 31.1686 145.532 25.8661C145.539 20.5636 145.67 7.65599 146.985 4.61977C148.301 1.58354 154.725 3.16702 162.573 4.14036C170.422 5.11369 197.15 11.7091 197.15 11.7091Z" fill="#EEE6DE"/>
<path d="M145.532 25.8878C145.532 20.5926 145.67 7.67772 146.986 4.64149C148.301 1.60527 154.725 3.18875 162.574 4.16209C170.422 5.13542 197.114 11.7309 197.114 11.7309V17.244C189.934 15.5007 171.287 11.9197 165.052 11.1425C157.196 10.1619 151.666 9.13045 150.314 12.1667C148.962 15.2029 148.504 26.8321 148.497 32.1346C148.497 35.04 147.298 39.7251 147.625 43.7565C142.415 39.8922 145.525 30.5874 145.532 25.8878Z" fill="#EFD5BF"/>
<g opacity="0.58">
<g style="mix-blend-mode:multiply" opacity="0.58">
<path d="M145.765 5.07739L196.765 14.3822C196.765 14.3822 155.844 5.3752 145.765 5.07739Z" fill="#E8D3C1"/>
</g>
<g style="mix-blend-mode:multiply" opacity="0.58">
<path d="M144.413 23.9557L195.871 27.9653C195.871 27.9653 154.427 23.2875 144.413 23.9557Z" fill="#E8D3C1"/>
</g>
<g style="mix-blend-mode:multiply" opacity="0.58">
<path d="M144.413 21.8565L195.842 27.1881C195.842 27.1881 154.449 21.3699 144.413 21.8565Z" fill="#E8D3C1"/>
</g>
<g style="mix-blend-mode:multiply" opacity="0.58">
<path d="M144.413 20.5854L195.842 25.8879C195.842 25.8879 154.449 20.0769 144.413 20.5854Z" fill="#E8D3C1"/>
</g>
<g style="mix-blend-mode:multiply" opacity="0.58">
<path d="M144.435 18.9147L195.828 24.7256C195.828 24.7256 154.478 18.5297 144.435 18.9147Z" fill="#E8D3C1"/>
</g>
<g style="mix-blend-mode:multiply" opacity="0.58">
<path d="M144.485 16.692L195.784 23.5998C195.784 23.5998 154.543 16.5177 144.485 16.692Z" fill="#E8D3C1"/>
</g>
<g style="mix-blend-mode:multiply" opacity="0.58">
<path d="M144.485 15.094L195.784 21.9945C195.784 21.9945 154.543 14.9197 144.485 15.094Z" fill="#E8D3C1"/>
</g>
<g style="mix-blend-mode:multiply" opacity="0.58">
<path d="M144.515 13.1328L195.762 20.5345C195.762 20.5345 154.58 13.0529 144.515 13.1328Z" fill="#E8D3C1"/>
</g>
<g style="mix-blend-mode:multiply" opacity="0.58">
<path d="M144.515 11.3024L195.762 18.7041C195.762 18.7041 154.58 11.2225 144.515 11.3024Z" fill="#E8D3C1"/>
</g>
<g style="mix-blend-mode:multiply" opacity="0.58">
<path d="M144.551 9.43555L195.733 17.382C195.733 17.382 154.623 9.4646 144.551 9.43555Z" fill="#E8D3C1"/>
</g>
<g style="mix-blend-mode:multiply" opacity="0.58">
<path d="M144.333 7.35095L195.515 15.2974C195.515 15.2974 154.398 7.38001 144.333 7.35095Z" fill="#E8D3C1"/>
</g>
<g style="mix-blend-mode:multiply" opacity="0.58">
<path d="M145.881 41.3886L195.515 41.3304C195.515 41.3304 155.88 42.8195 145.881 41.3886Z" fill="#E8D3C1"/>
</g>
<g style="mix-blend-mode:multiply" opacity="0.58">
<path d="M144.609 25.5392L195.661 28.9822C195.661 28.9822 154.674 27.3769 144.609 25.5392Z" fill="#E8D3C1"/>
</g>
<g style="mix-blend-mode:multiply" opacity="0.58">
<path d="M144.624 27.2317L195.639 30.1372C195.639 30.1372 154.587 29.3382 144.624 27.2317Z" fill="#E8D3C1"/>
</g>
<g style="mix-blend-mode:multiply" opacity="0.58">
<path d="M144.667 29.4762L195.595 31.2994C195.595 31.2994 154.645 31.3793 144.667 29.4762Z" fill="#E8D3C1"/>
</g>
<g style="mix-blend-mode:multiply" opacity="0.58">
<path d="M144.66 31.0814L195.595 32.9191C195.595 32.9191 154.638 32.9845 144.66 31.0814Z" fill="#E8D3C1"/>
</g>
<g style="mix-blend-mode:multiply" opacity="0.58">
<path d="M144.682 33.0643L195.551 34.3863C195.551 34.3863 154.667 34.8657 144.682 33.0643Z" fill="#E8D3C1"/>
</g>
<g style="mix-blend-mode:multiply" opacity="0.58">
<path d="M144.675 34.9094L195.545 36.2314C195.545 36.2314 154.66 36.7108 144.675 34.9094Z" fill="#E8D3C1"/>
</g>
<g style="mix-blend-mode:multiply" opacity="0.58">
<path d="M144.726 36.7834L195.544 37.5098C195.544 37.5098 154.689 38.4904 144.726 36.7834Z" fill="#E8D3C1"/>
</g>
<g style="mix-blend-mode:multiply" opacity="0.58">
<path d="M144.471 38.8608L195.29 39.5872C195.29 39.5872 154.463 40.5533 144.471 38.8608Z" fill="#E8D3C1"/>
</g>
<g style="mix-blend-mode:multiply" opacity="0.58">
<path d="M145.452 42.9285L196.504 43.5168C196.504 43.5168 155.488 44.403 145.452 42.9285Z" fill="#E8D3C1"/>
</g>
</g>
<path d="M150.829 0.0509033C150.829 0.0509033 66.4219 9.13778 59.54 11.1861C52.658 13.2345 54.2132 33.66 55.3905 39.9939C56.5677 46.3279 61.2041 48.1801 66.1458 48.3762C71.0874 48.5724 158.111 48.2164 158.111 48.2164C158.111 48.2164 146.382 46.0373 145.139 37.1538C143.897 28.2703 145.931 10.5179 146.331 7.51072C146.731 4.50355 150.829 0.0509033 150.829 0.0509033Z" fill="#9E6718"/>
<path d="M113.586 38.7736C112.431 30.0572 114.313 12.7987 114.698 9.85688C114.952 7.84483 116.827 5.16453 117.975 3.68274L111.936 4.40911C110.781 5.92722 109.117 8.39688 108.884 10.2927C108.514 13.1982 106.61 30.5148 107.765 39.2095C108.441 44.294 110.759 46.9961 112.583 48.3762H118.986C117.111 47.1341 114.335 44.4175 113.586 38.7736Z" fill="#FFD773"/>
<path d="M103.47 39.0714C102.315 30.5947 104.197 13.7575 104.582 10.8956C104.836 8.93436 106.697 6.34123 107.845 4.89575L101.762 5.62212C100.614 7.07486 98.9937 9.47188 98.7539 11.2951C98.3833 14.157 96.4866 30.9942 97.642 39.4709C98.3179 44.3884 100.614 47.0324 102.424 48.3835H108.826C106.937 47.185 104.219 44.5264 103.47 39.0714Z" fill="#FFD773"/>
<path d="M142.945 23.7087C143.01 22.365 143.076 21.0648 143.119 19.8517C143.119 19.0455 143.17 18.2247 143.192 17.4039C143.352 11.0409 143.526 4.45269 147.254 1.49637C148.94 0.167114 151.12 -0.268706 153.729 0.203434C161.251 1.56901 192.972 8.33877 199.839 9.79877V14.2659C195.37 13.3071 160.786 5.92722 153.097 4.52533C151.353 4.21299 150.583 4.62702 150.19 4.96841C148.01 6.69717 147.85 12.5299 147.719 17.6726C147.719 18.5079 147.676 19.336 147.647 20.1568C147.603 21.3916 147.487 23.5489 147.472 24.0792C147.436 25.2123 146.847 41.1561 149.536 42.9648C152.523 44.4175 177.333 45.6887 199.839 44.5846V49.0227C191.119 49.444 170.931 48.7612 158.162 48.2527C152.915 48.0421 148.919 47.599 147.48 46.8C141.942 43.742 142.451 33.5438 142.945 23.7087Z" fill="#87510A"/>
<g style="mix-blend-mode:multiply">
<path d="M150.089 29.6794C150.089 29.6794 150.874 40.6113 150.816 47.6353C155.009 48.0856 159.536 48.2672 159.536 48.2672C159.536 48.2672 157.618 30.1806 150.089 29.6794Z" fill="#EFD5BF"/>
</g>
<g style="mix-blend-mode:overlay" opacity="0.46">
<path d="M60.7396 12.3847C60.7396 12.3847 117.837 5.7166 127.19 4.82317C136.543 3.92973 139.711 3.10894 140.997 3.99511C142.284 4.88128 141.724 13.1474 140.997 14.3604C140.271 15.5734 134.552 15.5298 128.244 15.7187C121.936 15.9076 60.6596 18.675 58.8428 18.7259C57.0261 18.7767 57.3894 15.9293 58.0289 14.7744C58.6684 13.6195 59.446 12.5299 60.7396 12.3847Z" fill="white"/>
</g>
<path d="M199.839 81.5277C199.839 81.5277 204.112 92.997 203.974 102.447C205.111 100.771 206.157 99.0353 207.106 97.2463L212.193 101.801C212.193 101.801 209.054 80.7359 205.013 74.3294C200.973 67.9228 199.839 81.5277 199.839 81.5277Z" fill="#EE6D4A"/>
<path d="M46.8447 81.8763L62.2001 91.7549H190.828L205.042 81.8763C205.042 81.8763 142.952 79.7626 122.604 78.2445C102.256 76.7264 46.8447 81.8763 46.8447 81.8763Z" fill="#007F7C"/>
<path d="M46.8452 47.57C46.8452 47.57 198.931 48.2092 204.483 48.8484C207.899 49.9161 207.688 58.6689 207.899 66.1432C208.11 73.6176 208.328 80.7505 204.992 81.8764C201.656 83.0022 49.316 81.9563 46.8234 81.8764C44.3308 81.7965 42.623 76.9588 42.3396 69.1359C42.0562 61.3129 41.2278 47.5482 46.8452 47.57Z" fill="#00AAAC"/>
<path d="M62.8031 47.679H57.2801C56.3783 49.0313 55.9397 50.6396 56.0302 52.2623V74.0026C56.0302 76.8427 57.411 80.1622 58.4647 82.0435L65.2304 82.0943C63.262 79.983 61.9624 77.337 61.4951 74.4892C60.841 69.303 60.9428 56.1775 61.2116 53.0759C61.4224 50.5844 62.0764 48.5651 62.8031 47.679Z" fill="#4CEDE5"/>
<path d="M72.4833 47.679H66.9675C66.0896 49.0217 65.6643 50.6099 65.7539 52.2115V73.9517C65.7539 76.8572 67.1637 80.1912 68.2247 82.058L75.0049 82.1016C73.0063 79.981 71.6856 77.313 71.2115 74.4384C70.5575 69.2521 70.6592 56.1266 70.9281 53.025C71.1388 50.628 71.7711 48.6305 72.4833 47.679Z" fill="#4CEDE5"/>
<path d="M186.271 82.3267L192.986 82.2686C194.026 80.3582 195.312 77.184 195.312 74.4238V52.6836C195.371 51.2589 195.047 49.8444 194.374 48.5869L188.8 48.507C189.587 50.0625 190.042 51.7641 190.138 53.5044C190.406 56.5987 190.508 69.7242 189.854 74.9105C189.405 77.6776 188.16 80.2544 186.271 82.3267V82.3267Z" fill="#4CEDE5"/>
<path d="M176.512 82.3776H183.227C184.273 80.4745 185.596 77.2422 185.596 74.4529V52.6836C185.66 51.2079 185.31 49.7436 184.585 48.4562L179.004 48.3981C179.845 49.9682 180.329 51.7043 180.421 53.4827C180.69 56.577 180.792 69.7025 180.131 74.8888C179.687 77.6863 178.428 80.2911 176.512 82.3776Z" fill="#4CEDE5"/>
<g style="mix-blend-mode:overlay">
<path d="M46.8447 49.9161H200.907C204.468 49.9161 205.675 51.5141 205.994 54.3543C206.314 57.1944 205.137 57.681 198 57.5938C190.864 57.5067 51.5465 57.5938 46.8447 57.5938C42.1428 57.5938 43.3201 49.9161 46.8447 49.9161Z" fill="#00C1BC"/>
</g>
<path d="M131.238 201.364C131.238 201.364 31.933 181.636 24.5351 179.384C17.1372 177.132 14.8771 155.254 23.2416 152.509C31.606 149.763 126.26 143.981 126.26 143.981L236.437 150.3L131.238 201.364Z" fill="#167BA8"/>
<path d="M24.5345 179.384C31.9325 181.636 131.237 201.364 131.237 201.364L187.965 172.469L20.1379 154.971C15.6832 161.479 18.2776 177.474 24.5345 179.384Z" fill="#3989B4"/>
<path d="M233.783 152.944C213.341 154.637 140.365 160.993 130.445 166.513C118.854 172.949 122.72 198.371 132.378 199.011C140.198 199.534 208.225 185.064 233.783 179.551V152.944Z" fill="#EEE6DE"/>
<path d="M135.801 174.474C145.016 169.389 208.247 163.535 233.783 161.356V152.944C213.341 154.637 140.365 160.993 130.445 166.513C119.922 172.324 122.139 193.846 129.864 198.233C127.342 190.047 128.519 178.52 135.801 174.474Z" fill="#EFD5BF"/>
<path d="M236.436 176.508C205.311 183.256 141.818 196.621 132.945 196.585H132.538C129.973 196.41 127.487 192.873 126.339 187.766C124.733 180.59 126.027 171.706 131.615 168.605C140.437 163.702 207.702 157.426 236.436 155.123V150.286C219.075 151.673 140.314 158.276 129.268 164.385C121.274 168.83 119.69 180.169 121.63 188.82C123.294 196.258 126.79 201.044 131.652 201.371C131.804 201.371 132.545 201.415 132.742 201.415C143.279 201.415 212.135 186.691 236.436 181.425V176.508Z" fill="#0A759B"/>
<g style="mix-blend-mode:multiply">
<path d="M132.371 170.544L232.49 156.867C232.49 156.867 151.527 165.714 132.371 170.544Z" fill="#E8D3C1"/>
</g>
<g style="mix-blend-mode:multiply">
<path d="M131.172 173.341L231.291 159.663C231.291 159.663 150.328 168.503 131.172 173.341Z" fill="#E8D3C1"/>
</g>
<g style="mix-blend-mode:multiply">
<path d="M128.6 176.471L230.477 162.169C230.477 162.169 147.756 171.641 128.6 176.471Z" fill="#E8D3C1"/>
</g>
<g style="mix-blend-mode:multiply">
<path d="M128.483 179.624L230.325 164.305C230.325 164.305 147.632 174.794 128.483 179.624Z" fill="#E8D3C1"/>
</g>
<g style="mix-blend-mode:multiply">
<path d="M128.483 182.464L230.325 166.484C230.325 166.484 147.632 177.634 128.483 182.464Z" fill="#E8D3C1"/>
</g>
<g style="mix-blend-mode:multiply">
<path d="M128.483 185.115L230.325 168.322C230.325 168.322 147.632 180.292 128.483 185.115Z" fill="#E8D3C1"/>
</g>
<g style="mix-blend-mode:multiply">
<path d="M129.261 187.011L230.477 170.377C230.477 170.377 148.41 182.181 129.261 187.011Z" fill="#E8D3C1"/>
</g>
<g style="mix-blend-mode:multiply">
<path d="M129.261 189.321L230.324 172.469C230.324 172.469 148.41 184.476 129.261 189.321Z" fill="#E8D3C1"/>
</g>
<g style="mix-blend-mode:multiply">
<path d="M130.7 191.958L230.725 173.871C230.725 173.871 149.849 187.142 130.7 191.958Z" fill="#E8D3C1"/>
</g>
<g style="mix-blend-mode:multiply">
<path d="M132.371 194.297L231.284 175.622C231.284 175.622 151.527 189.466 132.371 194.297Z" fill="#E8D3C1"/>
</g>
<path d="M21.4318 156.38C21.4318 156.38 88.6744 166.273 102.678 168.322C116.682 170.37 120.061 169.774 119.581 175.622C119.102 181.469 117.169 181.433 97.2496 178.694C77.3304 175.956 25.1744 165.787 21.4318 165.184C17.6893 164.581 19.3534 156.075 21.4318 156.38Z" fill="#3C9CC6"/>
<path d="M84.7285 189.975C84.6003 189.985 84.4715 189.985 84.3433 189.975C66.3645 187.069 44.7231 182.5 38.5169 181.171C37.9326 181.047 37.3954 180.76 36.9672 180.343C36.539 179.927 36.2374 179.398 36.097 178.818C35.2467 175.273 33.7279 166.411 37.9574 160.658C38.2662 160.254 38.6758 159.938 39.1451 159.742C39.6143 159.546 40.127 159.476 40.6317 159.54L86.2255 165.118C86.5699 165.162 86.9011 165.278 87.1978 165.458C87.4945 165.639 87.75 165.879 87.9478 166.164C88.1448 166.446 88.2792 166.767 88.3418 167.106C88.4045 167.444 88.394 167.792 88.3112 168.125C86.8693 174.427 86.4594 180.92 87.0975 187.352C87.1343 187.716 87.088 188.084 86.9621 188.427C86.8363 188.771 86.6341 189.081 86.3708 189.335C85.9272 189.754 85.3382 189.983 84.7285 189.975V189.975ZM40.2611 160.099C39.9061 160.094 39.5549 160.173 39.2357 160.328C38.9164 160.483 38.6379 160.711 38.4225 160.993C34.3311 166.527 35.8209 175.186 36.6493 178.658C36.763 179.135 37.0086 179.57 37.3581 179.915C37.7077 180.259 38.147 180.498 38.626 180.605C44.8321 181.934 66.459 186.488 84.4087 189.401C84.6789 189.447 84.9562 189.43 85.2185 189.35C85.4809 189.271 85.7212 189.132 85.9203 188.943C86.1266 188.753 86.2859 188.518 86.3856 188.255C86.4852 187.993 86.5224 187.711 86.4944 187.432C85.8495 180.936 86.2668 174.379 87.7298 168.017C87.7914 167.761 87.7979 167.496 87.7491 167.238C87.7002 166.98 87.597 166.735 87.4464 166.52C87.2954 166.301 87.0993 166.116 86.8713 165.978C86.6432 165.84 86.3884 165.753 86.1238 165.721L40.5372 160.135C40.446 160.117 40.3538 160.105 40.2611 160.099Z" fill="#B6E2FF"/>
<path d="M102.561 189.299C105.495 189.299 107.874 185.982 107.874 181.89C107.874 177.798 105.495 174.481 102.561 174.481C99.6274 174.481 97.249 177.798 97.249 181.89C97.249 185.982 99.6274 189.299 102.561 189.299Z" fill="#003E60"/>
<path d="M98.5716 182.13C98.5716 178.04 100.948 174.721 103.884 174.721C103.458 174.565 103.008 174.484 102.554 174.481C99.6472 174.481 97.249 177.793 97.249 181.89C97.249 185.987 99.6254 189.321 102.576 189.321C100.272 188.478 98.5716 185.58 98.5716 182.13Z" fill="#0A759B"/>
<path d="M30.0506 174.103C32.2942 174.103 34.1129 171.564 34.1129 168.431C34.1129 165.297 32.2942 162.758 30.0506 162.758C27.807 162.758 25.9883 165.297 25.9883 168.431C25.9883 171.564 27.807 174.103 30.0506 174.103Z" fill="#003E60"/>
<path d="M26.9979 168.619C26.9979 165.489 28.8146 162.946 31.0602 162.946C30.7343 162.826 30.3902 162.762 30.0428 162.758C27.7972 162.758 25.9805 165.3 25.9805 168.431C25.9805 171.561 27.7972 174.103 30.0428 174.103C28.2914 173.472 26.9979 171.256 26.9979 168.619Z" fill="#0A759B"/>
<g style="mix-blend-mode:multiply">
<path d="M133.367 181.411C133.367 181.411 134.232 193.679 134.145 201.364C136.383 201.19 143.272 200.216 143.272 200.216C143.272 200.216 141.463 181.629 133.367 181.411Z" fill="#EFD5BF"/>
</g>
<path d="M133.367 181.367C133.367 181.367 141.623 186.604 142.088 211.308C145.954 207.299 148.628 204.771 148.628 204.771L155.605 208.853C155.605 208.853 151.012 182.704 145.605 179.036C137.669 179.878 133.367 181.367 133.367 181.367Z" fill="#EE6D4A"/>
<path d="M119.247 162.176C119.247 162.176 205.951 151.673 212.346 149.371C218.741 147.068 220.681 128.052 213.457 126.127C206.234 124.202 124.53 119.931 124.53 119.931L29.418 123.163L119.247 162.176Z" fill="#E0512F"/>
<path d="M212.346 149.371C205.951 151.688 119.247 162.191 119.247 162.191L77.0977 137.342L119.443 129.032L216.139 128.037C219.976 133.456 217.76 147.395 212.346 149.371Z" fill="#EE6D4A"/>
<path d="M31.7148 125.306C49.3521 125.734 112.329 127.536 120.919 131.807C130.918 136.775 127.583 158.915 119.247 159.961C112.496 160.804 53.7778 151.746 31.7148 148.274V125.306Z" fill="#EEE6DE"/>
<path d="M116.289 138.954C108.339 134.996 53.756 133.143 31.7148 132.57V125.306C49.3521 125.734 112.329 127.536 120.919 131.807C130.002 136.318 128.084 154.978 121.42 159.162C123.593 151.971 122.575 142.107 116.289 138.954Z" fill="#EFD5BF"/>
<path d="M29.418 145.782C56.3063 150.039 111.078 158.37 118.752 157.92H119.109C121.325 157.637 123.469 154.455 124.457 149.995C125.845 143.719 124.726 136.114 119.901 133.717C112.285 129.933 54.2279 127.906 29.418 127.369V123.192C44.41 123.512 112.401 125.219 121.928 129.955C128.847 133.39 130.198 143.102 128.527 150.664C127.073 157.165 123.585 161.559 119.385 162.06L118.934 162.097C109.836 162.627 50.3981 153.38 29.418 150.075V145.782Z" fill="#F48369"/>
<g opacity="0.58">
<g style="mix-blend-mode:multiply" opacity="0.58">
<path d="M119.247 135.381L32.8115 128.625C32.8115 128.625 102.714 132.185 119.247 135.381Z" fill="#E8D3C1"/>
</g>
<g style="mix-blend-mode:multiply" opacity="0.58">
<path d="M120.286 137.749L33.8652 130.993C33.8652 130.993 103.753 134.531 120.286 137.749Z" fill="#E8D3C1"/>
</g>
<g style="mix-blend-mode:multiply" opacity="0.58">
<path d="M122.509 140.305L34.5771 133.1C34.5771 133.1 105.976 137.109 122.509 140.305Z" fill="#E8D3C1"/>
</g>
<g style="mix-blend-mode:multiply" opacity="0.58">
<path d="M122.612 143.029L34.6797 134.93C34.6797 134.93 106.079 139.826 122.612 143.029Z" fill="#E8D3C1"/>
</g>
<g style="mix-blend-mode:multiply" opacity="0.58">
<path d="M122.612 145.477L34.6797 136.826C34.6797 136.826 106.079 142.274 122.612 145.477Z" fill="#E8D3C1"/>
</g>
<g style="mix-blend-mode:multiply" opacity="0.58">
<path d="M122.611 147.765L34.7012 138.402C34.7012 138.402 106.079 144.569 122.611 147.765Z" fill="#E8D3C1"/>
</g>
<g style="mix-blend-mode:multiply" opacity="0.58">
<path d="M121.942 149.436L34.5625 140.182C34.5625 140.182 105.402 146.24 121.942 149.436Z" fill="#E8D3C1"/>
</g>
<g style="mix-blend-mode:multiply" opacity="0.58">
<path d="M121.943 151.419L34.7373 141.976C34.7373 141.976 105.403 148.216 121.943 151.419Z" fill="#E8D3C1"/>
</g>
<g style="mix-blend-mode:multiply" opacity="0.58">
<path d="M120.7 153.78L34.3525 143.218C34.3525 143.218 104.16 150.584 120.7 153.78Z" fill="#E8D3C1"/>
</g>
<g style="mix-blend-mode:multiply" opacity="0.58">
<path d="M119.246 155.908L33.8652 144.758C33.8652 144.758 102.714 152.683 119.246 155.908Z" fill="#E8D3C1"/>
</g>
</g>
<path d="M215.115 130.049C215.115 130.049 160.677 134.284 146.419 135.7C134.145 136.928 130.671 136.078 131.085 141.112C131.499 146.146 138.527 145.078 155.953 143.218C175.305 141.148 211.786 137.654 215.02 136.95C218.254 136.245 216.91 129.679 215.115 130.049Z" fill="#F48369"/>
<path d="M206.641 150.533C206.577 150.528 206.517 150.504 206.468 150.463C206.418 150.423 206.382 150.369 206.365 150.308C206.353 150.272 206.348 150.235 206.352 150.198C206.355 150.161 206.367 150.125 206.385 150.092C206.404 150.06 206.429 150.032 206.46 150.01C206.49 149.989 206.524 149.974 206.561 149.966C207.491 149.763 210.478 147.845 210.921 145.775C211.597 142.086 212.061 138.361 212.309 134.618C212.447 133.555 212.285 132.474 211.842 131.498C211.399 130.522 210.693 129.688 209.802 129.09C209.735 129.053 209.684 128.992 209.66 128.92C209.636 128.847 209.64 128.768 209.671 128.698C209.689 128.665 209.713 128.636 209.742 128.612C209.771 128.589 209.805 128.572 209.841 128.562C209.878 128.552 209.916 128.551 209.953 128.556C209.99 128.562 210.025 128.576 210.056 128.596C211.04 129.257 211.823 130.174 212.32 131.249C212.817 132.324 213.01 133.514 212.876 134.691C212.628 138.465 212.162 142.222 211.481 145.942C210.972 148.187 207.847 150.3 206.692 150.526L206.641 150.533Z" fill="#F9A0A0"/>
<path d="M202.906 150.925C202.842 150.919 202.782 150.895 202.733 150.854C202.684 150.814 202.648 150.761 202.629 150.7C202.617 150.665 202.613 150.627 202.616 150.59C202.62 150.553 202.631 150.517 202.65 150.485C202.669 150.452 202.694 150.424 202.724 150.403C202.754 150.381 202.789 150.366 202.826 150.358C203.756 150.155 206.743 148.237 207.186 146.167C207.865 142.478 208.329 138.753 208.574 135.01C208.85 131.11 206.183 129.548 206.067 129.483C206.001 129.444 205.951 129.383 205.927 129.311C205.903 129.239 205.906 129.16 205.936 129.09C205.953 129.057 205.977 129.028 206.007 129.004C206.036 128.981 206.07 128.964 206.106 128.954C206.142 128.945 206.18 128.943 206.217 128.949C206.254 128.955 206.29 128.968 206.321 128.989C207.307 129.647 208.092 130.564 208.589 131.639C209.087 132.714 209.278 133.906 209.141 135.083C208.896 138.857 208.431 142.614 207.745 146.334C207.244 148.579 204.112 150.693 202.964 150.918L202.906 150.925Z" fill="#F9A0A0"/>
<path d="M143.119 141.148C143.461 148.121 142.451 153.177 139.544 159.678L146.862 158.755C148.845 153.471 149.867 147.874 149.878 142.23C149.921 137.756 148.642 134.683 147.247 132.657L140.452 133.107C142.034 135.506 142.954 138.28 143.119 141.148V141.148Z" fill="#CC3A1D"/>
<path d="M153.809 140.451C154.236 146.577 153.111 152.713 150.539 158.29L157.806 157.361C159.591 152.273 160.519 146.924 160.553 141.533C160.597 137.044 159.31 133.972 157.915 131.945L151.12 132.395C152.715 134.795 153.643 137.575 153.809 140.451Z" fill="#CC3A1D"/>
<g style="mix-blend-mode:multiply">
<path d="M115.824 141.983C115.824 141.983 115.025 154.811 115.097 161.973C113.012 161.813 106.377 161.181 106.377 161.181C106.377 161.181 108.274 142.187 115.824 141.983Z" fill="#EFD5BF"/>
</g>
<path d="M115.824 141.983C115.824 141.983 108.121 147.744 107.678 170.769C104.044 167.029 101.595 164.661 101.595 164.661L95.0547 168.46C95.0547 168.46 99.335 144.09 104.371 140.669C111.813 141.482 115.824 141.983 115.824 141.983Z" fill="#FFBC00"/>
<path d="M58.3486 85.501V118.507C58.3486 118.507 96.6027 123.047 104.902 120.723C113.201 118.398 109.32 107.096 109.32 101.779C109.32 96.4619 109.211 83.5034 107.867 80.4091C106.522 77.3148 100.222 78.6368 92.4677 79.2978C84.7137 79.9588 58.3486 85.501 58.3486 85.501Z" fill="#EEE6DE"/>
<path d="M109.32 101.779C109.32 96.4619 109.211 83.5034 107.867 80.4091C106.522 77.3148 100.222 78.6368 92.4679 79.2978C84.7139 79.9588 58.3125 85.501 58.3125 85.501V91.0286C65.4125 89.5759 83.8419 86.7285 90.0044 86.1983C97.7584 85.5373 103.23 84.7455 104.539 87.8181C105.847 90.8906 106.312 102.607 106.312 107.924C106.312 110.829 107.482 115.587 107.155 119.64C112.387 115.958 109.32 106.515 109.32 101.779Z" fill="#EFD5BF"/>
<g opacity="0.58">
<g style="mix-blend-mode:multiply" opacity="0.58">
<path d="M109.117 80.9176L58.7119 88.1813C58.7119 88.1813 99.1679 80.8086 109.117 80.9176Z" fill="#E8D3C1"/>
</g>
<g style="mix-blend-mode:multiply" opacity="0.58">
<path d="M110.431 99.9121L59.5615 101.859C59.5615 101.859 100.541 98.8298 110.431 99.9121Z" fill="#E8D3C1"/>
</g>
<g style="mix-blend-mode:multiply" opacity="0.58">
<path d="M110.432 97.7984L59.6201 101.067C59.6201 101.067 100.519 96.9122 110.432 97.7984Z" fill="#E8D3C1"/>
</g>
<g style="mix-blend-mode:multiply" opacity="0.58">
<path d="M110.432 96.5273L59.6201 99.8032C59.6201 99.8032 100.519 95.6193 110.432 96.5273Z" fill="#E8D3C1"/>
</g>
<g style="mix-blend-mode:multiply" opacity="0.58">
<path d="M110.417 94.8494L59.6348 98.6338C59.6348 98.6338 100.49 94.0576 110.417 94.8494Z" fill="#E8D3C1"/>
</g>
<g style="mix-blend-mode:multiply" opacity="0.58">
<path d="M110.374 92.6194L59.7002 97.4788C59.7002 97.4788 100.432 92.0383 110.374 92.6194Z" fill="#E8D3C1"/>
</g>
<g style="mix-blend-mode:multiply" opacity="0.58">
<path d="M110.374 91.0141L59.7002 95.8736C59.7002 95.8736 100.432 90.4331 110.374 91.0141Z" fill="#E8D3C1"/>
</g>
<g style="mix-blend-mode:multiply" opacity="0.58">
<path d="M110.345 89.0819L59.7002 94.4062C59.7002 94.4062 100.396 88.5589 110.345 89.0819Z" fill="#E8D3C1"/>
</g>
<g style="mix-blend-mode:multiply" opacity="0.58">
<path d="M110.345 87.2152L59.7002 92.5758C59.7002 92.5758 100.396 86.7285 110.345 87.2152Z" fill="#E8D3C1"/>
</g>
<g style="mix-blend-mode:multiply" opacity="0.58">
<path d="M110.315 85.3339L59.7363 91.2611C59.7363 91.2611 100.396 84.9562 110.315 85.3339Z" fill="#E8D3C1"/>
</g>
<g style="mix-blend-mode:multiply" opacity="0.58">
<path d="M110.57 83.271L59.998 89.1836C59.998 89.1836 100.592 82.8787 110.57 83.271Z" fill="#E8D3C1"/>
</g>
<g style="mix-blend-mode:multiply" opacity="0.58">
<path d="M108.956 117.338L58.9219 114.665C58.9219 114.665 99.0726 118.362 108.956 117.338Z" fill="#E8D3C1"/>
</g>
<g style="mix-blend-mode:multiply" opacity="0.58">
<path d="M110.236 101.488L59.7949 102.883C59.7949 102.883 100.295 102.926 110.236 101.488Z" fill="#E8D3C1"/>
</g>
<g style="mix-blend-mode:multiply" opacity="0.58">
<path d="M110.221 103.181L59.8086 104.06C59.8086 104.06 100.395 104.895 110.221 103.181Z" fill="#E8D3C1"/>
</g>
<g style="mix-blend-mode:multiply" opacity="0.58">
<path d="M110.177 105.433L59.8594 105.215C59.8594 105.215 100.315 106.936 110.177 105.433Z" fill="#E8D3C1"/>
</g>
<g style="mix-blend-mode:multiply" opacity="0.58">
<path d="M110.177 107.045L59.8594 106.834C59.8594 106.834 100.315 108.556 110.177 107.045Z" fill="#E8D3C1"/>
</g>
<g style="mix-blend-mode:multiply" opacity="0.58">
<path d="M110.155 109.035L59.8887 108.309C59.8887 108.309 100.287 110.437 110.155 109.035Z" fill="#E8D3C1"/>
</g>
<g style="mix-blend-mode:multiply" opacity="0.58">
<path d="M110.155 110.873L59.8887 110.147C59.8887 110.147 100.294 112.326 110.155 110.873Z" fill="#E8D3C1"/>
</g>
<g style="mix-blend-mode:multiply" opacity="0.58">
<path d="M110.133 112.776L59.9248 111.49C59.9248 111.49 100.257 114.076 110.133 112.776Z" fill="#E8D3C1"/>
</g>
<g style="mix-blend-mode:multiply" opacity="0.58">
<path d="M110.352 114.854L60.1504 113.568C60.1504 113.568 100.483 116.154 110.352 114.854Z" fill="#E8D3C1"/>
</g>
<g style="mix-blend-mode:multiply" opacity="0.58">
<path d="M109.356 118.899L58.4863 116.546C58.4863 116.546 99.4583 119.967 109.356 118.899Z" fill="#E8D3C1"/>
</g>
</g>
<path d="M104.132 75.6732C104.132 75.6732 187.507 88.1886 194.302 90.5347C201.097 92.8809 200.203 110.336 199.033 116.64C197.863 122.945 193.27 124.631 188.394 124.631C183.518 124.631 102.075 123.592 102.075 123.592C102.075 123.592 108.456 122.03 109.698 113.139C110.941 104.249 108.972 86.4017 108.557 83.3582C108.143 80.3147 104.132 75.6732 104.132 75.6732Z" fill="#FFBC00"/>
<path d="M139.806 86.6703C140.169 89.4959 142.022 106.093 140.867 114.36C139.871 121.463 135.358 123.526 134.108 123.962L141.085 124.049C142.931 123.025 145.852 120.555 146.622 115.006C147.778 106.74 145.896 90.1424 145.561 87.3241C145.329 85.5009 143.686 83.0748 142.553 81.5712L136.579 80.6415C137.713 82.1015 139.559 84.7237 139.806 86.6703Z" fill="#FFD773"/>
<path d="M149.813 88.065C150.176 90.8179 152.029 106.994 150.874 115.05C150.031 120.94 146.637 123.265 144.871 124.1L151.63 124.18C153.454 123.025 155.932 120.585 156.629 115.682C157.785 107.626 155.903 91.4499 155.576 88.7042C155.343 86.9536 153.744 84.622 152.611 83.162L146.601 82.2104C147.72 83.6341 149.551 86.1764 149.813 88.065Z" fill="#FFD773"/>
<path d="M111.878 99.7014C111.82 98.3431 111.754 97.0356 111.711 95.8226L111.645 93.3675C111.493 86.9682 111.34 80.3582 107.656 77.2494C105.991 75.8402 103.84 75.3172 101.261 75.6877C93.8553 76.7336 62.4614 82.2613 55.6885 83.4525V87.9488C60.1141 87.1716 94.2841 81.1645 101.893 80.0749C103.608 79.828 104.371 80.271 104.8 80.627C106.98 82.4574 107.103 88.3047 107.227 93.4692C107.227 94.3118 107.263 95.1471 107.292 95.9679C107.329 97.21 107.445 99.3746 107.459 99.9121C107.459 101.045 108.055 117.062 105.395 118.732C102.438 120.076 77.9331 118.812 55.6957 116.8V121.253C64.3436 122.03 84.2555 123.686 96.8712 123.686C102.053 123.686 106.006 123.403 107.423 122.669C112.844 119.851 112.357 109.602 111.878 99.7014Z" fill="#F7A500"/>
<g style="mix-blend-mode:multiply">
<path d="M104.814 105.418C104.814 105.418 104.022 116.35 104.088 123.403C99.9454 123.686 95.4834 123.686 95.4834 123.686C95.4834 123.686 97.3801 105.614 104.814 105.418Z" fill="#EFD5BF"/>
</g>
<path d="M104.815 105.411C104.815 105.411 96.763 112.043 96.3124 134.843C92.7661 131.698 90.3316 129.759 90.3316 129.759L83.9365 134.48C83.9365 134.48 88.4421 109.551 93.3838 105.425C97.1909 105.206 101.007 105.201 104.815 105.411V105.411Z" fill="#3989B4"/>
<g style="mix-blend-mode:overlay" opacity="0.37">
<path d="M112.75 79.4067C112.75 79.4067 188.328 91.261 191.039 91.755C193.749 92.2489 194.243 94.9655 194.817 97.0284C195.391 99.0913 193.175 98.2414 188.619 97.8129C184.062 97.3843 120.984 89.3725 117.568 88.8931C114.153 88.4137 113.651 87.1643 113.077 85.2976C112.503 83.4308 111.689 80.6633 111.798 80.0895C111.907 79.5157 112.14 79.3123 112.75 79.4067Z" fill="white"/>
</g>
<path d="M117.575 123.548C117.511 123.549 117.448 123.533 117.392 123.503C117.336 123.472 117.289 123.428 117.255 123.374C117.227 123.332 117.206 123.285 117.196 123.235C117.185 123.185 117.185 123.134 117.194 123.084C117.204 123.034 117.223 122.986 117.251 122.944C117.279 122.901 117.315 122.865 117.357 122.836C118.026 122.393 120.577 118.137 120.773 113.553C120.969 108.97 120.962 98.946 120.773 90.4693C120.584 82.2395 117.902 79.2324 117.866 79.2033C117.793 79.1298 117.752 79.0306 117.752 78.9273C117.752 78.8239 117.793 78.7247 117.866 78.6513C117.902 78.6155 117.944 78.5871 117.991 78.5677C118.038 78.5483 118.088 78.5383 118.138 78.5383C118.189 78.5383 118.239 78.5483 118.286 78.5677C118.333 78.5871 118.375 78.6155 118.411 78.6513C118.527 78.7748 121.318 81.8618 121.521 90.433C121.725 99.0041 121.71 109.079 121.521 113.561C121.332 118.042 118.752 122.8 117.764 123.461C117.709 123.505 117.645 123.535 117.575 123.548V123.548Z" fill="#CC8200"/>
<path d="M121.878 123.984C121.788 123.995 121.697 123.973 121.621 123.924C121.545 123.874 121.49 123.799 121.464 123.712C121.437 123.626 121.443 123.532 121.479 123.449C121.515 123.366 121.579 123.298 121.66 123.258C122.328 122.815 124.879 118.551 125.075 113.967C125.271 109.5 125.271 99.3601 125.075 90.8907C124.886 82.6536 122.168 79.6465 122.168 79.6174C122.133 79.5817 122.104 79.5392 122.085 79.4925C122.065 79.4457 122.055 79.3956 122.055 79.345C122.055 79.2944 122.065 79.2443 122.085 79.1976C122.104 79.1509 122.133 79.1084 122.168 79.0726C122.204 79.0368 122.247 79.0084 122.293 78.9891C122.34 78.9697 122.39 78.9597 122.441 78.9597C122.491 78.9597 122.542 78.9697 122.588 78.9891C122.635 79.0084 122.678 79.0368 122.713 79.0726C122.83 79.2034 125.62 82.2832 125.824 90.8543C126.027 99.4255 126.013 109.5 125.824 113.989C125.635 118.478 123.055 123.221 122.067 123.89C122.013 123.938 121.948 123.97 121.878 123.984Z" fill="#CC8200"/>
<path d="M150.089 29.6723C150.089 29.6723 158.243 36.6091 158.657 59.3299C162.247 56.3373 164.718 54.4705 164.718 54.4705L171.185 59.4389C171.185 59.4389 166.651 34.4009 161.644 30.0863C157.803 29.7335 153.945 29.5953 150.089 29.6723V29.6723Z" fill="#FFBC00"/>
<path d="M129.028 141.489C129.028 141.489 149.776 155.022 161.323 191.144C158.773 197.02 162.45 204.582 170.531 201.473C176.126 200.078 207.172 191.834 228.726 219.799C260.636 206.957 297.037 194.878 297.037 194.878C297.037 194.878 298.388 191.144 298.156 190.984C297.167 190.258 292.873 192.858 290.707 191.878C278.309 186.285 250.556 175.171 233.573 178.876C226.945 180.278 223.399 179.261 223.399 175.629C223.399 171.997 212.135 141.322 203.502 133.412C182.144 133.623 148.395 140.16 135.125 140.364C134.653 140.364 131.543 137.32 130.678 137.458C130.126 137.553 129.028 141.489 129.028 141.489Z" fill="#87510A"/>
<path d="M130.7 137.458C130.7 137.458 153.323 153.62 164.856 189.757C162.312 195.633 164.856 200.899 172.9 197.798C178.496 196.396 209.236 190.534 230.31 216.197C262.22 203.354 298.142 190.999 298.142 190.999C298.142 190.999 258.965 170.66 236.582 175.578C229.954 176.98 226.408 175.97 226.408 172.331C226.408 168.692 215.144 138.025 206.511 130.115C179.819 130.361 130.7 137.458 130.7 137.458Z" fill="#6D3E06"/>
<path d="M207.273 124.601L141.87 128.96C139.355 136.913 168.133 175.607 168.133 175.607C169.585 180.106 171.403 184.479 173.569 188.682L230.252 172.288C224.22 146.727 207.273 124.601 207.273 124.601Z" fill="#EADBCE"/>
<path d="M230.325 172.469L230.281 172.295L173.598 188.689L173.903 189.299C204.519 183.583 232.498 204.553 232.498 204.553C232.498 204.553 246.552 200.035 300.082 179.617C286.347 172.898 241.901 169.709 230.325 172.469Z" fill="#E5D1C3"/>
<path d="M233.813 199.904C233.813 199.904 210.028 180.423 175.248 188.093C171.178 170.66 152.952 133.972 141.913 128.945C138.425 131.727 134.123 134.814 134.123 134.814C134.123 134.814 159.1 158.058 166.462 189.292C172.014 189.059 174.732 195.154 174.732 195.154C174.732 195.154 193.561 191.188 208.197 195.742C222.833 200.296 232.033 212.688 232.033 212.688L232.222 212.623L299.283 188.478L300.06 179.617L233.813 199.904Z" fill="#D6B8A1"/>
<path d="M233.784 199.911C233.784 199.911 210.028 180.423 175.248 188.093C171.178 170.66 152.952 133.972 141.913 128.945C138.425 131.727 134.123 134.814 134.123 134.814C134.123 134.814 159.1 158.058 166.462 189.292C172.014 189.059 174.732 195.154 174.732 195.154C174.732 195.154 193.561 191.188 208.197 195.742C222.833 200.296 232.033 212.688 232.033 212.688L232.222 212.623L233.828 199.897L233.784 199.911Z" fill="#DBC2AD"/>
<path d="M175.247 188.689C175.247 188.689 200.348 178.164 233.827 194.296C269.436 184.411 297.342 175.592 297.342 175.592C297.342 175.592 259.647 165.358 230.339 172.469C201.031 179.58 178.154 186.75 175.247 188.689Z" fill="#EADBCE"/>
<path d="M175.247 188.093C175.247 188.093 177.318 153.446 151.629 124.173C168.271 122.226 215.943 121.376 215.943 121.376C215.943 121.376 231.545 149.472 230.339 172.462C204.512 179.014 175.247 188.093 175.247 188.093Z" fill="#EEE6DE"/>
<path d="M235.114 171.467C235.114 171.467 190.327 183.445 180.712 187.091C171.098 190.737 171.745 213.603 171.745 213.603L167.61 207.662L163.736 211.294C163.736 211.294 165.393 192.321 174.637 185.776C183.881 179.232 226.517 171.438 235.114 171.467Z" fill="#FFBC00"/>
<g style="mix-blend-mode:multiply">
<path d="M222.229 166.077C216.443 166.048 210.665 166.503 204.955 167.435C205.269 162.201 204.701 156.952 203.276 151.906C199.49 137.967 190.922 128.168 184.149 130.006C177.376 131.843 174.942 144.635 178.728 158.566C181.351 168.213 186.257 175.869 191.278 179.072C196.263 182.508 208.239 184.926 222.229 184.926C240.694 184.926 255.657 180.713 255.657 175.484C255.657 170.254 240.694 166.077 222.229 166.077Z" fill="#EEE6DE"/>
</g>
<path d="M255.345 119.226C259.86 125.406 262.44 132.785 262.759 140.43C263.078 148.075 261.122 155.643 257.137 162.177C253.153 168.711 247.319 173.917 240.375 177.137C233.43 180.357 225.686 181.446 218.122 180.266C210.558 179.086 203.513 175.691 197.88 170.51C192.247 165.328 188.277 158.593 186.473 151.157C184.67 143.72 185.113 135.916 187.747 128.732C190.381 121.547 195.087 115.304 201.271 110.793C209.561 104.745 219.915 102.237 230.055 103.818C240.196 105.399 249.293 110.942 255.345 119.226Z" fill="#003E60"/>
<g style="mix-blend-mode:multiply">
<g style="mix-blend-mode:multiply">
<path d="M228.654 164.544C228.626 164.476 228.591 164.411 228.552 164.348H228.516L228.654 164.544Z" fill="#C4C4C3"/>
</g>
</g>
<path d="M192.688 121.529C193.001 121.246 193.328 121.202 193.647 120.955C194.279 120.356 194.82 119.668 195.253 118.914C195.58 118.493 196.554 117.156 197.172 117.548C197.172 117.744 196.845 118.275 197.027 118.478C197.208 118.681 197.666 118.326 197.862 118.289C197.815 118.728 197.835 119.171 197.92 119.604C198.538 119.684 198.538 118.979 198.604 118.558C198.648 118.092 198.792 117.642 199.025 117.236C199.25 116.928 199.427 116.588 199.548 116.226C199.605 115.8 199.715 115.383 199.875 114.984C200.332 114.299 200.844 113.652 201.409 113.052C201.699 112.703 202.092 112.464 202.382 112.137C202.673 111.81 202.971 111.36 203.291 110.989C203.756 110.459 204.664 109.326 205.471 109.442C205.173 109.943 204.417 110.241 204.156 110.764C203.974 111.12 204.156 111.178 203.785 111.454C203.414 111.73 203.058 111.781 203.102 112.224C203.305 112.224 203.509 112.18 203.603 112.362C204.003 112.362 204.33 111.766 204.606 112.093C204.882 112.42 204.257 112.82 204.33 113.147C204.424 113.582 205.057 112.783 205.144 112.594C205.249 112.202 205.391 111.821 205.565 111.454C205.927 111.077 206.315 110.728 206.728 110.408C207.005 110.099 207.345 109.851 207.724 109.682C208.188 109.489 208.642 109.271 209.083 109.028C209.366 108.861 209.664 108.498 210.006 108.541L210.056 108.636C210.26 108.469 210.543 108.316 210.747 108.171C210.95 108.026 211.183 107.771 211.35 107.67C212.015 107.321 212.702 107.016 213.407 106.754C213.799 106.58 213.995 106.188 214.38 106.144C214.54 106.144 214.606 106.217 214.831 106.144C215.056 106.072 215.151 105.861 215.289 105.774C215.587 105.585 217.469 105.316 217.222 104.88C216.975 104.445 214.969 104.88 214.584 104.88C213.901 104.914 213.222 104.992 212.549 105.113C206.535 107.004 201.067 110.321 196.612 114.781C195.246 116.244 193.967 117.787 192.783 119.401C192.456 119.836 192.114 120.265 191.794 120.694C191.409 121.267 191.068 121.856 190.69 122.451C190.532 122.81 190.415 123.185 190.341 123.57C190.828 123.134 191.365 122.742 191.867 122.328C192.158 122.081 192.383 121.769 192.688 121.529Z" fill="#3989B4"/>
<path d="M213.704 112.362C213.239 112.217 213.116 112.638 212.767 112.754V112.5C212.541 112.5 212.315 112.514 212.091 112.544C212.077 112.394 212.077 112.243 212.091 112.093C212.091 112.057 212.229 112.028 212.273 111.999C212.316 111.97 212.207 111.883 212.229 111.817C212.44 111.65 212.389 111.578 212.411 111.338C212.369 111.286 212.323 111.237 212.273 111.193C212.098 111.251 211.684 111.425 211.612 111.461C211.539 111.498 211.168 111.381 211.176 111.766C210.846 111.826 210.526 111.929 210.224 112.072C209.889 112.645 210.739 112.413 210.485 112.892C210.347 112.802 210.189 112.746 210.024 112.729C209.86 112.713 209.694 112.736 209.54 112.798C209.325 112.897 209.094 112.959 208.857 112.979C209.01 113.51 208.857 113.444 208.661 113.815C208.596 113.909 208.407 113.887 208.312 114.018C208.218 114.149 208.385 114.403 208.312 114.541C207.993 114.984 206.728 115.05 207.171 115.849C207.564 115.493 207.993 116.023 208.327 115.573C208.574 115.718 209.41 114.999 209.584 114.774C209.758 114.548 209.758 114.243 210.049 114.047C210.136 113.996 210.565 114.047 210.725 113.989C210.601 114.527 209.678 114.933 209.613 115.442C209.548 115.95 209.962 115.718 210.187 115.587C210.412 115.456 210.369 114.752 210.681 115.369C211.081 115.224 211.713 114.919 211.83 114.49C211.897 114.586 211.99 114.661 212.098 114.706C212.206 114.751 212.325 114.764 212.44 114.745C212.542 114.367 213.007 114.309 212.941 113.808C213.036 113.843 213.126 113.89 213.21 113.946C213.289 113.846 213.327 113.719 213.316 113.593C213.305 113.466 213.247 113.348 213.152 113.263C213.552 113.168 213.654 112.733 213.704 112.362Z" fill="#3989B4"/>
<path d="M228.421 164.225C228.399 164.155 228.367 164.089 228.326 164.029H228.29L228.421 164.225Z" fill="url(#paint0_radial_78_657)"/>
<path d="M260.498 128.923C257.777 121.374 252.774 114.858 246.183 110.276C239.592 105.695 231.739 103.277 223.712 103.355C223.413 103.48 223.159 103.693 222.985 103.965C222.767 104.35 222.796 104.198 222.985 104.496C223.174 104.793 224.155 104.742 224.315 104.96C224.896 105.73 223.494 105.447 223.704 106.014C223.464 106.115 222.505 105.883 223.137 106.537C223.094 106.537 223.007 106.537 222.97 106.595C223.057 107.278 223.595 107.052 224.126 107.132C224.787 107.227 225.129 107.655 224.46 108.091C224.7 108.418 224.802 108.984 224.278 109.05C224.06 108.418 223.879 109.122 223.661 109.05C223.443 108.977 223.203 108.817 223.486 108.483C223.162 108.523 222.834 108.475 222.534 108.345C222.607 108.309 222.745 108.193 222.818 108.156C222.6 108.156 222.127 108.302 221.982 108.156C221.706 107.895 222.04 107.713 222.265 107.67C221.979 107.642 221.698 107.566 221.437 107.445C221.648 107.241 221.96 107.154 222.164 106.893C221.931 106.617 221.27 106.696 220.935 106.675C220.502 106.566 220.059 106.502 219.613 106.486C219.152 106.502 218.7 106.614 218.286 106.815C217.872 107.017 217.504 107.303 217.207 107.655C216.597 108.483 215.718 108.462 214.867 109.043C214.308 109.428 213.341 110.299 213.414 111.011C213.465 111.076 213.53 110.975 213.545 110.975C213.349 111.796 214.599 111.316 214.235 110.619C214.381 110.691 214.49 110.619 214.642 110.75C214.802 110.553 215.449 109.355 215.616 110.321C215.979 110.321 216.008 109.936 216.415 110.001C216.361 110.564 216.347 111.129 216.372 111.694C216.975 111.854 217.862 111.084 217.607 110.488C218.334 110.321 217.723 109.616 217.927 109.152C218.063 108.929 218.23 108.726 218.421 108.549C218.639 108.367 218.675 108.135 219.097 108.215C219.17 108.672 218.697 108.89 218.777 109.355C219.547 109.435 219.468 109.892 220.281 109.522C220.768 109.304 221.277 109.035 221.248 109.907C221.706 110.074 222.244 109.842 222.701 109.987C222.883 110.045 222.927 110.256 223.057 110.321C223.188 110.386 223.617 110.444 223.646 110.481C224.656 111.665 222.273 111.069 222.193 111.149C221.946 110.655 220.986 111.04 220.797 111.418C220.529 111.955 221.233 112.188 220.376 112.202C220.122 112.202 220.042 112.035 219.686 112.166C219.453 112.26 219.337 112.493 219.082 112.602C218.828 112.711 218.494 112.674 218.261 112.74C218.029 112.805 217.578 113.067 217.433 113.067C216.989 113.067 216.641 112.573 216.059 112.74C215.638 112.856 215.689 113.045 215.369 113.27C215.049 113.495 214.795 113.357 214.562 113.503C214.01 113.858 214.279 114.512 213.945 114.955C213.806 115.144 213.523 115.137 213.363 115.326C213.203 115.515 213.218 115.82 213.022 116.052C212.75 116.06 212.48 116.021 212.222 115.936C211.873 116.423 210.936 115.783 210.638 116.531C210.725 116.525 210.813 116.525 210.9 116.531C210.798 116.633 210.776 116.822 210.711 116.916C211.902 116.873 211.278 118.231 210.631 118.587C210.398 118.333 209.853 118.761 209.533 118.849C209.403 118.849 209.359 119.052 209.257 119.066C209.156 119.081 209.083 118.899 208.981 118.914C208.647 118.958 208.414 119.059 208.182 118.834C207.926 119.091 207.73 119.401 207.608 119.742C207.443 120.13 207.345 120.542 207.317 120.962C207.215 121.652 206.082 123.141 207.593 122.887C207.956 122.739 208.304 122.556 208.632 122.342C208.77 122.277 208.792 122.074 208.908 122.023C209.025 121.972 209.206 122.066 209.323 122.023C209.571 121.947 209.804 121.829 210.013 121.674C210.289 121.413 210.478 121.115 210.74 120.832C211.029 120.55 211.253 120.208 211.394 119.829C212.847 119.895 211.714 118.812 212.629 118.464C213.109 118.282 213.356 118.732 213.836 118.464C214.054 118.326 213.995 118.042 214.177 117.904C214.359 117.766 214.54 117.861 214.729 117.774C215.202 117.57 215.216 117.418 215.776 117.585C215.921 117.585 216.03 117.788 216.19 117.853C216.35 117.919 216.561 117.853 216.757 117.912C217.164 118.035 218.537 119.125 218.654 118.006C218.087 118.006 216.931 117.781 217.164 116.975C218.486 116.415 219.242 117.41 220.18 117.991C220.635 118.225 221.019 118.576 221.292 119.008C221.539 119.539 221.292 120.236 222.156 120.047C222.209 119.898 222.251 119.745 222.28 119.589C222.28 119.546 222.193 119.488 222.178 119.451C222.752 119.19 222.178 119.066 222.178 118.82C222.178 118.573 221.946 118.754 222.018 118.456C222.018 118.333 222.454 118.355 222.505 118.188C222.629 117.774 221.946 117.766 222.592 117.498C222.948 117.352 223.414 117.461 223.217 117.912C223.325 117.951 223.414 118.03 223.465 118.133C223.516 118.235 223.526 118.354 223.494 118.464H223.748C223.85 118.907 223.581 119.691 224.089 119.916C224.079 120.023 224.079 120.13 224.089 120.236C224.693 120.323 225.049 120.004 225.594 119.829C226.052 119.625 226.546 119.509 227.047 119.488C227.345 119.553 227.272 119.844 227.599 119.822C227.81 119.822 228.028 119.415 228.195 119.335C229.053 118.921 228.646 119.517 228.922 120.062C228.826 120.048 228.731 120.026 228.639 119.996C228.842 120.163 229.104 120.301 229.285 120.454C228.938 120.46 228.591 120.44 228.246 120.396C228.501 120.461 229.191 120.65 229.162 121.122C229.295 121.129 229.428 121.129 229.562 121.122C229.562 121.187 229.562 121.253 229.562 121.318C229.511 121.385 229.464 121.455 229.423 121.529H229.096C229.096 121.834 228.9 121.936 228.624 121.914C228.588 121.863 228.559 121.79 228.522 121.732C228.203 121.957 226.691 122.618 226.604 122.074C226.386 122.074 226.291 121.957 226.081 122.074C226.027 121.951 225.937 121.847 225.823 121.777C225.708 121.707 225.575 121.673 225.441 121.681C225.245 121.943 225.398 122.248 225.259 122.451C225.121 122.655 224.773 122.72 224.634 123.032C224.717 123.115 224.763 123.228 224.763 123.345C224.763 123.462 224.717 123.574 224.634 123.657C224.118 123.657 224.278 123.127 223.951 122.931C223.813 122.851 223.639 122.974 223.479 122.931C223.263 122.819 223.04 122.722 222.81 122.64C221.459 122.451 222.76 124.042 221.778 124.158C221.648 124.049 219.242 125.248 219.489 124.325C218.763 124.238 219.424 123.897 219.242 123.599C219.061 123.301 218.574 123.446 218.261 123.461C217.949 123.476 216.132 123.548 216.735 122.582C216.655 122.582 216.568 122.509 216.481 122.488C216.604 121.936 216.35 121.761 216.117 121.34C215.74 121.166 215.572 121.493 215.238 121.609C214.87 121.684 214.494 121.711 214.119 121.689C213.654 121.689 212.477 121.616 212.2 122.212C211.489 122.338 210.839 122.692 210.347 123.221C209.882 123.57 209.955 123.599 209.439 123.439C209.126 123.345 208.712 122.873 208.48 123.439C208.08 123.359 207.971 123.577 207.753 123.795C207.514 123.991 207.288 124.202 207.077 124.427C206.794 124.892 206.757 125.88 206.183 126.141C206.227 126.519 205.747 126.868 205.551 127.158C205.283 127.543 204.902 127.835 204.461 127.994C204.497 128.357 203.909 128.894 203.633 129.134C203.72 129.134 203.8 129.214 203.894 129.236C203.8 129.766 203 130.238 202.811 130.79C202.928 130.79 203.087 130.826 203.204 130.79C203.16 131.19 203.473 131.516 203.269 131.865C202.76 131.865 202.63 132.352 202.194 132.439C202.274 132.664 202.143 132.65 202.375 132.788C202.158 133.158 202.043 133.579 202.041 134.008C202.135 134.582 202.419 134.553 202.201 135.177C201.91 135.998 201.256 136.528 201.234 137.356H201.481C201.566 137.445 201.63 137.55 201.67 137.665C201.71 137.781 201.725 137.903 201.714 138.025C201.808 138.025 201.939 138.025 202.034 138.025C202.097 138.149 202.126 138.288 202.117 138.428C202.108 138.567 202.062 138.701 201.983 138.816C202.039 139.012 202.156 139.185 202.317 139.31C202.317 139.23 202.433 139.129 202.47 139.056C203.16 138.947 203.378 140.044 203.712 140.509C203.91 140.768 204.088 141.043 204.243 141.33C204.403 141.606 204.454 142.005 204.585 142.223C204.715 142.441 205.086 142.572 205.311 142.841C205.536 143.109 205.478 143.502 206.082 143.567C206.685 143.632 207.688 143.378 207.673 142.688C208.08 142.579 208.189 142.942 208.487 142.95C208.785 142.957 208.916 142.812 209.214 142.812C209.686 142.812 210.304 143.342 210.456 142.412C210.878 142.412 211.06 142.034 211.343 141.802C211.626 141.569 212.157 141.511 212.426 141.286C212.898 140.887 212.978 139.39 213.668 140.284C213.672 140.344 213.672 140.405 213.668 140.465C214.395 140.378 214.664 141.344 214.875 141.795C214.962 141.969 215.049 142.717 215.093 142.746C215.463 142.979 215.928 142.565 215.936 142.201C216.234 142.121 216.335 142.383 216.597 142.318C216.859 142.252 216.931 141.991 217.229 141.918C217.487 141.871 217.752 141.891 218 141.976C218.443 142.172 218.159 142.136 218.399 142.47C218.721 142.842 218.936 143.294 219.024 143.778C219.075 144.388 218.639 144.896 218.603 145.492C218.597 145.723 218.653 145.951 218.766 146.153C218.878 146.355 219.043 146.523 219.242 146.639C219.613 146.959 219.773 147.242 220.187 147.569C220.601 147.896 222.956 148.172 222.047 148.978C222.999 149.015 222.265 149.603 222.505 150.046C222.52 150.08 222.54 150.112 222.563 150.141C222.316 150.584 222.28 151.172 222.992 151.274C222.975 151.516 222.975 151.758 222.992 152C222.992 152.109 222.76 152.189 222.774 152.269C222.789 152.349 223.108 152.545 223.116 152.632C223.12 152.854 223.08 153.075 222.996 153.281C222.912 153.488 222.787 153.674 222.629 153.831C222.265 154.31 221.953 154.441 221.771 155.022C221.677 155.206 221.627 155.41 221.626 155.617C221.626 155.617 221.749 156.46 221.749 156.46C221.924 156.845 222.723 157.077 223.108 157.237C223.682 157.462 223.835 157.847 224.213 158.058C224.438 158.174 224.729 158.058 224.983 158.109C225.238 158.16 225.412 158.334 225.674 158.385C226.342 158.523 226.836 158.341 226.219 159.002C226.03 159.206 225.674 159.14 225.681 159.54C226.408 159.874 224.889 160.629 225.521 161.218C225.761 161.45 226.248 161.305 226.488 161.537C226.727 161.77 226.488 162.351 226.967 162.591C226.975 162.697 226.975 162.804 226.967 162.91C227.192 163.048 227.091 162.983 227.243 163.186C227.659 163.312 228.011 163.59 228.232 163.963C228.37 164.021 228.304 164.101 228.399 164.297C228.435 164.356 228.304 164.515 228.341 164.624C228.377 164.733 228.58 164.675 228.61 164.755C228.733 165.112 228.782 165.49 228.755 165.866C229.3 165.939 229.867 166.034 229.852 166.687C230.397 166.76 230.288 166.15 230.448 165.808C230.611 165.496 230.819 165.21 231.066 164.958C231.458 164.486 231.197 164.603 231.836 164.428C232.243 164.319 232.65 164.305 232.672 163.753C233.485 163.649 234.265 163.372 234.961 162.939C235.361 162.808 235.71 162.554 235.957 162.213C236.298 161.675 236.015 161.632 236.087 161.138C235.426 160.898 236.189 160.092 235.419 159.939C235.644 159.148 237.032 159.663 237.141 158.937C237.574 158.838 237.969 158.613 238.275 158.29C238.434 158.148 238.542 157.957 238.583 157.747C238.623 157.537 238.594 157.32 238.5 157.128C238.391 156.91 238.202 156.743 238.086 156.518C237.97 156.293 238.173 156.322 237.897 156.024C237.621 155.726 237.018 155.806 236.909 155.298C236.763 154.622 237.555 154.695 238.028 154.571C238.754 154.339 238.631 153.998 239.103 153.467C239.278 153.271 239.619 153.271 239.743 153.111C239.866 152.952 239.801 152.487 239.939 152.24C240.077 151.993 240.31 152 240.426 151.68C240.5 151.488 240.542 151.284 240.549 151.078C240.433 150.954 240.615 150.293 240.549 149.966C240.477 149.465 240.172 149.095 240.331 148.601C240.237 148.601 240.172 148.535 240.077 148.514C240.36 147.787 239.597 147.7 239.103 147.562L239.045 147.446C238.871 147.182 238.669 146.939 238.442 146.719C238.188 146.458 237.832 146.414 237.715 145.993C237.345 145.87 235.651 146.196 236.364 145.267C236.596 144.954 237.09 145.121 237.381 144.976C237.832 144.758 237.715 144.773 237.875 144.25C238.02 144.308 238.246 144.25 238.398 144.293C238.587 143.879 238.398 143.305 238.558 142.928C238.653 142.746 239.016 142.608 239.161 142.448C239.325 142.273 239.445 142.062 239.51 141.831C239.661 141.412 239.91 141.036 240.237 140.734C240.425 140.609 240.575 140.436 240.672 140.233C240.77 140.029 240.81 139.804 240.789 139.579C240.683 139.572 240.576 139.572 240.469 139.579C240.426 139.201 240.775 139.056 240.811 138.708C241.719 138.526 241.196 137.821 241.487 137.32C241.625 137.066 242.061 137.044 242.163 136.826C242.264 136.608 241.959 136.187 242.054 135.824C242.436 135.776 242.79 135.597 243.055 135.318C243.32 135.038 243.48 134.675 243.507 134.291L243.318 134.219C243.318 133.536 243.87 132.94 244.009 132.236C244.147 131.531 244.561 130.587 244.256 130.056C243.573 129.948 243.841 130.783 243.529 131.059C243.216 131.335 242.446 130.964 242.432 131.611C241.821 131.684 241.705 132.512 241.124 132.708C240.542 132.904 239.67 132.49 239.67 133.47C239.016 133.383 237.257 134.429 237.01 133.427C237.33 133.282 238.733 132.526 237.555 132.439C237.606 132.321 237.625 132.192 237.61 132.064C237.595 131.936 237.546 131.815 237.468 131.713C236.676 131.604 236.48 132.671 236.015 131.575C235.746 131.575 235.542 131.611 235.288 131.625C235.324 130.972 235.164 130.95 234.794 130.55C234.554 130.282 234.612 130.55 234.452 130.107C234.377 129.775 234.327 129.437 234.3 129.098C233.923 129.071 233.564 128.932 233.268 128.698C233.13 128.538 233.268 128.233 233.137 128.124C233.006 128.015 232.708 128.015 232.527 127.921C231.872 127.609 231.218 127.492 230.543 127.151C230.819 126.425 229.692 126.657 229.38 126.468C228.697 126.047 229.009 125.655 229.503 125.451C229.998 125.248 230.724 125.524 230.514 125.124C230.201 124.529 229.641 125.001 229.169 124.892C228.9 124.391 229.554 124.086 230.208 123.781C230.557 123.955 230.833 124.507 231.015 124.696C231.197 124.885 231.742 125.212 231.742 125.647C231.914 125.622 232.089 125.656 232.239 125.743C232.39 125.83 232.506 125.965 232.57 126.127C233.479 126.054 234.3 126.672 235.099 127.035C235.528 127.224 237.519 127.921 237.519 128.182C238.413 128.284 238.202 129.01 238.064 129.635C238.754 129.671 237.861 130.717 238.74 131.023C239.415 131.177 240.124 131.079 240.731 130.747C241.114 130.609 241.505 130.495 241.901 130.405C242.097 130.354 242.352 130.405 242.519 130.245C242.839 130.006 242.591 129.969 242.722 129.788C243.093 129.279 243.776 128.989 244.248 128.48C243.834 128.059 244.583 127.55 244.713 127.1C243.987 127.1 244.089 126.243 244.227 125.742C244.118 125.785 243.878 125.742 243.769 125.793C243.769 125.546 244.423 123.614 243.427 124.558C243.464 123.933 243.1 124.224 242.795 124.151C242.272 124.02 242.453 124.26 242.25 123.672C242.097 123.236 241.908 122.255 241.225 122.444C241.029 122.938 241.138 123.853 240.251 123.737C239.954 123.701 239.968 123.381 239.706 123.323C239.445 123.265 239.27 123.49 238.929 123.323C238.587 123.156 238.253 122.422 237.984 122.154C237.715 121.885 236.836 121.703 237.148 120.999C236.422 120.904 236.836 119.706 237.577 119.945C238.071 120.112 237.97 120.97 238.798 120.672C238.798 121.195 238.798 121.282 239.081 121.558C239.365 121.834 239.605 121.558 239.808 122.023C240.324 122.175 240.578 121.609 241.087 121.638C241.347 121.932 241.657 122.178 242.003 122.364C242.472 122.444 242.951 122.444 243.42 122.364C243.674 122.263 243.58 121.957 243.798 121.841C244.016 121.725 244.205 121.878 244.394 121.841C244.815 121.761 245.549 121.413 245.368 122.306C245.719 122.322 246.068 122.378 246.407 122.473C247.039 122.517 246.901 122.342 247.344 122.815C247.264 123.541 249.306 123.643 249.808 123.541C250.113 123.875 250.702 123.766 250.593 124.347C251.065 124.543 250.651 124.79 250.774 125.074C250.898 125.357 251.109 125.342 251.465 125.647C251.552 125.72 251.581 125.952 251.61 125.974C251.744 126.052 251.885 126.118 252.031 126.17C252.246 126.442 252.347 126.785 252.315 127.129C252.635 127.212 252.917 127.4 253.115 127.664C253.313 127.928 253.415 128.252 253.405 128.582C253.405 128.887 253.187 129.163 253.318 129.425C253.514 129.839 253.79 129.613 254.044 129.831C254.619 130.289 254.386 130.805 254.887 131.153V125.88C254.313 125.676 255.011 125.03 254.662 124.609C254.415 124.318 253.558 124.289 253.252 124.028C253.101 123.851 252.98 123.649 252.896 123.432C252.765 123.207 252.38 123.178 252.562 122.756C252.664 122.524 253.034 122.633 253.165 122.401C253.296 122.168 253.165 121.805 253.245 121.514C253.34 121.514 253.47 121.514 253.572 121.514C253.572 121.115 253.427 120.461 254.052 120.643C253.979 121.151 254.124 121.987 254.735 121.95C255.011 122.502 254.371 122.793 254.866 123.265C255.069 123.454 255.411 123.265 255.592 123.497C255.774 123.73 255.65 124.071 255.65 124.26C256.334 124.551 256.377 125.451 257.213 125.291C257.162 125.074 257.213 124.936 257.009 124.754C257.482 124.275 257.373 125.052 257.445 125.168C257.576 125.393 257.816 125.56 257.911 125.851C258.005 126.141 257.911 126.505 257.961 126.766C258.012 127.028 258.259 127.166 258.194 127.558C258.666 127.674 259.967 128.843 260.498 128.923ZM228.152 117.156C227.425 116.372 227.643 117.621 227.243 117.839C226.844 118.057 226.604 117.636 226.291 117.57C225.979 117.505 225.674 117.65 225.398 117.57C224.86 117.396 224.613 116.916 224.169 116.604C223.726 116.292 223.704 116.561 223.523 116.19C223.45 116.038 224.068 115.841 223.486 115.718C223.501 115.609 223.501 115.5 223.486 115.391C223.072 115.347 222.265 115.834 222.178 115.326C221.706 115.326 221.292 115.377 220.826 115.326C221.015 114.498 221.822 114.476 222.542 114.374C223.261 114.272 223.93 114.084 224.525 113.975C224.714 113.975 225.252 113.764 225.347 113.771C225.666 113.771 225.863 114.025 226.161 114.12C226.458 114.214 226.626 114.171 226.953 113.975C227.098 113.887 227.272 113.248 227.556 113.757L227.897 113.895C227.977 113.989 228.065 113.982 228.043 114.156C228.123 114.156 228.217 114.156 228.297 114.156C228.377 114.156 228.348 114.389 228.37 114.476C228.261 114.548 228.253 114.614 228.181 114.686C228.341 114.686 228.428 114.795 228.573 114.832C228.501 115.26 227.054 115.217 227.963 115.66C228.537 115.936 229.351 115.573 229.954 115.66C229.928 115.743 229.909 115.828 229.896 115.914C230.194 115.914 230.303 115.914 230.383 116.19H230.499C230.601 117.614 228.333 116.074 228.152 117.156V117.156ZM234.285 117.694C233.522 117.338 233.718 117.069 233.558 116.335C233.399 115.602 232.606 115.515 232.65 114.839C232.229 114.839 231.778 114.672 231.923 114.149C231.415 114.265 231.327 113.931 231.124 113.648C231.168 113.314 231.436 112.754 230.979 112.616C231.218 112.21 231.575 112.144 231.4 111.607C231.88 111.607 232.083 111.12 232.541 111.033C232.541 110.938 232.577 110.808 232.541 110.713C232.875 110.713 233.224 110.713 233.558 110.713C233.617 110.829 233.508 110.793 233.493 110.844L233.566 111.251C234.002 112.042 232.396 112.319 232.512 112.994C232.679 113.946 234.089 113.975 234.859 114.011C234.825 114.151 234.838 114.299 234.898 114.43C234.957 114.562 235.058 114.67 235.186 114.737C234.292 115.224 235.768 115.725 236.167 115.711C236.167 115.805 236.167 115.936 236.167 116.03C236.523 116.03 236.829 115.791 237.17 115.987C236.981 116.851 238.042 116.51 237.468 117.403C237.631 117.402 237.791 117.441 237.935 117.515C238.08 117.59 238.204 117.698 238.297 117.832C237.337 118.82 235.317 118.188 234.285 117.694V117.694Z" fill="#3989B4"/>
<path d="M241.24 160.513C241.431 160.598 241.645 160.617 241.847 160.567C242.05 160.517 242.23 160.401 242.359 160.237C242.49 160.099 242.519 159.845 242.636 159.736C242.752 159.627 243.079 159.612 243.188 159.467C243.297 159.322 243.188 159.009 243.319 158.857C243.449 158.704 243.776 158.77 243.958 158.603C244.351 158.254 244.133 157.934 244.22 157.433C244.358 156.62 245.215 156.562 245.935 156.162C246.247 155.995 246.727 155.828 246.502 155.436C246.276 155.044 245.811 155.392 245.412 155.29C245.491 154.666 245.651 154.564 244.859 154.462C244.851 154.369 244.863 154.275 244.893 154.187C244.923 154.099 244.972 154.018 245.036 153.949C245.099 153.881 245.177 153.826 245.263 153.79C245.349 153.753 245.442 153.735 245.535 153.736C245.441 153.554 245.535 153.38 245.477 153.206C246.167 153.206 246.022 152.291 246.087 151.891C246.171 151.653 246.241 151.41 246.298 151.165C246.298 150.903 246.189 150.613 246.211 150.438C246.262 149.952 246.662 147.867 245.688 147.598C245.582 147.454 245.463 147.32 245.332 147.199L244.917 147.264C245.506 147.99 245.186 148.056 244.852 148.717C244.627 149.145 244.888 149.843 244.598 150.242C244.423 150.467 244.024 150.518 243.82 150.707C243.621 150.924 243.455 151.169 243.326 151.433C243.217 151.637 243.159 152.029 243.05 152.16C242.832 152.479 242.497 152.508 242.243 152.741C241.676 153.271 241.88 153.649 242.018 154.237C242.124 154.752 242.124 155.284 242.018 155.799C241.96 156.068 241.814 156.358 241.734 156.627C241.734 156.627 241.553 157.07 241.538 156.983C241.538 157.128 241.807 157.303 241.807 157.361C241.8 157.905 241.706 158.444 241.531 158.959C241.429 159.394 241.524 160.128 241.24 160.513Z" fill="#3989B4"/>
<path d="M200.682 172.331C200.522 172.142 200.399 171.786 200.239 171.561C199.932 171.095 199.599 170.647 199.243 170.217C198.829 169.738 198.189 169.389 197.935 168.823C197.681 168.256 197.732 167.501 197.07 167.305C197.157 166.782 196.685 166.578 196.772 166.019C196.454 165.912 196.172 165.718 195.958 165.46C195.77 165.176 195.648 164.853 195.602 164.515C195.566 164.385 195.341 164.297 195.29 164.101C195.29 164.101 195.406 163.695 195.413 163.673C195.53 163.259 195.413 163.193 195.893 162.983C196.373 162.772 196.453 163.164 196.62 162.649C196.617 162.339 196.539 162.036 196.394 161.762C196.104 161.101 196.104 160.68 195.312 160.622C194.985 160.397 195.137 160.193 195.021 159.896C194.854 159.438 194.679 159.002 194.556 158.523C194.498 158.276 194.556 157.796 194.425 157.622C194.294 157.448 194.004 157.47 193.851 157.302C193.306 156.707 193.677 156.678 194.004 156.322C194.161 156.176 194.277 155.99 194.338 155.784C194.338 155.784 194.185 155.603 194.222 155.494C194.258 155.385 194.498 155.356 194.541 155.276C194.834 154.853 195.032 154.373 195.123 153.867C195.159 153.315 194.817 152.988 194.759 152.472C194.701 151.956 194.992 151.673 194.331 151.186C194.018 150.954 193.182 150.838 193.102 150.46C192.623 150.358 191.947 151.019 191.932 150.191C191.206 149.959 191.242 150.918 190.581 150.787C190.428 150.366 189.948 149.334 189.483 149.203C189.396 148.76 189.992 147.584 189.069 147.751V147.024C188.88 146.901 188.917 146.974 188.873 146.734C188.713 145.898 189.287 144.555 188.342 143.974C187.935 143.719 187.463 144.119 187.034 143.77C186.606 143.422 186.693 142.637 186.758 142.216C186.868 141.673 186.788 141.109 186.533 140.618C186.315 140.044 186.482 139.63 186.329 139.042C186.097 138.134 185.988 137.255 185.784 136.281C184.754 143.153 185.593 150.175 188.214 156.61C190.836 163.045 195.142 168.657 200.682 172.854C200.944 172.854 201.213 172.854 201.452 172.854C201.22 172.614 200.922 172.614 200.682 172.331Z" fill="#3989B4"/>
<path d="M247.512 170.864V170.777C247.435 171.063 247.296 171.328 247.105 171.554C246.912 171.723 246.779 171.95 246.727 172.2C246.687 172.344 246.625 172.481 246.545 172.607C246.464 172.709 246.388 172.816 246.32 172.927C246.145 173.058 245.891 173.094 245.724 173.254C245.462 173.522 245.513 173.631 245.128 173.806C244.868 173.956 244.589 174.073 244.3 174.154C243.573 174.263 243.667 173.334 243.028 173.428C242.933 173.631 242.672 173.639 242.475 173.74C242.279 173.406 242.025 173.559 241.749 173.617C241.625 173.884 241.446 174.122 241.225 174.315C241.003 174.509 240.743 174.655 240.462 174.743C240.012 174.844 240.085 174.677 239.678 174.612C239.505 174.609 239.334 174.644 239.176 174.714C238.987 174.844 239.045 174.968 238.9 175.077C238.755 175.186 238.384 175.258 238.122 175.425C237.882 175.641 237.616 175.826 237.33 175.978C236.923 176.123 236.546 176.101 236.153 176.275C235.792 176.36 235.439 176.476 235.099 176.624C234.96 176.51 234.785 176.449 234.605 176.45C234.605 176.53 234.605 176.639 234.605 176.711C234.358 176.711 234.249 176.915 234.06 177.045C233.871 177.176 233.842 177.082 233.726 177.169C233.632 177.24 233.559 177.335 233.515 177.445C233.806 177.503 233.682 177.612 233.639 177.808C233.639 177.808 233.348 178.229 233.363 178.222C233.057 178.44 232.323 178.396 232.171 178.011C231.989 178.193 231.64 178.237 231.531 178.454C231.294 178.352 231.051 178.262 230.805 178.186C230.361 178.113 230.267 178.338 229.94 178.454C229.417 178.636 228.879 178.287 228.385 178.411C228.385 177.997 227.941 178.055 228.007 178.454C227.801 178.425 227.591 178.458 227.404 178.549C227.301 178.49 227.184 178.459 227.066 178.459C226.947 178.459 226.831 178.49 226.728 178.549C226.263 178.091 224.933 179.13 224.548 179.457C224.46 179.529 224.46 179.711 224.366 179.798C224.271 179.885 224.141 179.893 224.046 179.98C223.952 180.067 223.763 180.256 223.603 180.387C223.443 180.517 223.348 180.59 223.203 180.692C231.721 180.908 240.071 178.295 246.945 173.261L247.141 173.116C247.151 172.908 247.18 172.701 247.228 172.498C247.279 172.331 247.868 171.917 247.33 171.895C247.599 171.699 247.424 171.598 247.468 171.401C247.512 171.205 247.606 171.067 247.512 170.864Z" fill="#3989B4"/>
<path d="M208.676 111.599C208.676 111.599 209.584 111.178 209.642 111.135C209.94 110.902 209.722 110.408 210.311 110.503C210.645 109.907 210.994 109.573 211.299 109.014C211.466 109.014 211.517 108.868 211.633 108.796L211.975 108.454C211.438 108.792 210.862 109.062 210.26 109.26C209.955 109.333 209.729 109.26 209.439 109.348C208.756 109.529 209.09 109.566 208.814 110.03C208.676 110.314 207.753 111.476 208.676 111.599Z" fill="#3989B4"/>
<path style="mix-blend-mode:overlay" opacity="0.5" d="M173.387 116.728C177.272 122.049 179.492 128.403 179.765 134.985C180.038 141.567 178.352 148.082 174.921 153.707C171.49 159.332 166.467 163.814 160.488 166.585C154.508 169.357 147.841 170.294 141.329 169.278C134.817 168.263 128.752 165.34 123.901 160.879C119.051 156.419 115.633 150.621 114.079 144.218C112.525 137.816 112.905 131.097 115.172 124.911C117.438 118.725 121.489 113.349 126.812 109.464C130.346 106.883 134.355 105.023 138.61 103.991C142.864 102.959 147.28 102.775 151.605 103.449C155.93 104.124 160.08 105.644 163.818 107.922C167.555 110.2 170.807 113.193 173.387 116.728V116.728Z" fill="url(#paint1_radial_78_657)"/>
<path style="mix-blend-mode:overlay" opacity="0.5" d="M170.575 118.776C174.05 123.544 176.034 129.236 176.274 135.131C176.514 141.026 175 146.859 171.923 151.894C168.846 156.929 164.345 160.939 158.988 163.417C153.631 165.895 147.66 166.729 141.828 165.815C135.997 164.901 130.568 162.28 126.227 158.282C121.887 154.284 118.829 149.089 117.442 143.354C116.055 137.62 116.4 131.603 118.434 126.064C120.468 120.526 124.099 115.715 128.869 112.239C132.036 109.929 135.628 108.266 139.438 107.345C143.249 106.423 147.204 106.262 151.077 106.869C154.95 107.476 158.666 108.84 162.011 110.883C165.357 112.926 168.267 115.608 170.575 118.776V118.776Z" fill="url(#paint2_radial_78_657)"/>
<g style="mix-blend-mode:overlay" opacity="0.4">
<path d="M210.391 105.854C204.541 108.875 200.108 113.619 198.197 119.698C193.691 134.03 204.854 150.308 223.131 156.017C239.649 161.21 256.327 156.017 262.707 144.395C263.108 137.944 261.886 131.496 259.151 125.64C256.417 119.784 252.257 114.706 247.053 110.87C241.849 107.035 235.766 104.564 229.36 103.684C222.955 102.804 216.43 103.542 210.384 105.832L210.391 105.854Z" fill="#E9F8FF"/>
</g>
</g>
<defs>
<radialGradient id="paint0_radial_78_657" cx="0" cy="0" r="1" gradientUnits="userSpaceOnUse" gradientTransform="translate(228.355 164.116) scale(0.0872192)">
<stop stop-color="white"/>
<stop offset="0.21" stop-color="#E9E9F3"/>
<stop offset="1" stop-color="#9997C6"/>
</radialGradient>
<radialGradient id="paint1_radial_78_657" cx="0" cy="0" r="1" gradientUnits="userSpaceOnUse" gradientTransform="translate(142.334 132.697) rotate(-36.0566) scale(33.3696 33.3648)">
<stop stop-color="white"/>
<stop offset="0.14" stop-color="#FEFEFE" stop-opacity="0.99"/>
<stop offset="0.26" stop-color="#FCFCFB" stop-opacity="0.94"/>
<stop offset="0.39" stop-color="#F7F7F7" stop-opacity="0.87"/>
<stop offset="0.51" stop-color="#F1F1F1" stop-opacity="0.76"/>
<stop offset="0.63" stop-color="#E9E9E9" stop-opacity="0.63"/>
<stop offset="0.75" stop-color="#DFDFDF" stop-opacity="0.46"/>
<stop offset="0.86" stop-color="#D4D4D3" stop-opacity="0.27"/>
<stop offset="0.98" stop-color="#C7C7C6" stop-opacity="0.04"/>
<stop offset="1" stop-color="#C4C4C3" stop-opacity="0"/>
</radialGradient>
<radialGradient id="paint2_radial_78_657" cx="0" cy="0" r="1" gradientUnits="userSpaceOnUse" gradientTransform="translate(146.322 135.054) rotate(-36.0566) scale(24.1516 24.1481)">
<stop stop-color="white"/>
<stop offset="0.24" stop-color="#F2F2F1" stop-opacity="0.77"/>
<stop offset="0.8" stop-color="#D0D0CF" stop-opacity="0.2"/>
<stop offset="1" stop-color="#C4C4C3" stop-opacity="0"/>
</radialGradient>
<clipPath id="clip0_78_657">
<rect width="315" height="228" fill="white" transform="translate(0.000976562)"/>
</clipPath>
</defs>
</svg>
