<svg width="257" height="260" viewBox="0 0 257 260" fill="none" xmlns="http://www.w3.org/2000/svg">
<g clip-path="url(#clip0_78_268)">
<g style="mix-blend-mode:multiply">
<path d="M128.499 260C173.054 260 209.174 256.397 209.174 251.953C209.174 247.509 173.054 243.906 128.499 243.906C83.9432 243.906 47.8237 247.509 47.8237 251.953C47.8237 256.397 83.9432 260 128.499 260Z" fill="#C6E4E2"/>
</g>
<path d="M183.322 149.43C184.69 148.142 200.041 169.886 214.483 164.722C228.924 159.559 219.955 126.37 219.955 126.37C219.955 126.37 232.42 114.556 228.424 112.365C224.429 110.173 219.483 119.844 219.483 119.844C219.483 119.844 220.776 109.975 217.13 109.893C213.484 109.81 214.332 119.96 214.332 119.96C214.332 119.96 207.457 111.18 205.836 112.879C204.214 114.577 209.256 122.665 209.256 122.665C209.256 122.665 201.505 121.631 201.047 124.98C200.589 128.329 213.019 127.719 213.019 127.719C213.019 127.719 219.737 155.984 212.225 159.107C204.714 162.23 184.752 143.725 184.752 143.725" fill="#340B4F"/>
<path d="M155.179 202.006L177.33 251.22C177.33 251.22 205.377 232.4 199.905 228.449C194.432 224.497 177.884 243.331 177.884 243.331L160.884 202.033" fill="#340B4F"/>
<path d="M118.484 208.231L118.86 229.161L95.2109 219.573C95.2109 219.573 87.9253 252.556 94.6021 251.638C101.279 250.72 100.266 225.654 100.266 225.654L122.438 235.509L124.49 208.218" fill="#340B4F"/>
<path d="M80.5102 210.594C80.5102 210.594 83.4723 217.443 73.9292 222.922L80.948 221.552V227.031C80.948 227.031 86.797 221.442 88.7124 213.334" fill="#340B4F"/>
<path d="M56.2041 77.2179L168.279 59.0554L173.786 182.933L67.5122 208.231" fill="#DB7709"/>
<path d="M180.914 68.2599L180.976 109.893L80.243 98.2842L69.8037 99.2704L59.0977 77.0467L170.55 62.9523L180.914 68.2599Z" fill="#EFE9DB"/>
<path d="M180.914 68.2599L180.976 109.892L80.2432 98.2841L78.8271 81.4914L180.914 68.2599Z" fill="#FFFDF8"/>
<path d="M78.8271 81.4914L91.6539 216.025L191.757 203.205L184.376 73.7731L78.8271 81.4914Z" fill="#FFCF01"/>
<path d="M78.827 81.4914C78.827 81.4914 70.7821 75.9166 56.2041 77.2179L67.519 208.231L91.6538 216.025L78.827 81.4914Z" fill="#FAA308"/>
<path d="M73.9291 87.7304L61.376 86.4224L61.9301 92.5861C66.1578 92.8874 70.3376 93.3394 74.4969 93.8325L73.9291 87.7304Z" fill="#DB7709"/>
<path d="M74.825 97.3733C70.6589 97.339 66.4859 97.2911 62.3403 97.1267L70.6658 189.583C74.9277 190.048 79.2238 190.425 83.513 190.891L74.825 97.3733Z" fill="#DB7709"/>
<path d="M71.0352 193.932L71.7192 201.835L84.8333 205.663L84.1492 197.801C79.7779 196.541 75.4407 195.164 71.0352 193.932Z" fill="#DB7709"/>
<path d="M67.9365 77.6425C67.9365 77.6425 77.3291 68.5475 85.3946 76.3481L77.3291 77.6425C77.3291 77.6425 73.5871 75.5879 72.1847 78.9231" fill="#340B4F"/>
<path d="M56.2041 77.2178L78.827 81.4914C78.827 81.4914 68.251 73.8415 56.2041 77.2178Z" fill="#DB7709"/>
<path d="M98.8984 127.117C98.2759 128.055 97.9612 146.081 114.858 144.923C131.755 143.766 121.74 119.001 121.74 119.001C121.74 119.001 121.74 139.67 113.292 139.985C104.843 140.3 98.8984 127.117 98.8984 127.117Z" fill="#340B4F"/>
<path d="M172.335 117.755C173.197 118.487 178.41 135.739 161.835 139.218C145.259 142.697 148.153 116.159 148.153 116.159C148.153 116.159 153.79 136.02 162.006 134.041C170.222 132.061 172.335 117.755 172.335 117.755Z" fill="#340B4F"/>
<path d="M93.7881 108.817C93.7881 108.817 105.876 94.5517 117.109 98.6608C117.109 98.6608 111.923 88.066 102.209 91.5246C92.4952 94.9831 93.7881 108.817 93.7881 108.817Z" fill="#DB7709"/>
<path d="M177.33 98.8321C177.33 98.8321 161.465 88.9359 152.018 96.2776C152.018 96.2776 153.728 84.635 164.038 84.9294C174.347 85.2239 177.33 98.8321 177.33 98.8321Z" fill="#DB7709"/>
<path d="M173.786 148.902C173.786 148.902 170.571 169.051 155.138 177.372C151.355 179.377 147.186 180.545 142.913 180.796C126.221 181.947 117.123 172.858 112.471 165.215C110.564 162.129 109.108 158.785 108.147 155.285L173.786 148.902Z" fill="#340B4F"/>
<path d="M155.138 177.372C151.355 179.377 147.186 180.545 142.913 180.796C126.221 181.947 117.123 172.859 112.471 165.216C113.462 164.41 114.494 163.655 115.563 162.955C121.213 159.237 127.986 157.066 134.717 157.477C141.736 157.901 148.755 161.373 152.504 167.345C154.359 170.35 155.277 173.842 155.138 177.372V177.372Z" fill="#FF5D72"/>
<path d="M102.857 153.071C103.357 149.991 101.269 147.088 98.1925 146.587C95.116 146.086 92.2163 148.176 91.7158 151.256C91.2153 154.336 93.3036 157.239 96.3801 157.74C99.4566 158.241 102.356 156.151 102.857 153.071Z" fill="#DB7709"/>
<path d="M179.43 147.45C182.547 147.45 185.074 144.921 185.074 141.8C185.074 138.68 182.547 136.15 179.43 136.15C176.313 136.15 173.786 138.68 173.786 141.8C173.786 144.921 176.313 147.45 179.43 147.45Z" fill="#DB7709"/>
<path d="M129.901 183.186C129.901 183.186 144.103 188.158 152.743 183.186C152.743 183.186 144.856 194.432 129.901 183.186Z" fill="#FAA308"/>
<path d="M130.791 134.007C130.586 136.582 130.736 139.362 132.255 141.451C134.191 144.108 138.097 144.875 141.114 143.608C144.397 142.197 146.525 138.664 146.744 135.109C146.798 134.477 146.649 133.843 146.32 133.301C145.424 131.931 143.789 132.233 142.509 132.781C140.461 133.665 138.657 135.036 137.255 136.773L135.593 125.48C135.543 125.106 135.363 124.762 135.085 124.507C134.807 124.253 134.449 124.104 134.073 124.087C133.697 124.07 133.326 124.185 133.026 124.414C132.727 124.642 132.516 124.969 132.433 125.336C131.995 127.158 131.612 128.761 131.441 129.548C131.125 131.018 130.908 132.508 130.791 134.007V134.007Z" fill="#FF5D72"/>
<path d="M74.4968 152.169C73.1286 153.429 58.2564 131.329 43.7126 136.157C29.1688 140.985 37.3437 174.379 37.3437 174.379C37.3437 174.379 24.5922 185.898 28.5326 188.213C32.4729 190.528 37.631 180.933 37.631 180.933C37.631 180.933 36.1123 190.768 39.7517 190.939C43.3911 191.11 42.7891 180.933 42.7891 180.933C42.7891 180.933 49.4727 189.877 51.135 188.213C52.7974 186.549 47.9403 178.351 47.9403 178.351C47.9403 178.351 55.6705 179.563 56.2041 176.228C56.7377 172.893 44.3009 173.187 44.3009 173.187C44.3009 173.187 38.2399 144.779 45.8196 141.827C53.3994 138.876 72.9302 157.846 72.9302 157.846" fill="#340B4F"/>
<path d="M37.8294 70.4172L24.729 53.0697C15.6756 61.1204 7.39606 70.0031 -0.000976562 79.6012L21.7805 71.9718C19.4801 81.9152 16.4388 91.6721 12.6821 101.161C30.0552 91.5175 45.3898 78.5849 57.8322 63.0823C50.8645 64.6124 44.1358 67.0798 37.8294 70.4172V70.4172Z" fill="#DD264E"/>
<path d="M57.8321 63.0823L48.6584 52.6793L38.3286 71.3006L57.8321 63.0823Z" fill="#340B4F"/>
<path d="M219.169 70.4173L232.269 53.0835C241.323 61.1342 249.602 70.0169 256.999 79.6149L235.252 71.9856C237.552 81.929 240.594 91.6859 244.35 101.174C226.965 91.535 211.619 78.6021 199.166 63.0961C206.133 64.6219 212.862 67.0846 219.169 70.4173V70.4173Z" fill="#DD264E"/>
<path d="M199.159 63.0823L208.34 52.6793L218.669 71.3006L199.159 63.0823Z" fill="#340B4F"/>
<path d="M12.8872 49.2825L38.3149 71.3007C38.3149 71.3007 61.1431 30.4557 125.763 30.4557C190.382 30.4557 218.649 71.3007 218.649 71.3007L242.072 40.8998C242.072 40.8998 187.81 0 127.753 0C52.6741 0 12.8872 49.2825 12.8872 49.2825Z" fill="#FF5D72"/>
<path d="M38.644 46.4586L41.1743 44.4349L48.2599 53.3144L53.7422 48.9299L55.3889 50.9934L47.3762 57.4016L38.644 46.4586Z" fill="#FFFDF8"/>
<path d="M46.053 40.8818L48.6764 39.0012L56.7904 50.3455L54.167 52.2261L46.053 40.8818Z" fill="#FFFDF8"/>
<path d="M61.8235 30.4122L64.2094 45.4854L61.509 47.2024L48.9123 38.6214L51.8659 36.7435L60.8177 42.9019L59.1063 32.1399L61.8235 30.4122Z" fill="#FFFDF8"/>
<path d="M74.448 39.9084L70.2289 37.7452L70.0878 37.8208L67.6025 39.1533L69.442 42.5922L66.5865 44.1231L59.983 31.7783L65.3239 28.915C66.4167 28.3291 67.4602 28.0041 68.4542 27.9402C69.46 27.87 70.3595 28.0534 71.1528 28.4904C71.9461 28.9275 72.588 29.6045 73.0785 30.5216C73.5691 31.4386 73.7703 32.3519 73.6822 33.2614C73.5996 34.1529 73.2472 34.9924 72.6251 35.7798L77.515 38.2641L74.448 39.9084ZM70.1877 32.0714C69.8167 31.3777 69.3104 30.9683 68.6689 30.8433C68.0211 30.7064 67.2683 30.868 66.4105 31.3279L64.0838 32.5753L66.3856 36.8783L68.7123 35.6309C69.5701 35.171 70.1217 34.6333 70.367 34.0176C70.6122 33.402 70.5525 32.7533 70.1877 32.0714Z" fill="#FFFDF8"/>
<path d="M81.8504 36.9537C80.5174 37.5328 79.1882 37.7687 77.8628 37.6613C76.5497 37.5485 75.3699 37.1234 74.3236 36.386C73.2843 35.6309 72.4915 34.6234 71.9452 33.3634C71.399 32.1033 71.2081 30.8416 71.3725 29.5781C71.5437 28.2971 72.0367 27.138 72.8514 26.1008C73.6783 25.0582 74.7582 24.2474 76.0912 23.6683C77.4242 23.0892 78.7472 22.856 80.0604 22.9687C81.3736 23.0814 82.556 23.5126 83.6076 24.2623C84.6539 24.9998 85.4501 25.9986 85.9964 27.2586C86.5426 28.5186 86.73 29.7892 86.5588 31.0702C86.3822 32.339 85.8865 33.492 85.0718 34.5292C84.2572 35.5664 83.1834 36.3746 81.8504 36.9537ZM80.7526 34.4214C81.5108 34.092 82.1214 33.6232 82.5844 33.015C83.042 32.3946 83.3069 31.698 83.3788 30.9254C83.463 30.1474 83.3327 29.3608 82.988 28.5656C82.6433 27.7705 82.1584 27.138 81.5333 26.6681C80.9204 26.193 80.234 25.917 79.4741 25.8401C78.7089 25.751 77.9471 25.8712 77.1889 26.2006C76.4308 26.53 75.8228 27.0049 75.3652 27.6253C74.9022 28.2335 74.6286 28.9266 74.5444 29.7046C74.4725 30.4773 74.6089 31.2612 74.9536 32.0563C75.2983 32.8515 75.7771 33.4867 76.3899 33.9618C77.015 34.4316 77.7102 34.7111 78.4754 34.8002C79.2354 34.8771 79.9944 34.7508 80.7526 34.4214Z" fill="#FFFDF8"/>
<path d="M90.7037 33.7085C89.6525 34.063 88.586 34.2674 87.5044 34.3219C86.4311 34.3593 85.5201 34.2504 84.7714 33.9951L85.0363 31.3245C85.7469 31.5504 86.5374 31.6576 87.4079 31.6461C88.2784 31.6347 89.1063 31.4966 89.8915 31.2318C90.7654 30.9371 91.3687 30.5926 91.7014 30.1983C92.0299 29.7913 92.1216 29.3725 91.9767 28.9417C91.8702 28.625 91.6561 28.4081 91.3346 28.2908C91.0215 28.1566 90.6473 28.0923 90.2121 28.098C89.7895 28.0995 89.2234 28.1353 88.5136 28.2053C87.4194 28.3063 86.5089 28.3454 85.7819 28.3225C85.055 28.2996 84.3678 28.1012 83.7201 27.7271C83.0852 27.3488 82.6185 26.7163 82.3201 25.8295C82.0601 25.0568 82.0347 24.2895 82.2438 23.5279C82.4486 22.7535 82.9072 22.0417 83.6195 21.3925C84.3444 20.7389 85.3148 20.2072 86.5307 19.7971C87.3793 19.511 88.2429 19.3326 89.1217 19.2619C90.0005 19.1913 90.8078 19.2435 91.5436 19.4185L91.3801 22.0761C89.9171 21.7936 88.5714 21.8595 87.3429 22.2738C86.4816 22.5643 85.8889 22.9193 85.5647 23.3389C85.2532 23.7543 85.1742 24.19 85.3276 24.6461C85.4811 25.1021 85.8305 25.3651 86.3758 25.4351C86.9295 25.4882 87.7303 25.458 88.7779 25.3445C89.8721 25.2435 90.7827 25.2044 91.5096 25.2273C92.2365 25.2502 92.9153 25.4444 93.546 25.8101C94.1894 26.1714 94.6603 26.7955 94.9586 27.6823C95.2144 28.4424 95.2335 29.2117 95.016 29.9903C94.8069 30.752 94.3399 31.4596 93.6149 32.1132C92.89 32.7667 91.9195 33.2985 90.7037 33.7085Z" fill="#FFFDF8"/>
<path d="M95.8228 17.4055L102.04 16.0676C103.526 15.7479 104.898 15.7528 106.155 16.0824C107.423 16.3962 108.48 17.0006 109.327 17.8959C110.186 18.7883 110.763 19.9189 111.057 21.2878C111.351 22.6566 111.289 23.9246 110.871 25.0919C110.467 26.2564 109.753 27.2489 108.729 28.0693C107.715 28.8739 106.465 29.436 104.979 29.7557L98.7615 31.0936L95.8228 17.4055ZM104.264 27.1887C105.633 26.8942 106.64 26.2819 107.286 25.3519C107.942 24.4061 108.13 23.2813 107.85 21.9777C107.571 20.6741 106.939 19.7326 105.955 19.1532C104.982 18.5579 103.811 18.4075 102.442 18.702L99.5486 19.3247L101.371 27.8113L104.264 27.1887Z" fill="#FFFDF8"/>
<path d="M120.278 25.0732L120.589 27.6472L109.858 28.9494L108.18 15.0892L118.654 13.8182L118.965 16.3923L111.679 17.2764L112.043 20.2861L118.478 19.5052L118.78 22.0001L112.346 22.7809L112.734 25.9886L120.278 25.0732Z" fill="#FFFDF8"/>
<path d="M132.504 24.6429H126.004L124.764 27.6429H121.444L127.684 13.6429H130.884L137.144 27.6429H133.744L132.504 24.6429ZM131.484 22.1829L129.264 16.8229L127.044 22.1829H131.484Z" fill="#FFFDF8"/>
<path d="M147.844 14.8341L140.696 28.3101L137.506 28.0565L132.592 13.6217L136.081 13.899L139.537 24.2053L144.634 14.5789L147.844 14.8341Z" fill="#FFFDF8"/>
<path d="M154.477 27.8047L154.069 30.3724L143.364 28.6674L145.562 14.8409L156.01 16.5051L155.602 19.0728L148.333 17.9151L147.856 20.9175L154.275 21.9399L153.88 24.4286L147.461 23.4062L146.952 26.6061L154.477 27.8047Z" fill="#FFFDF8"/>
<path d="M168.258 19.6441L164.963 33.2506L162.378 32.6231L157.596 22.7154L155.595 30.9766L152.485 30.2217L155.781 16.6151L158.385 17.2473L163.148 27.1503L165.149 18.8892L168.258 19.6441Z" fill="#FFFDF8"/>
<path d="M169.556 23.1507L165.301 21.7605L166.118 19.2522L177.707 23.038L176.889 25.5463L172.634 24.1561L169.116 34.9493L166.038 33.9439L169.556 23.1507Z" fill="#FFFDF8"/>
<path d="M177.026 38.2189C175.168 37.4803 173.922 36.3899 173.289 34.9475C172.669 33.5101 172.737 31.837 173.494 29.9282L176.383 22.6402L179.394 23.8367L176.549 31.0131C175.625 33.3433 176.129 34.8925 178.062 35.6606C179.004 36.0348 179.833 36.0415 180.55 35.6807C181.272 35.3076 181.871 34.5198 182.348 33.3175L185.193 26.1411L188.167 27.3228L185.277 34.6108C184.52 36.5196 183.418 37.7816 181.969 38.3967C180.533 39.0168 178.885 38.9575 177.026 38.2189Z" fill="#FFFDF8"/>
<path d="M189.482 43.7465L188.728 39.0737L188.584 39.0049L186.046 37.7912L184.371 41.3019L181.455 39.9074L187.47 27.3048L192.923 29.913C194.038 30.4467 194.915 31.0947 195.554 31.857C196.204 32.625 196.588 33.4573 196.705 34.3537C196.823 35.2502 196.658 36.1665 196.211 37.1027C195.764 38.0389 195.15 38.7401 194.367 39.2061C193.603 39.6659 192.72 39.8779 191.721 39.842L192.613 45.2443L189.482 43.7465ZM193.26 35.691C193.598 34.9829 193.627 34.3337 193.349 33.7436C193.077 33.1415 192.502 32.6309 191.627 32.212L189.251 31.0758L187.155 35.4687L189.53 36.6049C190.406 37.0238 191.163 37.1503 191.803 36.9843C192.442 36.8183 192.927 36.3872 193.26 35.691Z" fill="#FFFDF8"/>
<path d="M200.209 46.2659L194.528 43.107L191.989 45.1277L189.087 43.5142L201.333 34.3048L204.13 35.8599L202.808 51.1442L199.837 49.4918L200.209 46.2659ZM200.511 43.6191L201.171 37.8533L196.63 41.4613L200.511 43.6191Z" fill="#FFFDF8"/>
<path d="M203.808 52.3878C202.871 51.7994 202.04 51.1044 201.314 50.3029C200.608 49.4971 200.116 48.7242 199.84 47.9843L202.067 46.5013C202.342 47.1932 202.758 47.8719 203.317 48.5374C203.876 49.2029 204.505 49.7554 205.205 50.1949C205.984 50.6841 206.631 50.9326 207.145 50.9406C207.667 50.9372 208.048 50.7434 208.288 50.3592C208.465 50.0767 208.497 49.7742 208.385 49.4516C208.29 49.1248 208.104 48.7951 207.824 48.4623C207.556 48.1366 207.171 47.7217 206.669 47.2175C205.9 46.4357 205.295 45.7566 204.853 45.1804C204.412 44.6042 204.131 43.9476 204.01 43.2107C203.901 42.4809 204.094 41.7205 204.59 40.9295C205.021 40.2403 205.597 39.7357 206.316 39.416C207.043 39.0849 207.881 38.9895 208.832 39.1297C209.794 39.277 210.817 39.6909 211.901 40.3714C212.658 40.8464 213.341 41.4011 213.95 42.0356C214.56 42.6701 215.029 43.327 215.359 44.0062L213.206 45.5594C212.5 44.2503 211.599 43.2519 210.504 42.5642C209.736 42.0822 209.088 41.8485 208.559 41.8631C208.042 41.8849 207.656 42.0992 207.402 42.506C207.147 42.9127 207.165 43.349 207.455 43.8147C207.764 44.2762 208.293 44.8759 209.042 45.6138C209.811 46.3956 210.416 47.0747 210.858 47.6509C211.299 48.2271 211.578 48.8745 211.694 49.593C211.822 50.3186 211.638 51.0769 211.143 51.8678C210.718 52.5458 210.137 53.0468 209.399 53.3708C208.68 53.6905 207.839 53.7768 206.877 53.6295C205.915 53.4822 204.892 53.0683 203.808 52.3878Z" fill="#FFFDF8"/>
</g>
<defs>
<clipPath id="clip0_78_268">
<rect width="257" height="260" fill="white" transform="translate(-0.000976562)"/>
</clipPath>
</defs>
</svg>
