<svg width="1920" height="262" viewBox="0 0 1920 262" fill="none" xmlns="http://www.w3.org/2000/svg">
<g clip-path="url(#clip0_130_83)">
<path d="M275.112 237.652H0V261.2H275.112V237.652Z" fill="#938D8D"/>
<path d="M1920 238H1737V262H1920V238Z" fill="#938D8D"/>
<path d="M275.112 237.651V122.782H251.564L251.564 237.651H275.112Z" fill="#938D8D"/>
<path d="M443.396 122.782H272.241V146.33H443.396V122.782Z" fill="#938D8D"/>
<path d="M443.396 251.436V145.182H418.699V251.436H443.396Z" fill="#938D8D"/>
<path d="M581.239 227.888H427.889V251.436H581.239V227.888Z" fill="#938D8D"/>
<path d="M581.24 227.888V66.496H556.543V227.888H581.24Z" fill="#938D8D"/>
<path d="M1737 240V79H1762V240H1737Z" fill="#938D8D"/>
<path d="M1487 154V79H1512V154H1487Z" fill="#938D8D"/>
<path d="M1237 251V176H1262V251H1237Z" fill="#938D8D"/>
<path d="M761.585 66.496H563.435V90.0442H761.585V66.496Z" fill="#938D8D"/>
<path d="M761.585 180.217V69.3678H736.888V180.217H761.585Z" fill="#938D8D"/>
<path d="M1012 251V157H987V251H1012Z" fill="#938D8D"/>
<path d="M1012 157H737V180H1012V157Z" fill="#938D8D"/>
<path d="M1262 228H987V251H1262V228Z" fill="#938D8D"/>
<path d="M1237 154H1512V177H1237V154Z" fill="#938D8D"/>
<path d="M1487 79H1762V102H1487V79Z" fill="#938D8D"/>
<path d="M427.314 75.1112H263.051V93.4903H427.314V75.1112Z" fill="#D66F5A"/>
<path d="M418.125 93.4903H269.369V106.126H418.125V93.4903Z" fill="#E3C658"/>
<path d="M424.443 106.126H275.687V122.782H424.443V106.126Z" fill="#9455B5"/>
<path d="M225.719 175.048H29.8662V193.427H225.719V175.048Z" fill="#7ABFA9"/>
<path d="M188.96 193.427H35.0352V211.806H188.96V193.427Z" fill="#D66F5A"/>
<path d="M219.401 193.427H188.96V211.806H219.401V193.427Z" fill="#E3C658"/>
<path d="M225.718 211.806H41.9272V225.59H225.718V211.806Z" fill="#9455B5"/>
<path d="M230.313 225.59H37.3328V237.652H230.313V225.59Z" fill="#E3C658"/>
<path d="M195.852 225.59H188.673V237.652H195.852V225.59Z" fill="#D66F5A"/>
<path d="M479.58 104.403H454.309V227.888H479.58V104.403Z" fill="#E3C658"/>
<path d="M547.927 91.7673H527.251V227.888H547.927V91.7673Z" fill="#7ABFA9"/>
<path d="M497.959 140.012H485.898V227.888H497.959V140.012Z" fill="#7ABFA9"/>
<path d="M518.636 91.7673H506.574V227.888H518.636V91.7673Z" fill="#9455B5"/>
<path d="M497.959 140.122H485.898V179.068H497.959V140.122Z" fill="#D66F5A"/>
<path d="M473.021 179.148H460.443V218.095H473.021V179.148Z" fill="#7ABFA9"/>
<path d="M518.647 100.991H506.574V139.938H518.647V100.991Z" fill="#7ABFA9"/>
<path d="M547.925 118.237V106.165H527.449V118.237H547.925Z" fill="#E3C658"/>
<path d="M1806.27 114.636H1781V238.12H1806.27V114.636Z" fill="#E3C658"/>
<path d="M1874.62 102H1853.94V238.12H1874.62V102Z" fill="#7ABFA9"/>
<path d="M1824.65 150.245H1812.59V238.12H1824.65V150.245Z" fill="#7ABFA9"/>
<path d="M1845.33 102H1833.27V238.12H1845.33V102Z" fill="#9455B5"/>
<path d="M1824.65 150.355H1812.59V189.301H1824.65V150.355Z" fill="#D66F5A"/>
<path d="M1799.71 189.381H1787.13V228.327H1799.71V189.381Z" fill="#7ABFA9"/>
<path d="M1845.34 111.224H1833.27V150.17H1845.34V111.224Z" fill="#7ABFA9"/>
<path d="M1874.62 128.47V116.397H1854.14V128.47H1874.62Z" fill="#E3C658"/>
<path d="M716.211 -3H597.321V23.9943H716.211V-3Z" fill="#E3C658"/>
<path d="M736.888 44.0965H585.26V66.496H736.888V44.0965Z" fill="#D66F5A"/>
<path d="M729.995 23.9943H591.003V44.0965H729.995V23.9943Z" fill="#9455B5"/>
<path d="M591.003 44.0965H604.213V23.9943H591.003V44.0965Z" fill="#7ABFA9"/>
<path d="M630.633 -3H609.957V23.9943H630.633V-3Z" fill="#7ABFA9"/>
<path d="M703.575 -0.128265H682.899V20.5482H703.575V-0.128265Z" fill="white"/>
<path d="M805 29H770V157H805V29Z" fill="#D66F5A"/>
<path d="M926 30H891V157H926V30Z" fill="#D66F5A"/>
<path d="M832 66H811V157H832V66Z" fill="#7ABFA9"/>
<path d="M954 67H933V157H954V67Z" fill="#7ABFA9"/>
<path d="M844 16H832V157H844V16Z" fill="#9455B5"/>
<path d="M831.655 66.2088H811.179V106.35H831.655V66.2088Z" fill="#D66F5A"/>
<path d="M954 67H933V107H954V67Z" fill="#D66F5A"/>
<path d="M843.929 25.8722H831.856V66.0133H843.929V25.8722Z" fill="#7ABFA9"/>
<path d="M848 157H877V30H848V157Z" fill="#E3C658"/>
<path d="M976.038 157L1004.22 150.102L974.177 26L946 32.8983L976.038 157Z" fill="#E3C658"/>
<path d="M877 157H891V66H877V157Z" fill="#7ABFA9"/>
<path d="M877.182 145.089H891.001V104.948H877.182V145.089Z" fill="#D66F5A"/>
<path d="M797.768 45.2452H777.092V65.9217H797.768V45.2452Z" fill="white"/>
<path d="M919.143 45.8518H898.466V66.5283H919.143V45.8518Z" fill="white"/>
<path d="M873 39H852V60H873V39Z" fill="white"/>
<path d="M972.419 35.7461L952.015 40.7414L956.982 61.2622L977.386 56.2668L972.419 35.7461Z" fill="white"/>
<path d="M1110 87H1098V228H1110V87Z" fill="#9455B5"/>
<path d="M1159.8 87L1148 89.1876L1173.7 227.825L1185.5 225.637L1159.8 87Z" fill="#DB816E"/>
<path d="M1098.35 98.902L1080.15 91L1024 220.336L1042.2 228.238L1098.35 98.902Z" fill="#E3C658"/>
<path d="M1114 228H1143V101H1114V228Z" fill="#E3C658"/>
<path d="M1143 228H1157V137H1143V228Z" fill="#7ABFA9"/>
<path d="M1143.18 216.089H1157V175.948H1143.18V216.089Z" fill="#D66F5A"/>
<path d="M1442.26 106H1278V124.379H1442.26V106Z" fill="#D66F5A"/>
<path d="M1433.07 124.379H1284.32V137.015H1433.07V124.379Z" fill="#E3C658"/>
<path d="M1439 137H1291V154H1439V137Z" fill="#9455B5"/>
<path d="M1714 34H1683V53H1714V34Z" fill="#E3C658"/>
<path d="M1720 16H1524V34H1720V16Z" fill="#7ABFA9"/>
<path d="M1683 34H1529V53H1683V34Z" fill="#D66F5A"/>
<path d="M1720 53H1536V67H1720V53Z" fill="#9455B5"/>
<path d="M1724 67H1531V79H1724V67Z" fill="#E3C658"/>
<path d="M1690.18 67H1683V79.0613H1690.18V67Z" fill="#D66F5A"/>
</g>
<defs>
<clipPath id="clip0_130_83">
<rect width="1920" height="262" fill="white"/>
</clipPath>
</defs>
</svg>
