<?xml version="1.0" encoding="utf-8"?>
<!-- Generator: Adobe Illustrator 25.4.1, SVG Export Plug-In . SVG Version: 6.00 Build 0)  -->
<svg version="1.1" id="Camada_1" xmlns="http://www.w3.org/2000/svg" xmlns:xlink="http://www.w3.org/1999/xlink" x="0px" y="0px"
	 viewBox="0 0 453.54 71.44" style="enable-background:new 0 0 453.54 71.44;" xml:space="preserve">
<style type="text/css">
	.st0{fill:#C6E4E2;}
</style>
<path class="st0" d="M15.31,0C7.03,0-0.3,4.74-4.9,12.04c0.19,1.44,0.11,2.83-0.09,4.29c0.07,0.45,0.14,0.89,0.19,1.35
	c0.21,1.71,0.18,3.41,0.13,5.14c-0.07,2.22-0.16,4.43-0.32,6.64c0,0.7-0.01,1.4-0.02,2.1c0.04,0.15,0.05,0.33,0.03,0.53
	c0,0.01,0,0.03,0,0.05c0,0.03,0,0.06,0,0.09c0.01,3.68,0.23,7.37,0.12,11.05c0,0.19-0.04,0.36-0.09,0.51
	c0.08,1.45,0.17,2.91,0.24,4.36c4.61,7.13,11.86,11.73,20.02,11.73c13.93,0,25.22-13.4,25.22-29.93S29.23,0,15.31,0z"/>
<path class="st0" d="M246.94,67.16c13.93,0,25.22-13.4,25.22-29.93c0-16.53-11.29-29.93-25.22-29.93
	c-13.93,0-25.22,13.4-25.22,29.93C221.72,53.76,233.01,67.16,246.94,67.16z"/>
<path class="st0" d="M221.72,67.16c13.93,0,25.22-13.4,25.22-29.93c0-16.53-11.29-29.93-25.22-29.93
	c-13.93,0-25.22,13.4-25.22,29.93C196.5,53.76,207.79,67.16,221.72,67.16z"/>
<path class="st0" d="M190.57,67.16c13.93,0,25.22-13.4,25.22-29.93c0-16.53-11.29-29.93-25.22-29.93
	c-13.93,0-25.22,13.4-25.22,29.93C165.35,53.76,176.64,67.16,190.57,67.16z"/>
<path class="st0" d="M151.15,71.44c13.93,0,25.22-13.4,25.22-29.93c0-16.53-11.29-29.93-25.22-29.93
	c-13.93,0-25.22,13.4-25.22,29.93C125.93,58.04,137.22,71.44,151.15,71.44z"/>
<path class="st0" d="M125.93,67.16c13.93,0,25.22-13.4,25.22-29.93c0-16.53-11.29-29.93-25.22-29.93
	c-13.93,0-25.22,13.4-25.22,29.93C100.71,53.76,112,67.16,125.93,67.16z"/>
<path class="st0" d="M91.18,59.86c13.93,0,25.22-13.4,25.22-29.93S105.1,0,91.18,0C77.25,0,65.96,13.4,65.96,29.93
	S77.25,59.86,91.18,59.86z"/>
<path class="st0" d="M56.84,67.16c13.93,0,25.22-13.4,25.22-29.93C82.06,20.7,70.77,7.3,56.84,7.3c-13.93,0-25.22,13.4-25.22,29.93
	C31.62,53.76,42.91,67.16,56.84,67.16z"/>
<path class="st0" d="M285.93,68.42c13.93,0,25.22-13.4,25.22-29.93S299.86,8.55,285.93,8.55c-13.93,0-25.22,13.4-25.22,29.93
	S272.01,68.42,285.93,68.42z"/>
<path class="st0" d="M315.26,62.68c13.93,0,25.22-13.4,25.22-29.93S329.19,2.82,315.26,2.82c-13.93,0-25.22,13.4-25.22,29.93
	S301.33,62.68,315.26,62.68z"/>
<path class="st0" d="M347.98,67.22c13.93,0,25.22-13.4,25.22-29.93S361.91,7.36,347.98,7.36c-13.93,0-25.22,13.4-25.22,29.93
	S334.05,67.22,347.98,67.22z"/>
<path class="st0" d="M384.88,62.64c13.93,0,25.22-13.4,25.22-29.93c0-16.53-11.29-29.93-25.22-29.93
	c-13.93,0-25.22,13.4-25.22,29.93C359.66,49.24,370.95,62.64,384.88,62.64z"/>
<path class="st0" d="M458.55,54.43c-0.08-0.97-0.17-1.94-0.23-2.87c-0.08-1.28-0.04-2.53,0.09-3.75c-0.17-3.97-0.13-7.96-0.04-11.93
	c0.03-1.39,0.06-2.79,0.09-4.18c-0.02-0.99,0.01-1.98,0.05-2.99c0.08-1.98-0.17-3.87-0.18-5.83c0-0.31,0.07-0.57,0.18-0.78
	c-0.51-1.66-0.29-3.99-0.29-5.48c0-0.23,0.04-0.43,0.1-0.6c-0.04-0.76,0.03-1.61,0.1-2.36c-0.03-0.61-0.15-1.21-0.16-1.83
	c-0.02-0.49,0.08-0.96,0.09-1.44c-0.02-0.11-0.03-0.22-0.03-0.33c0.01-0.21,0.01-0.42-0.01-0.63c0-0.01,0-0.02,0-0.03
	c0-0.01,0-0.01,0-0.01c-0.02-0.09-0.03-0.19-0.04-0.28c-0.07-0.37-0.03-0.72,0.1-1.01c-0.04-0.82-0.07-1.63-0.08-2.45
	c-2.45-1.8-5.18-2.81-8.07-2.81c-10.53,0-19.07,13.4-19.07,29.93c0,16.53,8.54,29.93,19.07,29.93c2.9,0,5.64-1.02,8.1-2.83
	C458.08,58.04,458.27,56.23,458.55,54.43z"/>
<path class="st0" d="M419.86,67.22c13.93,0,25.22-13.4,25.22-29.93S433.79,7.36,419.86,7.36c-13.93,0-25.22,13.4-25.22,29.93
	S405.93,67.22,419.86,67.22z"/>
</svg>
