<svg width="47" height="47" viewBox="0 0 47 47" fill="none" xmlns="http://www.w3.org/2000/svg">
<g id="Insta" clip-path="url(#clip0_81_980)">
<path id="Vector" d="M9.51855 17.0682C9.68325 15.7742 10.0811 14.5207 10.6927 13.3686C12.2802 10.7447 14.7597 9.78044 17.6263 9.71484C21.5315 9.61426 25.4388 9.61426 29.3484 9.71484C31.9723 9.78044 34.36 10.6529 35.9737 12.9488C36.947 14.4051 37.4527 16.1237 37.4234 17.8751C37.4824 21.6272 37.5086 25.3859 37.4234 29.138C37.3512 32.1555 36.3017 34.74 33.4876 36.2749C32.1919 36.9585 30.7477 37.3122 29.2828 37.3048C25.4257 37.3507 21.5687 37.3901 17.7181 37.3048C14.8253 37.2326 12.313 36.2618 10.7059 33.6379C10.0914 32.4893 9.69339 31.2374 9.53167 29.9448L9.51855 17.0682ZM23.5103 12.3584C21.5949 12.3584 19.6795 12.319 17.7641 12.3584C14.7729 12.4305 12.9361 13.8343 12.3917 16.4057C12.2666 16.955 12.1963 17.5153 12.1818 18.0784C12.1818 21.7059 12.1162 25.3334 12.1818 28.9543C12.2474 32.5753 14.0775 34.4907 17.5541 34.6219C21.4899 34.7662 25.4257 34.7531 29.3615 34.6219C32.2609 34.5301 33.9533 33.1328 34.5371 30.627C34.6484 30.18 34.7144 29.7229 34.7339 29.2626C34.7339 25.13 34.9766 20.9909 34.6093 16.8649C34.5415 15.7399 34.0692 14.6774 33.2796 13.8733C32.49 13.0692 31.4362 12.5778 30.3127 12.4896C28.0562 12.1813 25.78 12.4043 23.5103 12.3584Z" fill="black"/>
<path id="Vector_2" d="M30.7125 23.5491C30.7125 24.9762 30.2893 26.3713 29.4965 27.5579C28.7036 28.7445 27.5767 29.6694 26.2582 30.2155C24.9397 30.7616 23.4889 30.9045 22.0892 30.6261C20.6895 30.3477 19.4038 29.6605 18.3947 28.6514C17.3855 27.6422 16.6983 26.3565 16.4199 24.9568C16.1415 23.5571 16.2844 22.1063 16.8305 20.7878C17.3766 19.4693 18.3015 18.3424 19.4881 17.5496C20.6747 16.7567 22.0698 16.3335 23.4969 16.3335C25.4063 16.3472 27.2337 17.1119 28.5839 18.4621C29.9342 19.8123 30.6988 21.6397 30.7125 23.5491ZM28.0296 23.5491C28.0479 22.6373 27.7941 21.7406 27.3008 20.9735C26.8075 20.2065 26.0969 19.6036 25.2596 19.242C24.4223 18.8803 23.4963 18.7762 22.5997 18.9428C21.703 19.1095 20.8762 19.5394 20.2249 20.1778C19.5735 20.8162 19.1269 21.634 18.9422 22.5272C18.7574 23.4203 18.8429 24.3482 19.1875 25.1926C19.5322 26.037 20.1205 26.7596 20.8775 27.2684C21.6345 27.7771 22.5258 28.0489 23.4378 28.0491C24.641 28.0423 25.7933 27.5636 26.6471 26.7159C27.5009 25.8683 27.9879 24.7194 28.0034 23.5163L28.0296 23.5491Z" fill="black"/>
<path id="Vector_3" d="M30.9086 14.4247C31.372 14.4194 31.8186 14.598 32.1506 14.9214C32.4826 15.2447 32.6728 15.6865 32.6798 16.1499C32.6524 16.5984 32.4549 17.0196 32.1276 17.3275C31.8003 17.6354 31.3679 17.8069 30.9185 17.8069C30.4691 17.8069 30.0367 17.6354 29.7094 17.3275C29.3821 17.0196 29.1846 16.5984 29.1572 16.1499C29.1581 15.9213 29.2041 15.6952 29.2928 15.4846C29.3814 15.274 29.5109 15.0829 29.6737 14.9226C29.8365 14.7622 30.0295 14.6356 30.2414 14.5502C30.4534 14.4647 30.6801 14.4221 30.9086 14.4247Z" fill="black"/>
<path id="Vector_4" d="M37.4159 1.31201H9.58326C5.01491 1.31201 1.31152 5.01539 1.31152 9.58375V37.4164C1.31152 41.9848 5.01491 45.6881 9.58326 45.6881H37.4159C41.9843 45.6881 45.6877 41.9848 45.6877 37.4164V9.58375C45.6877 5.01539 41.9843 1.31201 37.4159 1.31201Z" stroke="black" stroke-width="4" stroke-linecap="round" stroke-linejoin="round"/>
</g>
<defs>
<clipPath id="clip0_81_980">
<rect width="47" height="47" fill="white"/>
</clipPath>
</defs>
</svg>
