<svg width="45" height="47" viewBox="0 0 45 47" fill="none" xmlns="http://www.w3.org/2000/svg">
<g id="Youtube" clip-path="url(#clip0_81_985)">
<path id="Vector" d="M27.7852 23.3721C27.7947 23.4395 27.7947 23.508 27.7852 23.5754C27.8042 23.5091 27.8042 23.4384 27.7852 23.3721Z" fill="black"/>
<path id="Vector_2" d="M22.9492 12.3257C9.2953 12.3257 9.05664 13.5983 9.05664 23.4771C9.05664 33.356 9.2953 34.6285 22.9492 34.6285C36.603 34.6285 36.8417 33.3625 36.8417 23.4771C36.8417 13.5917 36.603 12.3257 22.9492 12.3257ZM27.3455 24.2315L21.065 27.3998C20.9489 27.457 20.8209 27.4827 20.6927 27.4747C20.5646 27.4667 20.4404 27.4253 20.3316 27.3541C20.2228 27.2829 20.1329 27.1843 20.0701 27.0674C20.0073 26.9504 19.9736 26.8189 19.9722 26.6848V20.499C19.9719 20.3655 20.0039 20.2341 20.0652 20.1169C20.1264 19.9997 20.215 19.9005 20.3227 19.8286C20.4304 19.7566 20.5537 19.7142 20.6813 19.7053C20.8089 19.6964 20.9365 19.7212 21.0525 19.7775L27.333 22.8015C27.4428 22.8529 27.5387 22.9319 27.6121 23.0315C27.6856 23.1311 27.7342 23.2481 27.7538 23.3722C27.7728 23.4385 27.7728 23.5092 27.7538 23.5755C27.7495 23.7093 27.7127 23.8397 27.6468 23.9545C27.5808 24.0693 27.488 24.1646 27.3769 24.2315H27.3455Z" fill="black"/>
<path id="Vector_3" d="M35.8239 1.31201H9.17561C4.80165 1.31201 1.25586 5.01539 1.25586 9.58375V37.4164C1.25586 41.9848 4.80165 45.6881 9.17561 45.6881H35.8239C40.1979 45.6881 43.7437 41.9848 43.7437 37.4164V9.58375C43.7437 5.01539 40.1979 1.31201 35.8239 1.31201Z" stroke="black" stroke-width="4" stroke-linecap="round" stroke-linejoin="round"/>
</g>
<defs>
<clipPath id="clip0_81_985">
<rect width="45" height="47" fill="white"/>
</clipPath>
</defs>
</svg>
