<svg width="1378" height="48" viewBox="0 0 1378 48" fill="none" xmlns="http://www.w3.org/2000/svg">
<path d="M567.863 38.232C567.623 37.968 567.467 37.74 567.395 37.548C567.323 37.38 567.311 37.164 567.359 36.9C567.431 36.66 567.527 36.312 567.647 35.856C567.839 35.088 568.043 34.452 568.259 33.948C568.499 33.42 568.727 32.88 568.943 32.328C569.183 31.752 569.387 31.02 569.555 30.132C569.939 29.244 570.275 28.404 570.563 27.612C570.875 26.82 571.115 26.172 571.283 25.668C571.451 25.164 571.535 24.912 571.535 24.912C571.559 24.816 571.667 24.564 571.859 24.156C572.051 23.748 572.291 23.256 572.579 22.68C572.891 22.08 573.179 21.48 573.443 20.88C573.851 19.728 574.175 18.744 574.415 17.928C574.679 17.088 574.943 16.332 575.207 15.66C575.471 14.988 575.819 14.328 576.251 13.68C576.539 13.176 576.875 12.852 577.259 12.708C577.643 12.564 578.003 12.576 578.339 12.744C578.699 12.888 578.951 13.2 579.095 13.68C579.215 13.92 579.311 14.208 579.383 14.544C579.479 14.88 579.563 15.372 579.635 16.02C579.707 16.644 579.755 17.532 579.779 18.684C579.827 20.052 579.839 21.408 579.815 22.752C579.791 24.072 579.791 25.296 579.815 26.424C579.863 27.552 579.995 28.512 580.211 29.304C580.283 29.736 580.379 30.264 580.499 30.888C580.643 31.488 580.787 32.088 580.931 32.688C581.099 33.288 581.255 33.792 581.399 34.2C581.567 34.608 581.699 34.812 581.795 34.812C581.915 34.812 582.071 34.656 582.263 34.344C582.479 34.032 582.743 33.468 583.055 32.652C583.391 31.836 583.787 30.684 584.243 29.196C584.699 27.684 585.215 25.752 585.791 23.4C585.911 22.992 586.067 22.332 586.259 21.42C586.475 20.508 586.631 19.584 586.727 18.648C586.895 18.048 587.063 17.388 587.231 16.668C587.399 15.948 587.543 15.312 587.663 14.76C587.807 14.208 587.879 13.896 587.879 13.824C587.879 13.656 587.879 13.512 587.879 13.392C587.903 13.272 587.903 13.152 587.879 13.032C587.999 13.032 588.107 12.876 588.203 12.564C588.299 12.228 588.347 11.94 588.347 11.7C588.347 11.292 588.395 10.968 588.491 10.728C588.611 10.464 588.731 10.272 588.851 10.152C588.923 9.96 589.103 9.876 589.391 9.9C589.679 9.9 589.967 9.972 590.255 10.116C590.543 10.26 590.723 10.452 590.795 10.692C590.843 10.956 590.771 11.556 590.579 12.492C590.411 13.404 590.147 14.64 589.787 16.2C589.787 16.464 589.715 16.896 589.571 17.496C589.427 18.096 589.271 18.732 589.103 19.404C588.959 20.076 588.851 20.652 588.779 21.132C588.683 21.756 588.575 22.344 588.455 22.896C588.335 23.424 588.215 23.676 588.095 23.652C587.471 26.364 586.811 28.68 586.115 30.6C585.443 32.496 584.843 34.044 584.315 35.244C583.739 36.564 583.103 37.356 582.407 37.62C581.735 37.908 581.015 37.56 580.247 36.576C579.791 35.952 579.431 35.34 579.167 34.74C578.903 34.116 578.687 33.396 578.519 32.58C578.351 31.74 578.147 30.708 577.907 29.484C577.547 28.5 577.343 27.504 577.295 26.496C577.271 25.488 577.307 24.456 577.403 23.4C577.499 22.32 577.571 21.204 577.619 20.052C577.595 18.9 577.547 18.132 577.475 17.748C577.403 17.364 577.259 17.388 577.043 17.82C576.851 18.228 576.527 19.068 576.071 20.34C575.903 20.796 575.675 21.348 575.387 21.996C575.123 22.644 574.859 23.292 574.595 23.94C574.331 24.564 574.103 25.116 573.911 25.596C573.719 26.052 573.599 26.34 573.551 26.46C573.407 26.748 573.239 27.132 573.047 27.612C572.855 28.068 572.699 28.56 572.579 29.088C571.715 31.344 571.067 33.144 570.635 34.488C570.227 35.832 569.927 36.768 569.735 37.296C569.495 37.968 569.243 38.412 568.979 38.628C568.715 38.868 568.343 38.736 567.863 38.232ZM589.774 34.704C589.678 34.512 589.558 34.368 589.414 34.272C589.27 34.152 589.198 34.044 589.198 33.948C589.198 33.852 589.186 33.756 589.162 33.66C589.162 33.54 589.114 33.432 589.018 33.336C588.898 33.192 588.91 32.868 589.054 32.364C589.198 31.836 589.438 31.2 589.774 30.456C590.11 29.688 590.506 28.884 590.962 28.044C591.154 27.852 591.346 27.6 591.538 27.288C591.73 26.976 591.874 26.772 591.97 26.676C591.97 26.58 592.006 26.496 592.078 26.424C592.15 26.328 592.234 26.28 592.33 26.28V26.064C592.33 25.944 592.438 25.74 592.654 25.452C592.894 25.164 593.182 24.852 593.518 24.516C593.854 24.156 594.202 23.82 594.562 23.508C594.922 23.172 595.222 22.932 595.462 22.788C595.966 22.452 596.482 22.248 597.01 22.176C597.562 22.104 598.03 22.224 598.414 22.536C598.486 22.608 598.606 22.728 598.774 22.896C598.942 23.064 599.134 23.256 599.35 23.472C599.59 23.664 599.83 23.868 600.07 24.084L601.402 25.272L600.754 27.072C600.442 28.032 600.358 28.872 600.502 29.592C600.67 30.312 600.91 30.936 601.222 31.464C601.342 31.728 601.582 31.98 601.942 32.22C602.326 32.46 602.686 32.604 603.022 32.652C603.214 32.676 603.394 32.748 603.562 32.868C603.73 32.988 603.814 33.18 603.814 33.444C603.814 33.684 603.766 33.876 603.67 34.02C603.574 34.164 603.406 34.26 603.166 34.308C602.374 34.404 601.63 34.212 600.934 33.732C600.262 33.252 599.638 32.46 599.062 31.356C598.966 31.212 598.834 30.948 598.666 30.564C598.522 30.156 598.438 29.892 598.414 29.772C598.318 29.892 598.138 30.12 597.874 30.456C597.61 30.768 597.406 30.996 597.262 31.14C595.558 32.868 594.082 34.032 592.834 34.632C591.61 35.208 590.59 35.232 589.774 34.704ZM591.07 32.688C591.07 32.856 591.322 32.856 591.826 32.688C592.354 32.496 592.918 32.16 593.518 31.68C594.334 30.984 595.15 30.216 595.966 29.376C596.806 28.536 597.478 27.756 597.982 27.036L598.774 25.74C598.534 25.188 598.27 24.816 597.982 24.624C597.718 24.408 597.49 24.3 597.298 24.3C596.986 24.3 596.518 24.588 595.894 25.164C595.294 25.74 594.646 26.508 593.95 27.468C593.254 28.428 592.594 29.484 591.97 30.636C591.73 31.116 591.514 31.584 591.322 32.04C591.154 32.472 591.07 32.688 591.07 32.688ZM615.431 37.836C615.215 37.74 614.963 37.548 614.675 37.26C614.171 36.924 613.787 36.54 613.523 36.108C613.259 35.7 613.103 35.112 613.055 34.344C613.055 34.224 613.163 34.032 613.379 33.768C613.595 33.48 613.871 33.252 614.207 33.084C614.543 32.916 614.891 32.964 615.251 33.228C615.083 33.732 614.975 34.152 614.927 34.488C614.903 34.824 614.999 35.1 615.215 35.316C615.431 35.508 615.851 35.676 616.475 35.82C616.883 35.916 617.267 35.952 617.627 35.928C618.011 35.904 618.467 35.844 618.995 35.748C619.547 35.7 620.027 35.652 620.435 35.604C620.867 35.556 621.167 35.448 621.335 35.28C622.007 35.016 622.619 34.68 623.171 34.272C623.747 33.864 624.131 33.456 624.323 33.048C624.611 32.664 624.767 32.364 624.791 32.148C624.815 31.932 624.827 31.56 624.827 31.032C624.803 30.528 624.767 30.144 624.719 29.88C624.695 29.592 624.611 29.28 624.467 28.944C624.323 28.584 624.071 28.044 623.711 27.324C623.711 27.18 623.531 26.904 623.171 26.496C622.811 26.088 622.463 25.692 622.127 25.308C621.959 24.924 621.743 24.492 621.479 24.012C621.239 23.532 620.951 23.184 620.615 22.968C620.519 22.824 620.423 22.608 620.327 22.32C620.231 22.032 620.147 21.876 620.075 21.852C620.075 21.852 620.039 21.792 619.967 21.672C619.919 21.552 619.859 21.408 619.787 21.24C619.451 20.52 619.415 19.644 619.679 18.612C619.943 17.58 620.471 16.608 621.263 15.696C621.455 15.384 621.743 15.024 622.127 14.616C622.535 14.184 622.919 13.812 623.279 13.5C623.663 13.188 623.903 13.032 623.999 13.032C623.999 13.032 624.071 13.008 624.215 12.96C624.383 12.888 624.587 12.768 624.827 12.6C625.115 12.528 625.415 12.42 625.727 12.276C626.063 12.132 626.387 12.06 626.699 12.06C627.131 11.916 627.455 11.82 627.671 11.772C627.887 11.7 628.103 11.676 628.319 11.7C628.535 11.7 628.871 11.724 629.327 11.772C629.951 11.94 630.443 12.18 630.803 12.492C631.163 12.78 631.415 13.164 631.559 13.644L631.811 15.192L630.299 16.308C630.011 16.404 629.687 16.452 629.327 16.452C628.967 16.452 628.655 16.44 628.391 16.416C628.151 16.368 628.031 16.344 628.031 16.344C627.887 16.344 627.827 16.272 627.851 16.128C627.875 15.984 627.971 15.912 628.139 15.912C628.211 15.864 628.307 15.756 628.427 15.588C628.571 15.42 628.763 15.228 629.003 15.012C629.267 14.556 629.327 14.28 629.183 14.184C629.063 14.064 628.583 14.052 627.743 14.148C626.927 14.172 626.123 14.388 625.331 14.796C624.563 15.18 623.915 15.756 623.387 16.524C622.763 17.052 622.319 17.592 622.055 18.144C621.791 18.696 621.659 19.176 621.659 19.584C621.707 19.752 621.779 19.992 621.875 20.304C621.971 20.592 622.103 20.904 622.271 21.24C623.279 22.656 624.011 23.652 624.467 24.228C624.923 24.804 625.151 25.152 625.151 25.272C625.151 25.368 625.151 25.428 625.151 25.452C625.175 25.452 625.271 25.608 625.439 25.92C625.631 26.232 625.811 26.568 625.979 26.928C626.147 27.264 626.231 27.48 626.231 27.576C626.231 27.576 626.255 27.648 626.303 27.792C626.375 27.912 626.459 28.092 626.555 28.332C626.651 28.404 626.735 28.68 626.807 29.16C626.879 29.64 626.939 30.144 626.987 30.672C627.059 31.2 627.095 31.608 627.095 31.896C627.095 32.184 627.023 32.496 626.879 32.832C626.735 33.144 626.555 33.456 626.339 33.768C626.123 34.08 625.883 34.38 625.619 34.668C625.355 34.956 624.947 35.316 624.395 35.748C623.843 36.156 623.255 36.54 622.631 36.9C622.031 37.284 621.467 37.536 620.939 37.656C620.579 37.8 620.111 37.908 619.535 37.98C618.983 38.076 618.407 38.136 617.807 38.16C617.231 38.184 616.715 38.16 616.259 38.088C615.827 38.04 615.551 37.956 615.431 37.836ZM634.919 36.108C633.863 36.108 632.999 35.712 632.327 34.92C631.655 34.104 631.331 33.096 631.355 31.896C631.403 31.032 631.571 30.108 631.859 29.124C632.171 28.116 632.579 27.156 633.083 26.244C633.587 25.308 634.139 24.492 634.739 23.796C635.339 23.1 635.963 22.608 636.611 22.32C636.851 22.2 637.103 22.104 637.367 22.032C637.655 21.96 637.943 21.924 638.231 21.924C638.495 21.924 638.771 21.972 639.059 22.068C639.347 22.14 639.587 22.224 639.779 22.32C640.187 22.488 640.499 22.692 640.715 22.932C640.931 23.172 641.123 23.544 641.291 24.048C641.363 24.504 641.399 24.828 641.399 25.02C641.399 25.212 641.339 25.5 641.219 25.884C640.931 26.748 640.559 27.492 640.103 28.116C639.647 28.74 639.035 29.268 638.267 29.7C638.075 29.82 637.847 29.916 637.583 29.988C637.343 30.036 637.091 30.06 636.827 30.06C636.347 30.06 635.879 29.976 635.423 29.808C634.991 29.616 634.643 29.34 634.379 28.98L634.127 28.692L634.019 28.98C633.779 29.628 633.587 30.228 633.443 30.78C633.323 31.332 633.263 31.836 633.263 32.292C633.263 32.58 633.287 32.856 633.335 33.12C633.407 33.384 633.503 33.612 633.623 33.804C633.719 33.948 633.875 34.056 634.091 34.128C634.331 34.176 634.583 34.2 634.847 34.2C635.015 34.2 635.183 34.2 635.351 34.2C635.543 34.176 635.723 34.128 635.891 34.056C636.299 33.912 636.623 33.756 636.863 33.588C637.127 33.42 637.391 33.24 637.655 33.048L637.799 32.976H637.763C638.051 32.832 638.303 32.688 638.519 32.544C638.759 32.4 638.879 32.328 638.879 32.328C638.975 32.328 639.071 32.268 639.167 32.148C639.359 32.052 639.599 32.088 639.887 32.256C640.199 32.424 640.355 32.64 640.355 32.904C640.331 33.024 640.223 33.216 640.031 33.48C639.839 33.72 639.623 33.948 639.383 34.164C639.167 34.38 638.987 34.5 638.843 34.524C638.819 34.548 638.735 34.596 638.591 34.668C638.447 34.716 638.351 34.764 638.303 34.812H638.339C638.123 35.1 637.907 35.244 637.691 35.244H637.403C637.307 35.412 636.995 35.604 636.467 35.82C635.939 36.012 635.423 36.108 634.919 36.108ZM636.539 28.188C636.971 28.188 637.343 28.068 637.655 27.828C637.991 27.564 638.279 27.276 638.519 26.964C638.999 26.316 639.275 25.692 639.347 25.092C639.443 24.468 639.371 24.036 639.131 23.796C638.987 23.724 638.855 23.688 638.735 23.688C638.639 23.664 638.435 23.7 638.123 23.796C637.907 23.844 637.607 24.024 637.223 24.336C636.839 24.648 636.455 24.996 636.071 25.38C635.711 25.764 635.435 26.088 635.243 26.352L634.775 27.108C634.967 27.036 635.147 27 635.315 27C635.507 26.976 635.615 26.988 635.639 27.036C635.639 27.252 635.675 27.456 635.747 27.648C635.843 27.816 635.951 27.948 636.071 28.044C636.215 28.14 636.371 28.188 636.539 28.188ZM659.406 34.488C659.286 34.44 659.106 34.32 658.866 34.128C658.626 33.936 658.422 33.612 658.254 33.156C658.086 32.676 658.002 32.016 658.002 31.176C658.026 30.456 658.038 29.892 658.038 29.484C658.062 29.076 657.978 28.872 657.786 28.872C657.594 28.872 657.222 29.064 656.67 29.448C656.142 29.808 655.53 30.3 654.834 30.924C654.138 31.548 653.43 32.244 652.71 33.012C652.47 33.276 652.23 33.528 651.99 33.768C651.774 33.984 651.558 34.128 651.342 34.2C651.126 34.248 650.874 34.164 650.586 33.948L650.19 33.624C650.07 33.504 649.998 33.384 649.974 33.264C649.95 33.12 649.962 32.964 650.01 32.796L650.838 30.42C651.222 29.556 651.486 28.932 651.63 28.548C651.774 28.14 651.846 27.888 651.846 27.792C651.846 27.672 651.81 27.624 651.738 27.648C651.546 27.672 651.258 27.792 650.874 28.008C650.49 28.2 650.238 28.392 650.118 28.584C650.022 28.584 649.878 28.692 649.686 28.908C649.494 29.124 649.254 29.328 648.966 29.52C648.798 29.808 648.462 30.18 647.958 30.636C647.478 31.092 646.998 31.56 646.518 32.04C646.206 32.304 645.894 32.628 645.582 33.012C645.294 33.396 645.042 33.732 644.826 34.02C644.634 34.308 644.502 34.452 644.43 34.452C644.118 34.452 643.83 34.368 643.566 34.2C643.326 34.032 643.146 33.756 643.026 33.372C642.834 32.964 642.834 32.4 643.026 31.68C643.218 30.936 643.434 29.976 643.674 28.8C643.77 28.44 643.83 28.176 643.854 28.008C643.878 27.84 643.914 27.672 643.962 27.504C644.034 27.312 644.142 27.024 644.286 26.64C644.454 26.256 644.706 25.68 645.042 24.912C645.21 24.456 645.306 24.12 645.33 23.904C645.378 23.664 645.402 23.496 645.402 23.4C645.402 23.16 645.462 22.956 645.582 22.788C645.726 22.62 645.894 22.5 646.086 22.428C646.278 22.356 646.458 22.344 646.626 22.392C646.89 22.44 647.118 22.572 647.31 22.788C647.526 23.004 647.646 23.304 647.67 23.688C647.694 23.976 647.67 24.24 647.598 24.48C647.526 24.696 647.454 24.9 647.382 25.092L646.986 26.064C646.866 26.328 646.71 26.712 646.518 27.216C646.326 27.72 646.158 28.188 646.014 28.62C645.87 29.028 645.798 29.268 645.798 29.34C645.822 29.412 645.906 29.4 646.05 29.304C646.194 29.184 646.374 29.028 646.59 28.836C646.83 28.62 647.07 28.416 647.31 28.224C647.814 27.744 648.378 27.288 649.002 26.856C649.65 26.4 650.262 26.016 650.838 25.704C651.414 25.392 651.858 25.188 652.17 25.092C652.578 25.092 652.854 25.164 652.998 25.308C653.166 25.452 653.442 25.716 653.826 26.1C653.994 26.268 654.09 26.484 654.114 26.748C654.138 27.012 654.126 27.264 654.078 27.504C654.054 27.6 653.982 27.84 653.862 28.224C653.742 28.584 653.622 28.932 653.502 29.268C653.406 29.604 653.358 29.772 653.358 29.772C653.358 29.772 653.49 29.652 653.754 29.412C654.042 29.172 654.354 28.92 654.69 28.656C655.026 28.368 655.278 28.152 655.446 28.008C656.382 27.288 657.198 26.832 657.894 26.64C658.59 26.448 659.154 26.7 659.586 27.396C659.874 27.66 660.018 27.948 660.018 28.26C660.042 28.572 660.054 29.112 660.054 29.88C660.078 30.192 660.102 30.564 660.126 30.996C660.15 31.428 660.174 31.824 660.198 32.184C660.246 32.52 660.294 32.724 660.342 32.796C660.414 32.892 660.546 32.976 660.738 33.048C660.954 33.096 661.23 33.144 661.566 33.192C661.926 33.24 662.142 33.396 662.214 33.66C662.286 33.924 662.13 34.176 661.746 34.416C661.386 34.632 660.99 34.728 660.558 34.704C660.126 34.68 659.742 34.608 659.406 34.488ZM665.547 34.812C665.259 34.86 664.947 34.812 664.611 34.668C664.275 34.524 663.975 34.32 663.711 34.056C663.471 33.792 663.315 33.516 663.243 33.228C663.147 32.724 663.207 32.1 663.423 31.356C663.663 30.588 663.999 29.784 664.431 28.944C664.887 28.08 665.391 27.252 665.943 26.46C666.519 25.668 667.107 24.984 667.707 24.408C668.331 23.808 668.907 23.4 669.435 23.184C669.699 23.016 669.903 22.908 670.047 22.86C670.215 22.788 670.383 22.776 670.551 22.824C670.743 22.872 671.019 22.992 671.379 23.184C671.715 23.28 671.967 23.388 672.135 23.508C672.303 23.628 672.519 23.868 672.783 24.228C672.975 24.588 673.119 24.948 673.215 25.308C673.311 25.668 673.395 26.076 673.467 26.532C673.659 27.132 673.731 27.528 673.683 27.72C673.635 27.888 673.563 28.02 673.467 28.116C673.275 28.356 673.227 28.476 673.323 28.476C673.323 28.476 673.311 28.524 673.287 28.62C673.287 28.692 673.239 28.812 673.143 28.98C672.975 29.508 672.843 30.06 672.747 30.636C672.675 31.188 672.687 31.644 672.783 32.004C672.975 32.532 673.323 32.844 673.827 32.94C674.331 33.036 674.847 32.82 675.375 32.292C675.639 32.1 675.891 31.932 676.131 31.788C676.371 31.62 676.491 31.632 676.491 31.824C676.491 31.824 676.527 31.86 676.599 31.932C676.671 31.98 676.755 32.004 676.851 32.004C676.971 32.004 677.043 32.052 677.067 32.148C677.115 32.244 677.115 32.376 677.067 32.544C677.043 32.688 676.971 32.856 676.851 33.048C676.491 33.408 676.311 33.648 676.311 33.768C676.311 33.768 676.263 33.816 676.167 33.912C676.095 33.984 675.963 34.104 675.771 34.272C675.339 34.536 674.787 34.668 674.115 34.668C673.467 34.668 672.963 34.536 672.603 34.272C672.243 34.008 671.907 33.648 671.595 33.192C671.307 32.736 671.115 32.34 671.019 32.004L670.839 31.644L669.795 32.328C669.531 32.592 669.243 32.844 668.931 33.084C668.643 33.324 668.451 33.492 668.355 33.588C668.283 33.684 668.199 33.768 668.103 33.84C668.031 33.912 667.947 33.948 667.851 33.948C667.755 33.948 667.671 33.948 667.599 33.948C667.527 33.948 667.491 33.948 667.491 33.948C667.491 34.044 667.371 34.164 667.131 34.308C666.915 34.452 666.651 34.572 666.339 34.668C666.051 34.764 665.787 34.812 665.547 34.812ZM665.187 32.868C665.331 32.868 665.583 32.76 665.943 32.544C666.327 32.304 666.747 32.028 667.203 31.716C667.683 31.404 668.103 31.092 668.463 30.78C668.847 30.468 669.111 30.228 669.255 30.06C669.351 29.964 669.507 29.808 669.723 29.592C669.939 29.352 670.131 29.148 670.299 28.98C670.851 28.356 671.235 27.672 671.451 26.928C671.667 26.16 671.643 25.56 671.379 25.128C671.283 24.864 671.163 24.72 671.019 24.696C670.875 24.672 670.575 24.756 670.119 24.948C669.831 25.116 669.471 25.44 669.039 25.92C668.631 26.376 668.187 26.916 667.707 27.54C667.251 28.14 666.819 28.764 666.411 29.412C666.003 30.06 665.667 30.66 665.403 31.212C665.139 31.764 665.007 32.196 665.007 32.508C665.007 32.604 665.031 32.688 665.079 32.76C665.151 32.832 665.187 32.868 665.187 32.868ZM689.24 35.568C689 35.568 688.748 35.436 688.484 35.172C688.244 34.908 688.028 34.584 687.836 34.2C687.668 33.792 687.584 33.408 687.584 33.048C687.584 32.688 687.668 32.016 687.836 31.032C688.028 30.048 688.256 29.052 688.52 28.044C688.712 27.42 688.772 27.06 688.7 26.964C688.628 26.868 688.304 27 687.728 27.36C687.392 27.528 687.092 27.708 686.828 27.9C686.564 28.068 686.336 28.26 686.144 28.476C686.024 28.572 685.844 28.728 685.604 28.944C685.364 29.16 685.112 29.364 684.848 29.556C684.536 29.796 684.14 30.132 683.66 30.564C683.18 30.996 682.7 31.428 682.22 31.86C681.764 32.292 681.416 32.628 681.176 32.868C681.128 32.964 681.056 33.048 680.96 33.12C680.864 33.192 680.756 33.24 680.636 33.264C680.516 33.264 680.384 33.24 680.24 33.192C679.976 33.12 679.724 32.964 679.484 32.724C679.268 32.484 679.16 32.208 679.16 31.896C679.16 31.656 679.256 31.248 679.448 30.672C679.64 30.072 679.892 29.352 680.204 28.512C680.54 27.672 680.924 26.784 681.356 25.848C681.428 25.728 681.488 25.584 681.536 25.416C681.584 25.224 681.62 25.02 681.644 24.804C681.692 24.588 681.716 24.384 681.716 24.192C681.716 24.072 681.728 23.952 681.752 23.832C681.8 23.688 681.848 23.556 681.896 23.436C681.968 23.292 682.028 23.196 682.076 23.148C682.172 22.956 682.34 22.908 682.58 23.004C682.82 23.076 683.024 23.244 683.192 23.508C683.552 23.844 683.732 24.264 683.732 24.768C683.756 25.272 683.636 25.896 683.372 26.64C683.276 26.808 683.192 26.976 683.12 27.144C683.072 27.288 683.024 27.42 682.976 27.54C682.928 27.636 682.892 27.72 682.868 27.792C682.844 27.84 682.832 27.864 682.832 27.864C682.928 27.864 683.144 27.756 683.48 27.54C683.816 27.324 684.212 27.084 684.668 26.82C685.028 26.556 685.34 26.316 685.604 26.1C685.892 25.86 686.132 25.68 686.324 25.56C686.516 25.416 686.636 25.344 686.684 25.344C686.78 25.344 686.9 25.308 687.044 25.236C687.188 25.164 687.308 25.08 687.404 24.984C687.5 24.888 687.572 24.84 687.62 24.84C687.692 24.816 687.728 24.804 687.728 24.804C687.728 24.804 687.776 24.804 687.872 24.804C687.968 24.78 688.064 24.72 688.16 24.624C688.352 24.48 688.604 24.444 688.916 24.516C689.228 24.564 689.516 24.684 689.78 24.876C690.044 25.068 690.176 25.284 690.176 25.524C690.176 25.62 690.2 25.704 690.248 25.776C690.32 25.824 690.356 25.848 690.356 25.848C690.548 25.848 690.668 26.148 690.716 26.748C690.788 27.348 690.728 27.924 690.536 28.476C690.536 28.836 690.464 29.268 690.32 29.772C690.2 30.276 690.092 30.756 689.996 31.212C689.804 31.812 689.672 32.34 689.6 32.796C689.528 33.252 689.516 33.636 689.564 33.948C689.612 34.26 689.696 34.512 689.816 34.704C689.912 34.872 689.912 35.064 689.816 35.28C689.72 35.472 689.528 35.568 689.24 35.568ZM694.54 34.704C694.444 34.512 694.324 34.368 694.18 34.272C694.036 34.152 693.964 34.044 693.964 33.948C693.964 33.852 693.952 33.756 693.928 33.66C693.928 33.54 693.88 33.432 693.784 33.336C693.664 33.192 693.676 32.868 693.82 32.364C693.964 31.836 694.204 31.2 694.54 30.456C694.876 29.688 695.272 28.884 695.728 28.044C695.92 27.852 696.112 27.6 696.304 27.288C696.496 26.976 696.64 26.772 696.736 26.676C696.736 26.58 696.772 26.496 696.844 26.424C696.916 26.328 697 26.28 697.096 26.28V26.064C697.096 25.944 697.204 25.74 697.42 25.452C697.66 25.164 697.948 24.852 698.284 24.516C698.62 24.156 698.968 23.82 699.328 23.508C699.688 23.172 699.988 22.932 700.228 22.788C700.732 22.452 701.248 22.248 701.776 22.176C702.328 22.104 702.796 22.224 703.18 22.536C703.252 22.608 703.372 22.728 703.54 22.896C703.708 23.064 703.9 23.256 704.116 23.472C704.356 23.664 704.596 23.868 704.836 24.084L706.168 25.272L705.52 27.072C705.208 28.032 705.124 28.872 705.268 29.592C705.436 30.312 705.676 30.936 705.988 31.464C706.108 31.728 706.348 31.98 706.708 32.22C707.092 32.46 707.452 32.604 707.788 32.652C707.98 32.676 708.16 32.748 708.328 32.868C708.496 32.988 708.58 33.18 708.58 33.444C708.58 33.684 708.532 33.876 708.436 34.02C708.34 34.164 708.172 34.26 707.932 34.308C707.14 34.404 706.396 34.212 705.7 33.732C705.028 33.252 704.404 32.46 703.828 31.356C703.732 31.212 703.6 30.948 703.432 30.564C703.288 30.156 703.204 29.892 703.18 29.772C703.084 29.892 702.904 30.12 702.64 30.456C702.376 30.768 702.172 30.996 702.028 31.14C700.324 32.868 698.848 34.032 697.6 34.632C696.376 35.208 695.356 35.232 694.54 34.704ZM695.836 32.688C695.836 32.856 696.088 32.856 696.592 32.688C697.12 32.496 697.684 32.16 698.284 31.68C699.1 30.984 699.916 30.216 700.732 29.376C701.572 28.536 702.244 27.756 702.748 27.036L703.54 25.74C703.3 25.188 703.036 24.816 702.748 24.624C702.484 24.408 702.256 24.3 702.064 24.3C701.752 24.3 701.284 24.588 700.66 25.164C700.06 25.74 699.412 26.508 698.716 27.468C698.02 28.428 697.36 29.484 696.736 30.636C696.496 31.116 696.28 31.584 696.088 32.04C695.92 32.472 695.836 32.688 695.836 32.688ZM719.081 37.728C718.793 37.728 718.553 37.572 718.361 37.26C718.217 37.116 718.121 36.912 718.073 36.648C718.049 36.408 718.133 35.964 718.325 35.316C718.517 34.644 718.841 33.624 719.297 32.256C719.537 31.344 719.729 30.684 719.873 30.276C720.017 29.844 720.089 29.532 720.089 29.34C720.089 29.076 720.113 28.86 720.161 28.692C720.233 28.5 720.269 28.32 720.269 28.152C720.413 28.152 720.557 28.02 720.701 27.756C720.845 27.492 720.965 27.132 721.061 26.676C721.157 26.268 721.241 25.944 721.313 25.704C721.409 25.44 721.457 25.26 721.457 25.164C721.577 24.972 721.697 24.672 721.817 24.264C721.961 23.856 722.177 23.364 722.465 22.788C722.657 22.068 722.873 21.324 723.113 20.556C723.353 19.764 723.593 19.032 723.833 18.36C724.097 17.664 724.313 17.124 724.481 16.74C724.745 15.996 724.949 15.48 725.093 15.192C725.237 14.88 725.237 14.676 725.093 14.58C724.925 14.46 724.889 14.256 724.985 13.968C725.081 13.68 725.345 13.356 725.777 12.996C726.041 12.684 726.269 12.468 726.461 12.348C726.653 12.204 726.893 12.132 727.181 12.132C727.493 12.132 727.937 12.156 728.513 12.204C728.945 12.228 729.401 12.24 729.881 12.24C730.385 12.24 730.697 12.24 730.817 12.24C731.033 12.336 731.297 12.444 731.609 12.564C731.921 12.66 732.197 12.756 732.437 12.852C732.701 12.948 732.833 13.032 732.833 13.104C732.833 13.248 732.881 13.344 732.977 13.392C733.097 13.416 733.217 13.44 733.337 13.464C733.505 13.464 733.733 13.596 734.021 13.86C734.309 14.1 734.609 14.412 734.921 14.796C735.233 15.156 735.473 15.54 735.641 15.948C735.833 16.356 735.977 16.74 736.073 17.1C736.193 17.46 736.193 17.976 736.073 18.648C736.049 19.008 735.989 19.368 735.893 19.728C735.821 20.088 735.737 20.328 735.641 20.448C735.497 20.544 735.365 20.664 735.245 20.808C735.125 20.952 735.065 21.084 735.065 21.204C735.065 21.3 734.981 21.492 734.813 21.78C734.645 22.044 734.429 22.356 734.165 22.716C733.901 23.076 733.613 23.436 733.301 23.796C732.989 24.156 732.689 24.468 732.401 24.732C732.089 25.116 731.717 25.476 731.285 25.812C730.877 26.148 730.505 26.424 730.169 26.64C729.545 26.928 728.849 27.216 728.081 27.504C727.337 27.792 726.617 28.032 725.921 28.224C725.249 28.416 724.685 28.5 724.229 28.476C723.533 28.572 723.077 28.668 722.861 28.764C722.669 28.836 722.525 29.04 722.429 29.376C722.309 29.688 722.189 30.012 722.069 30.348C721.973 30.66 721.925 30.876 721.925 30.996C721.877 31.092 721.757 31.392 721.565 31.896C721.397 32.376 721.205 32.94 720.989 33.588C720.797 34.236 720.605 34.872 720.413 35.496C720.221 36.12 720.077 36.636 719.981 37.044C719.885 37.38 719.765 37.572 719.621 37.62C719.477 37.692 719.297 37.728 719.081 37.728ZM723.545 26.568C723.641 26.664 724.013 26.676 724.661 26.604C725.309 26.532 726.005 26.352 726.749 26.064C727.229 25.896 727.709 25.692 728.189 25.452C728.693 25.212 729.173 24.948 729.629 24.66C729.869 24.492 730.229 24.192 730.709 23.76C731.189 23.328 731.669 22.812 732.149 22.212C732.221 22.092 732.341 21.864 732.509 21.528C732.701 21.168 732.869 20.832 733.013 20.52C733.229 20.184 733.445 19.692 733.661 19.044C733.877 18.372 733.925 17.82 733.805 17.388C733.685 16.764 733.373 16.188 732.869 15.66C732.365 15.108 731.765 14.736 731.069 14.544C730.541 14.448 730.097 14.4 729.737 14.4C729.401 14.4 729.029 14.436 728.621 14.508C728.237 14.628 727.949 14.796 727.757 15.012C727.589 15.228 727.361 15.684 727.073 16.38C726.905 16.716 726.665 17.232 726.353 17.928C726.041 18.6 725.777 19.236 725.561 19.836C725.129 21.42 724.697 22.728 724.265 23.76C723.857 24.768 723.605 25.404 723.509 25.668C723.533 25.932 723.521 26.124 723.473 26.244C723.425 26.34 723.449 26.448 723.545 26.568ZM736.687 34.956C736.495 35.004 736.243 35.028 735.931 35.028C735.619 35.004 735.343 34.968 735.103 34.92C734.887 34.848 734.779 34.776 734.779 34.704C734.779 34.584 734.719 34.524 734.599 34.524C734.599 34.524 734.539 34.476 734.419 34.38C734.323 34.284 734.167 34.188 733.951 34.092C733.735 33.756 733.627 33.396 733.627 33.012C733.627 32.604 733.735 31.968 733.951 31.104C734.023 30.504 734.251 29.808 734.635 29.016C735.043 28.2 735.535 27.372 736.111 26.532C736.687 25.692 737.287 24.936 737.911 24.264C738.559 23.592 739.147 23.1 739.675 22.788C740.011 22.452 740.419 22.272 740.899 22.248C741.379 22.224 741.835 22.332 742.267 22.572C742.507 22.692 742.747 22.884 742.987 23.148C743.227 23.412 743.455 23.7 743.671 24.012C743.887 24.324 744.067 24.636 744.211 24.948C744.283 25.212 744.319 25.452 744.319 25.668C744.343 25.86 744.343 26.1 744.319 26.388C744.319 26.676 744.283 27.108 744.211 27.684C744.091 28.116 743.983 28.644 743.887 29.268C743.815 29.892 743.779 30.432 743.779 30.888C743.731 31.344 743.779 31.668 743.923 31.86C744.091 32.052 744.331 32.064 744.643 31.896C744.931 31.752 745.207 31.692 745.471 31.716C745.735 31.716 745.939 31.788 746.083 31.932C746.251 32.076 746.335 32.292 746.335 32.58C746.335 32.868 746.191 33.168 745.903 33.48C745.639 33.768 745.303 34.02 744.895 34.236C744.511 34.428 744.139 34.524 743.779 34.524C743.515 34.524 743.263 34.368 743.023 34.056C742.783 33.72 742.567 33.324 742.375 32.868C742.207 32.388 742.051 31.932 741.907 31.5L741.691 30.672L740.143 32.148C739.831 32.484 739.519 32.796 739.207 33.084C738.919 33.348 738.739 33.54 738.667 33.66C738.547 33.876 738.319 34.092 737.983 34.308C737.671 34.524 737.239 34.74 736.687 34.956ZM736.795 32.832C737.203 32.592 737.671 32.244 738.199 31.788C738.727 31.308 739.243 30.792 739.747 30.24C740.251 29.664 740.671 29.136 741.007 28.656C741.415 28.104 741.727 27.588 741.943 27.108C742.159 26.628 742.315 26.172 742.411 25.74C742.315 25.476 742.159 25.2 741.943 24.912C741.727 24.6 741.535 24.432 741.367 24.408C740.839 24.408 740.275 24.744 739.675 25.416C739.099 26.064 738.535 26.772 737.983 27.54C737.887 27.66 737.755 27.852 737.587 28.116C737.419 28.38 737.251 28.632 737.083 28.872C736.939 29.088 736.843 29.232 736.795 29.304C736.723 29.4 736.579 29.676 736.363 30.132C736.171 30.564 735.979 31.008 735.787 31.464C735.595 31.896 735.499 32.184 735.499 32.328C735.499 32.472 735.511 32.628 735.535 32.796C735.583 32.964 735.703 33.072 735.895 33.12C736.087 33.168 736.387 33.072 736.795 32.832ZM751.389 35.496C750.189 35.496 749.313 35.064 748.761 34.2C748.593 33.96 748.509 33.72 748.509 33.48C748.533 33.216 748.605 33.036 748.725 32.94C748.869 32.844 749.037 32.928 749.229 33.192C749.565 33.384 750.045 33.48 750.669 33.48C750.981 33.48 751.305 33.456 751.641 33.408C751.977 33.336 752.313 33.24 752.649 33.12C753.009 32.952 753.249 32.808 753.369 32.688C753.489 32.544 753.465 32.424 753.297 32.328H753.333C752.709 32.16 752.073 31.896 751.425 31.536C750.801 31.152 750.261 30.744 749.805 30.312C749.349 29.856 749.085 29.448 749.013 29.088C748.821 28.344 748.869 27.588 749.157 26.82C749.445 26.028 749.853 25.332 750.381 24.732C750.573 24.612 750.813 24.468 751.101 24.3C751.389 24.108 751.617 24 751.785 23.976V24.012C752.241 23.532 752.793 23.148 753.441 22.86C754.113 22.572 754.821 22.308 755.565 22.068L756.105 21.996C756.393 21.948 756.633 21.924 756.825 21.924C756.801 21.924 756.849 21.948 756.969 21.996C757.089 22.02 757.197 22.044 757.293 22.068C757.437 22.14 757.557 22.176 757.653 22.176C757.965 22.224 758.253 22.368 758.517 22.608C758.781 22.848 758.985 23.136 759.129 23.472C759.297 23.784 759.357 24.084 759.309 24.372C759.261 24.828 759.117 25.236 758.877 25.596C758.661 25.956 758.397 26.16 758.085 26.208C758.133 26.184 758.097 26.148 757.977 26.1C757.881 26.028 757.773 25.956 757.653 25.884L757.545 25.956C757.545 25.956 757.533 25.932 757.509 25.884C757.509 25.812 757.485 25.728 757.437 25.632C757.365 25.488 757.329 25.332 757.329 25.164C757.329 24.972 757.341 24.768 757.365 24.552C757.413 24.288 757.413 24.132 757.365 24.084C757.341 24.036 757.185 24 756.897 23.976C756.561 23.904 756.069 23.964 755.421 24.156C754.797 24.348 754.269 24.612 753.837 24.948C753.309 25.284 752.865 25.608 752.505 25.92C752.145 26.208 751.857 26.496 751.641 26.784C751.425 27.048 751.233 27.36 751.065 27.72C750.945 27.888 750.837 28.056 750.741 28.224C750.669 28.368 750.633 28.5 750.633 28.62C750.633 28.884 750.825 29.16 751.209 29.448C751.617 29.712 752.217 30.024 753.009 30.384C753.633 30.648 754.161 30.936 754.593 31.248C755.025 31.56 755.325 31.92 755.493 32.328C755.541 32.424 755.553 32.544 755.529 32.688C755.529 32.808 755.505 32.892 755.457 32.94C755.505 32.988 755.529 33.024 755.529 33.048V33.012C755.721 33.3 755.721 33.6 755.529 33.912C755.361 34.224 755.061 34.5 754.629 34.74C754.221 34.956 753.717 35.124 753.117 35.244H753.153C752.841 35.34 752.529 35.412 752.217 35.46C751.929 35.484 751.653 35.496 751.389 35.496ZM762.542 36.144C762.086 35.952 761.654 35.7 761.246 35.388C760.838 35.052 760.574 34.776 760.454 34.56C760.454 34.344 760.49 34.2 760.562 34.128C760.634 34.032 760.838 33.996 761.174 34.02C761.534 34.02 762.11 34.068 762.902 34.164C763.19 34.164 763.55 34.14 763.982 34.092C764.414 34.044 764.81 33.972 765.17 33.876C765.554 33.78 765.77 33.66 765.818 33.516C765.938 33.516 765.962 33.48 765.89 33.408C765.818 33.312 765.734 33.216 765.638 33.12C765.542 33.12 765.434 33.084 765.314 33.012C765.194 32.916 765.086 32.868 764.99 32.868C764.99 32.748 764.87 32.616 764.63 32.472C764.414 32.304 764.186 32.172 763.946 32.076C763.418 31.644 762.962 31.26 762.578 30.924C762.194 30.564 762.05 30.324 762.146 30.204C762.146 30.108 762.146 30.06 762.146 30.06C762.146 30.036 762.146 30.024 762.146 30.024C761.978 30.024 761.786 29.784 761.57 29.304C761.378 28.824 761.282 28.392 761.282 28.008C761.282 27.72 761.366 27.36 761.534 26.928C761.702 26.472 761.93 26.004 762.218 25.524C762.506 25.044 762.806 24.648 763.118 24.336C763.55 23.928 764.09 23.496 764.738 23.04C765.386 22.56 766.022 22.14 766.646 21.78C767.294 21.396 767.834 21.144 768.266 21.024C768.698 20.856 769.094 20.772 769.454 20.772C769.838 20.772 770.174 20.856 770.462 21.024C770.702 21.144 770.918 21.324 771.11 21.564C771.326 21.78 771.506 22.008 771.65 22.248C771.818 22.464 771.926 22.656 771.974 22.824C771.974 23.112 771.95 23.436 771.902 23.796C771.854 24.132 771.782 24.432 771.686 24.696C771.614 24.96 771.494 25.092 771.326 25.092C771.326 25.092 771.29 25.104 771.218 25.128C771.17 25.128 771.146 25.188 771.146 25.308C771.146 25.548 770.966 25.824 770.606 26.136C770.15 26.448 769.754 26.64 769.418 26.712C769.082 26.76 768.878 26.628 768.806 26.316C768.734 26.22 768.686 26.136 768.662 26.064C768.638 25.992 768.578 25.956 768.482 25.956C768.482 25.956 768.446 25.92 768.374 25.848C768.302 25.776 768.266 25.656 768.266 25.488C768.266 25.392 768.302 25.308 768.374 25.236C768.446 25.14 768.482 25.092 768.482 25.092C768.602 25.092 768.758 24.96 768.95 24.696C769.142 24.408 769.31 24.108 769.454 23.796C769.622 23.46 769.706 23.232 769.706 23.112C769.706 22.968 769.682 22.884 769.634 22.86C769.61 22.836 769.502 22.824 769.31 22.824C768.974 22.968 768.566 23.16 768.086 23.4C767.606 23.64 767.15 23.88 766.718 24.12C766.31 24.336 766.01 24.54 765.818 24.732C765.722 24.9 765.662 25.008 765.638 25.056C765.614 25.08 765.554 25.092 765.458 25.092C765.458 24.996 765.374 25.044 765.206 25.236C765.062 25.404 764.87 25.644 764.63 25.956C764.414 26.268 764.198 26.58 763.982 26.892C763.79 27.18 763.646 27.396 763.55 27.54C763.502 27.588 763.442 27.732 763.37 27.972C763.322 28.188 763.298 28.392 763.298 28.584C763.202 28.872 763.214 29.076 763.334 29.196C763.454 29.292 763.718 29.508 764.126 29.844C764.966 30.468 765.626 30.984 766.106 31.392C766.586 31.8 766.946 32.136 767.186 32.4C767.426 32.664 767.57 32.904 767.618 33.12C768.05 33.84 768.182 34.392 768.014 34.776C767.846 35.16 767.438 35.496 766.79 35.784C766.55 35.904 766.154 36 765.602 36.072C765.05 36.144 764.486 36.18 763.91 36.18C763.334 36.204 762.878 36.192 762.542 36.144ZM774.848 34.812C774.56 34.86 774.248 34.812 773.912 34.668C773.576 34.524 773.276 34.32 773.012 34.056C772.772 33.792 772.616 33.516 772.544 33.228C772.448 32.724 772.508 32.1 772.724 31.356C772.964 30.588 773.3 29.784 773.732 28.944C774.188 28.08 774.692 27.252 775.244 26.46C775.82 25.668 776.408 24.984 777.008 24.408C777.632 23.808 778.208 23.4 778.736 23.184C779 23.016 779.204 22.908 779.348 22.86C779.516 22.788 779.684 22.776 779.852 22.824C780.044 22.872 780.32 22.992 780.68 23.184C781.016 23.28 781.268 23.388 781.436 23.508C781.604 23.628 781.82 23.868 782.084 24.228C782.276 24.588 782.42 24.948 782.516 25.308C782.612 25.668 782.696 26.076 782.768 26.532C782.96 27.132 783.032 27.528 782.984 27.72C782.936 27.888 782.864 28.02 782.768 28.116C782.576 28.356 782.528 28.476 782.624 28.476C782.624 28.476 782.612 28.524 782.588 28.62C782.588 28.692 782.54 28.812 782.444 28.98C782.276 29.508 782.144 30.06 782.048 30.636C781.976 31.188 781.988 31.644 782.084 32.004C782.276 32.532 782.624 32.844 783.128 32.94C783.632 33.036 784.148 32.82 784.676 32.292C784.94 32.1 785.192 31.932 785.432 31.788C785.672 31.62 785.792 31.632 785.792 31.824C785.792 31.824 785.828 31.86 785.9 31.932C785.972 31.98 786.056 32.004 786.152 32.004C786.272 32.004 786.344 32.052 786.368 32.148C786.416 32.244 786.416 32.376 786.368 32.544C786.344 32.688 786.272 32.856 786.152 33.048C785.792 33.408 785.612 33.648 785.612 33.768C785.612 33.768 785.564 33.816 785.468 33.912C785.396 33.984 785.264 34.104 785.072 34.272C784.64 34.536 784.088 34.668 783.416 34.668C782.768 34.668 782.264 34.536 781.904 34.272C781.544 34.008 781.208 33.648 780.896 33.192C780.608 32.736 780.416 32.34 780.32 32.004L780.14 31.644L779.096 32.328C778.832 32.592 778.544 32.844 778.232 33.084C777.944 33.324 777.752 33.492 777.656 33.588C777.584 33.684 777.5 33.768 777.404 33.84C777.332 33.912 777.248 33.948 777.152 33.948C777.056 33.948 776.972 33.948 776.9 33.948C776.828 33.948 776.792 33.948 776.792 33.948C776.792 34.044 776.672 34.164 776.432 34.308C776.216 34.452 775.952 34.572 775.64 34.668C775.352 34.764 775.088 34.812 774.848 34.812ZM774.488 32.868C774.632 32.868 774.884 32.76 775.244 32.544C775.628 32.304 776.048 32.028 776.504 31.716C776.984 31.404 777.404 31.092 777.764 30.78C778.148 30.468 778.412 30.228 778.556 30.06C778.652 29.964 778.808 29.808 779.024 29.592C779.24 29.352 779.432 29.148 779.6 28.98C780.152 28.356 780.536 27.672 780.752 26.928C780.968 26.16 780.944 25.56 780.68 25.128C780.584 24.864 780.464 24.72 780.32 24.696C780.176 24.672 779.876 24.756 779.42 24.948C779.132 25.116 778.772 25.44 778.34 25.92C777.932 26.376 777.488 26.916 777.008 27.54C776.552 28.14 776.12 28.764 775.712 29.412C775.304 30.06 774.968 30.66 774.704 31.212C774.44 31.764 774.308 32.196 774.308 32.508C774.308 32.604 774.332 32.688 774.38 32.76C774.452 32.832 774.488 32.868 774.488 32.868ZM796.597 35.64C796.501 35.64 796.357 35.628 796.165 35.604C795.997 35.556 795.853 35.448 795.733 35.28C795.373 34.848 795.145 34.488 795.049 34.2C794.953 33.912 794.941 33.492 795.013 32.94C795.061 32.58 795.085 32.268 795.085 32.004C795.109 31.716 795.133 31.476 795.157 31.284C795.061 31.188 794.881 31.26 794.617 31.5C794.377 31.716 794.041 31.992 793.609 32.328C792.793 33.264 792.061 33.984 791.413 34.488C790.789 34.968 790.225 35.292 789.721 35.46C789.217 35.604 788.737 35.652 788.281 35.604C787.873 35.556 787.549 35.388 787.309 35.1C787.069 34.788 786.913 34.392 786.841 33.912C786.793 33.432 786.793 32.916 786.841 32.364C786.937 31.572 787.105 30.816 787.345 30.096C787.609 29.376 788.029 28.572 788.605 27.684C788.869 27.204 789.217 26.736 789.649 26.28C790.105 25.8 790.597 25.38 791.125 25.02C791.677 24.636 792.205 24.36 792.709 24.192C793.261 23.976 793.825 23.856 794.401 23.832C794.977 23.784 795.493 23.832 795.949 23.976C796.237 24.12 796.465 24.192 796.633 24.192C796.825 24.192 796.969 24.072 797.065 23.832C797.185 23.64 797.305 23.352 797.425 22.968C797.545 22.56 797.689 22.212 797.857 21.924L798.649 19.584C798.913 18.936 799.201 18.252 799.513 17.532C799.825 16.812 800.197 15.936 800.629 14.904C801.037 14.136 801.373 13.692 801.637 13.572C801.901 13.428 802.201 13.524 802.537 13.86C802.801 14.172 802.897 14.532 802.825 14.94C802.753 15.324 802.537 15.948 802.177 16.812C802.009 17.076 801.865 17.328 801.745 17.568C801.625 17.784 801.457 18.132 801.241 18.612C800.929 19.356 800.641 20.028 800.377 20.628C800.113 21.204 799.837 21.864 799.549 22.608C799.453 22.992 799.321 23.436 799.153 23.94C799.009 24.444 798.889 24.9 798.793 25.308C798.721 25.692 798.637 26.052 798.541 26.388C798.469 26.7 798.385 26.856 798.289 26.856C798.097 27.072 797.917 27.456 797.749 28.008C797.581 28.536 797.437 29.088 797.317 29.664C797.221 30.24 797.137 30.72 797.065 31.104C797.017 31.392 796.981 31.764 796.957 32.22C796.933 32.676 796.921 33.12 796.921 33.552C796.921 33.96 796.921 34.248 796.921 34.416C796.921 34.944 796.909 35.28 796.885 35.424C796.861 35.568 796.765 35.64 796.597 35.64ZM788.929 33.372C789.433 33.372 789.961 33.156 790.513 32.724C791.089 32.292 791.665 31.812 792.241 31.284C792.601 30.948 792.985 30.504 793.393 29.952C793.825 29.4 794.233 28.848 794.617 28.296C795.025 27.744 795.349 27.264 795.589 26.856C795.829 26.424 795.949 26.16 795.949 26.064C795.949 25.944 795.841 25.86 795.625 25.812C795.409 25.764 795.157 25.74 794.869 25.74C794.605 25.716 794.389 25.728 794.221 25.776C793.693 25.896 793.165 26.136 792.637 26.496C792.133 26.856 791.581 27.396 790.981 28.116C790.357 28.884 789.841 29.676 789.433 30.492C789.049 31.308 788.809 31.992 788.713 32.544C788.617 33.096 788.689 33.372 788.929 33.372ZM801.766 34.704C801.67 34.512 801.55 34.368 801.406 34.272C801.262 34.152 801.19 34.044 801.19 33.948C801.19 33.852 801.178 33.756 801.154 33.66C801.154 33.54 801.106 33.432 801.01 33.336C800.89 33.192 800.902 32.868 801.046 32.364C801.19 31.836 801.43 31.2 801.766 30.456C802.102 29.688 802.498 28.884 802.954 28.044C803.146 27.852 803.338 27.6 803.53 27.288C803.722 26.976 803.866 26.772 803.962 26.676C803.962 26.58 803.998 26.496 804.07 26.424C804.142 26.328 804.226 26.28 804.322 26.28V26.064C804.322 25.944 804.43 25.74 804.646 25.452C804.886 25.164 805.174 24.852 805.51 24.516C805.846 24.156 806.194 23.82 806.554 23.508C806.914 23.172 807.214 22.932 807.454 22.788C807.958 22.452 808.474 22.248 809.002 22.176C809.554 22.104 810.022 22.224 810.406 22.536C810.478 22.608 810.598 22.728 810.766 22.896C810.934 23.064 811.126 23.256 811.342 23.472C811.582 23.664 811.822 23.868 812.062 24.084L813.394 25.272L812.746 27.072C812.434 28.032 812.35 28.872 812.494 29.592C812.662 30.312 812.902 30.936 813.214 31.464C813.334 31.728 813.574 31.98 813.934 32.22C814.318 32.46 814.678 32.604 815.014 32.652C815.206 32.676 815.386 32.748 815.554 32.868C815.722 32.988 815.806 33.18 815.806 33.444C815.806 33.684 815.758 33.876 815.662 34.02C815.566 34.164 815.398 34.26 815.158 34.308C814.366 34.404 813.622 34.212 812.926 33.732C812.254 33.252 811.63 32.46 811.054 31.356C810.958 31.212 810.826 30.948 810.658 30.564C810.514 30.156 810.43 29.892 810.406 29.772C810.31 29.892 810.13 30.12 809.866 30.456C809.602 30.768 809.398 30.996 809.254 31.14C807.55 32.868 806.074 34.032 804.826 34.632C803.602 35.208 802.582 35.232 801.766 34.704ZM803.062 32.688C803.062 32.856 803.314 32.856 803.818 32.688C804.346 32.496 804.91 32.16 805.51 31.68C806.326 30.984 807.142 30.216 807.958 29.376C808.798 28.536 809.47 27.756 809.974 27.036L810.766 25.74C810.526 25.188 810.262 24.816 809.974 24.624C809.71 24.408 809.482 24.3 809.29 24.3C808.978 24.3 808.51 24.588 807.886 25.164C807.286 25.74 806.638 26.508 805.942 27.468C805.246 28.428 804.586 29.484 803.962 30.636C803.722 31.116 803.506 31.584 803.314 32.04C803.146 32.472 803.062 32.688 803.062 32.688Z" fill="black"/>
<path d="M518.66 29L510 20.3397L501.34 29L510 37.6603L518.66 29ZM510 27.5H0V30.5H510V27.5Z" fill="black"/>
<path d="M859.34 29L868 37.6603L876.66 29L868 20.3397L859.34 29ZM1378 27.5L868 27.5L868 30.5L1378 30.5L1378 27.5Z" fill="black"/>
</svg>
