<svg width="1378" height="45" viewBox="0 0 1378 45" fill="none" xmlns="http://www.w3.org/2000/svg">
<path d="M656.382 34.72C655.494 34.048 654.93 33.532 654.69 33.172C654.45 32.788 654.306 32.332 654.258 31.804C654.21 31.372 654.21 30.784 654.258 30.04C654.33 29.296 654.414 28.564 654.51 27.844C654.606 27.124 654.69 26.584 654.762 26.224C654.882 26.104 654.93 25.948 654.906 25.756C654.906 25.54 654.906 25.432 654.906 25.432C654.882 25.312 654.966 25 655.158 24.496C655.35 23.968 655.53 23.296 655.698 22.48C656.178 21.04 656.634 19.84 657.066 18.88C657.522 17.896 657.966 17.056 658.398 16.36C658.83 15.664 659.262 15.028 659.694 14.452C660.678 13.444 661.47 12.688 662.07 12.184C662.67 11.656 663.342 11.224 664.086 10.888C664.566 10.6 665.01 10.372 665.418 10.204C665.826 10.036 666.162 10.012 666.426 10.132C667.77 10.42 668.778 10.972 669.45 11.788C670.122 12.58 670.614 13.816 670.926 15.496C671.094 16.552 671.19 17.512 671.214 18.376C671.262 19.216 671.202 20.056 671.034 20.896C670.866 21.712 670.554 22.612 670.098 23.596C669.666 24.58 669.054 25.732 668.262 27.052C667.422 28.708 666.474 30.148 665.418 31.372C664.386 32.596 663.318 33.556 662.214 34.252C661.134 34.972 660.078 35.38 659.046 35.476C658.038 35.572 657.15 35.32 656.382 34.72ZM658.686 33.676C659.238 33.604 659.766 33.436 660.27 33.172C660.774 32.908 661.302 32.524 661.854 32.02C662.406 31.492 663.03 30.832 663.726 30.04C664.35 29.32 664.854 28.72 665.238 28.24C665.646 27.736 665.982 27.232 666.246 26.728C666.534 26.224 666.798 25.612 667.038 24.892C667.302 24.172 667.602 23.236 667.938 22.084C668.13 21.364 668.274 20.764 668.37 20.284C668.466 19.804 668.526 19.36 668.55 18.952C668.574 18.52 668.574 18.028 668.55 17.476C668.55 16.924 668.55 16.216 668.55 15.352C668.526 14.944 668.442 14.524 668.298 14.092C668.154 13.636 667.986 13.3 667.794 13.084C667.554 12.82 667.218 12.64 666.786 12.544C666.354 12.424 665.874 12.484 665.346 12.724C665.058 12.844 664.686 13.12 664.23 13.552C663.774 13.96 663.294 14.44 662.79 14.992C662.286 15.544 661.806 16.108 661.35 16.684C660.918 17.26 660.558 17.776 660.27 18.232C660.006 18.664 659.874 18.964 659.874 19.132C659.874 19.132 659.862 19.192 659.838 19.312C659.838 19.432 659.79 19.552 659.694 19.672C659.382 20.008 659.034 20.608 658.65 21.472C658.29 22.336 657.942 23.32 657.606 24.424C657.27 25.504 656.982 26.584 656.742 27.664C656.526 28.72 656.394 29.644 656.346 30.436C656.298 31.084 656.274 31.528 656.274 31.768C656.274 32.008 656.322 32.2 656.418 32.344C656.514 32.464 656.67 32.704 656.886 33.064C657.03 33.304 657.27 33.484 657.606 33.604C657.966 33.724 658.326 33.748 658.686 33.676ZM684.285 32.344C683.805 32.344 683.409 32.248 683.097 32.056C682.785 31.84 682.521 31.492 682.305 31.012C682.209 30.676 682.125 30.304 682.053 29.896C682.005 29.464 681.981 29.068 681.981 28.708C681.981 28.324 682.017 28.072 682.089 27.952C682.185 27.856 682.221 27.688 682.197 27.448C682.197 27.184 682.197 26.908 682.197 26.62C682.173 26.14 682.053 25.876 681.837 25.828C681.645 25.756 681.357 25.828 680.973 26.044C680.541 26.308 679.977 26.668 679.281 27.124C678.585 27.556 677.853 28.036 677.085 28.564C676.341 29.092 675.633 29.644 674.961 30.22C674.433 30.796 674.109 31.24 673.989 31.552C673.893 31.84 673.749 31.984 673.557 31.984C673.365 32.08 673.197 32.092 673.053 32.02C672.933 31.924 672.753 31.78 672.513 31.588C672.345 31.396 672.177 31.216 672.009 31.048C671.841 30.856 671.733 30.712 671.685 30.616C671.685 30.496 671.721 30.244 671.793 29.86C671.865 29.476 671.949 29.092 672.045 28.708C672.165 28.324 672.249 28.072 672.297 27.952C672.417 27.952 672.513 27.832 672.585 27.592C672.681 27.352 672.825 27.088 673.017 26.8C673.065 26.512 673.185 26.128 673.377 25.648C673.593 25.144 673.785 24.7 673.953 24.316C674.289 23.74 674.517 23.26 674.637 22.876C674.781 22.492 674.877 22.012 674.925 21.436C674.901 21.34 674.925 21.256 674.997 21.184C675.069 21.088 675.153 21.04 675.249 21.04C675.441 20.848 675.669 20.8 675.933 20.896C676.197 20.968 676.437 21.148 676.653 21.436C677.085 22.012 677.253 22.612 677.157 23.236C677.085 23.836 676.701 24.7 676.005 25.828C675.837 26.212 675.705 26.512 675.609 26.728C675.537 26.92 675.501 27.076 675.501 27.196C675.501 27.196 675.621 27.112 675.861 26.944C676.125 26.776 676.413 26.584 676.725 26.368C677.061 26.128 677.325 25.948 677.517 25.828C677.637 25.708 677.913 25.492 678.345 25.18C678.777 24.868 679.233 24.568 679.713 24.28C680.217 23.968 680.589 23.788 680.829 23.74C681.021 23.644 681.225 23.56 681.441 23.488C681.657 23.392 681.813 23.344 681.909 23.344C682.101 23.344 682.341 23.452 682.629 23.668C682.941 23.86 683.229 24.1 683.493 24.388C683.757 24.652 683.913 24.88 683.961 25.072C683.961 25.168 683.961 25.264 683.961 25.36C683.985 25.456 684.009 25.552 684.033 25.648C684.129 25.96 684.177 26.38 684.177 26.908C684.201 27.436 684.189 27.916 684.141 28.348C684.093 28.78 684.009 29.032 683.889 29.104C683.889 29.104 683.889 29.14 683.889 29.212C683.913 29.26 683.973 29.284 684.069 29.284C684.069 29.38 684.069 29.44 684.069 29.464C683.949 29.464 683.901 29.572 683.925 29.788C683.949 29.98 684.021 30.196 684.141 30.436C684.285 30.676 684.429 30.868 684.573 31.012C684.861 31.3 684.981 31.576 684.933 31.84C684.885 32.08 684.669 32.248 684.285 32.344ZM692.248 33.928C691.912 33.832 691.636 33.724 691.42 33.604C691.204 33.46 690.916 33.232 690.556 32.92C690.268 32.536 690.04 32.176 689.872 31.84C689.728 31.504 689.632 31.12 689.584 30.688C689.536 30.232 689.512 29.656 689.512 28.96C689.512 28.672 689.56 28.24 689.656 27.664C689.776 27.088 689.908 26.488 690.052 25.864C690.22 25.216 690.364 24.64 690.484 24.136C690.628 23.632 690.712 23.308 690.736 23.164C690.808 22.852 690.688 22.672 690.376 22.624C690.064 22.576 689.716 22.564 689.332 22.588C688.972 22.588 688.732 22.552 688.612 22.48C688.516 22.456 688.468 22.42 688.468 22.372C688.468 22.3 688.468 22.264 688.468 22.264C688.468 22.168 688.456 22.108 688.432 22.084C688.432 22.036 688.396 21.952 688.324 21.832C688.276 21.736 688.3 21.604 688.396 21.436C688.516 21.244 688.708 21.124 688.972 21.076C689.188 21.028 689.476 20.992 689.836 20.968C690.22 20.92 690.604 20.836 690.988 20.716C691.372 20.572 691.684 20.356 691.924 20.068C692.14 19.54 692.392 18.952 692.68 18.304C692.968 17.656 693.244 17.08 693.508 16.576C693.796 16.048 693.988 15.724 694.084 15.604C694.492 15.388 694.792 15.304 694.984 15.352C695.176 15.376 695.392 15.58 695.632 15.964C695.752 16.132 695.836 16.264 695.884 16.36C695.956 16.456 695.968 16.6 695.92 16.792C695.872 16.984 695.74 17.284 695.524 17.692C695.332 18.1 695.032 18.688 694.624 19.456C694.504 19.696 694.396 19.912 694.3 20.104C694.204 20.272 694.156 20.356 694.156 20.356C694.252 20.38 694.396 20.392 694.588 20.392C694.78 20.392 695.02 20.38 695.308 20.356C695.572 20.308 695.908 20.272 696.316 20.248C696.724 20.2 697.048 20.2 697.288 20.248C697.84 20.248 698.248 20.356 698.512 20.572C698.776 20.764 698.92 21.1 698.944 21.58C698.992 21.844 698.932 22 698.764 22.048C698.62 22.096 698.224 22.12 697.576 22.12C697.36 22.12 697.024 22.132 696.568 22.156C696.112 22.18 695.632 22.204 695.128 22.228C694.648 22.252 694.228 22.288 693.868 22.336C693.532 22.36 693.364 22.396 693.364 22.444C693.292 22.492 693.172 22.72 693.004 23.128C692.86 23.536 692.704 24.004 692.536 24.532C692.392 25.036 692.26 25.492 692.14 25.9C691.972 26.716 691.84 27.532 691.744 28.348C691.672 29.164 691.66 29.872 691.708 30.472C691.756 31.072 691.888 31.492 692.104 31.732C692.32 31.948 692.74 31.996 693.364 31.876C693.988 31.732 694.492 31.504 694.876 31.192C695.308 30.832 695.656 30.652 695.92 30.652C696.208 30.652 696.364 30.784 696.388 31.048C696.436 31.288 696.304 31.636 695.992 32.092C695.704 32.524 695.344 32.908 694.912 33.244C694.48 33.556 694.024 33.784 693.544 33.928C693.088 34.048 692.656 34.048 692.248 33.928ZM706.002 32.74C705.498 33.172 704.91 33.424 704.238 33.496C703.59 33.568 702.954 33.472 702.33 33.208C701.706 32.92 701.19 32.488 700.782 31.912C700.374 31.384 700.11 30.784 699.99 30.112C699.87 29.416 699.858 28.516 699.954 27.412C700.026 26.476 700.326 25.54 700.854 24.604C701.382 23.644 702.018 22.792 702.762 22.048C703.53 21.304 704.286 20.788 705.03 20.5C705.39 20.26 705.69 20.152 705.93 20.176C706.194 20.176 706.59 20.2 707.118 20.248C707.67 20.32 708.078 20.428 708.342 20.572C708.63 20.716 708.858 20.908 709.026 21.148C709.386 21.508 709.626 21.868 709.746 22.228C709.866 22.564 709.926 22.9 709.926 23.236C709.83 23.764 709.47 24.412 708.846 25.18C708.246 25.924 707.454 26.536 706.47 27.016C705.942 27.184 705.366 27.256 704.742 27.232C704.118 27.208 703.602 27.052 703.194 26.764C702.738 26.572 702.438 26.608 702.294 26.872C702.15 27.112 702.018 27.712 701.898 28.672C701.802 29.584 701.874 30.256 702.114 30.688C702.354 31.096 702.678 31.336 703.086 31.408C703.566 31.504 703.938 31.576 704.202 31.624C704.49 31.648 704.838 31.54 705.246 31.3C705.63 31.06 705.87 30.928 705.966 30.904C706.062 30.856 706.134 30.808 706.182 30.76C706.254 30.688 706.41 30.532 706.65 30.292C706.818 30.124 706.95 30.004 707.046 29.932C707.142 29.836 707.25 29.788 707.37 29.788C707.49 29.788 707.598 29.848 707.694 29.968C707.79 30.064 707.886 30.136 707.982 30.184C708.222 30.184 708.27 30.328 708.126 30.616C708.006 30.904 707.754 31.252 707.37 31.66C706.986 32.044 706.53 32.404 706.002 32.74ZM705.966 25.108C706.23 24.988 706.506 24.82 706.794 24.604C707.082 24.364 707.322 24.112 707.514 23.848C707.73 23.56 707.838 23.32 707.838 23.128C707.838 22.792 707.682 22.516 707.37 22.3C707.058 22.06 706.59 22.024 705.966 22.192C705.702 22.264 705.402 22.444 705.066 22.732C704.73 22.996 704.406 23.296 704.094 23.632C703.806 23.968 703.566 24.268 703.374 24.532C703.206 24.796 703.146 24.952 703.194 25C703.266 25.12 703.47 25.216 703.806 25.288C704.142 25.336 704.514 25.348 704.922 25.324C705.354 25.3 705.702 25.228 705.966 25.108ZM713.065 32.236C712.801 32.068 712.561 31.852 712.345 31.588C712.129 31.3 712.021 30.94 712.021 30.508C712.021 30.268 712.069 29.86 712.165 29.284C712.261 28.708 712.393 28.06 712.561 27.34C712.729 26.62 712.897 25.948 713.065 25.324C713.305 24.892 713.509 24.46 713.677 24.028C713.845 23.596 713.929 23.332 713.929 23.236C713.977 22.948 714.037 22.612 714.109 22.228C714.205 21.844 714.301 21.496 714.397 21.184C714.493 20.872 714.565 20.692 714.613 20.644C714.733 20.524 714.877 20.452 715.045 20.428C715.213 20.38 715.381 20.404 715.549 20.5C715.741 20.572 715.885 20.728 715.981 20.968C716.245 21.256 716.377 21.604 716.377 22.012C716.377 22.396 716.245 22.972 715.981 23.74C715.765 24.22 715.549 24.784 715.333 25.432C715.117 26.08 714.925 26.68 714.757 27.232C714.613 27.76 714.529 28.12 714.505 28.312L713.785 28.528C714.193 28.144 714.577 27.748 714.937 27.34C715.297 26.908 715.561 26.572 715.729 26.332C716.137 25.78 716.485 25.324 716.773 24.964C717.085 24.58 717.481 24.124 717.961 23.596C718.441 23.044 718.909 22.708 719.365 22.588C719.845 22.444 720.217 22.372 720.481 22.372C721.009 22.468 721.429 22.744 721.741 23.2C722.077 23.632 722.293 24.28 722.389 25.144C722.389 25.48 722.353 25.876 722.281 26.332C722.233 26.788 722.209 27.016 722.209 27.016C722.209 27.016 722.401 26.764 722.785 26.26C723.193 25.756 723.733 25.204 724.405 24.604C724.861 24.268 725.305 24.076 725.737 24.028C726.169 23.956 726.553 24.1 726.889 24.46C727.513 24.796 727.921 25.312 728.113 26.008C728.305 26.68 728.353 27.544 728.257 28.6C728.185 29.224 728.173 29.692 728.221 30.004C728.269 30.292 728.341 30.58 728.437 30.868C728.629 30.964 728.665 31.168 728.545 31.48C728.425 31.768 728.281 31.912 728.113 31.912C727.873 31.912 727.597 31.864 727.285 31.768C726.997 31.672 726.733 31.516 726.493 31.3C726.277 31.06 726.169 30.736 726.169 30.328V28.096C726.169 27.568 726.145 27.136 726.097 26.8C726.073 26.464 726.013 26.26 725.917 26.188C725.653 26.044 725.269 26.2 724.765 26.656C724.261 27.112 723.721 27.724 723.145 28.492C722.569 29.26 722.029 30.052 721.525 30.868C721.069 31.612 720.781 32.044 720.661 32.164C720.565 32.26 720.385 32.224 720.121 32.056C719.593 31.888 719.257 31.66 719.113 31.372C718.993 31.06 718.981 30.712 719.077 30.328C719.197 29.92 719.341 29.368 719.509 28.672C719.701 27.976 719.881 27.304 720.049 26.656C720.217 25.984 720.325 25.504 720.373 25.216C720.277 25.024 720.109 24.964 719.869 25.036C719.653 25.084 719.425 25.192 719.185 25.36C718.897 25.552 718.549 25.912 718.141 26.44C717.733 26.968 717.313 27.58 716.881 28.276C716.593 28.732 716.293 29.188 715.981 29.644C715.669 30.076 715.381 30.46 715.117 30.796C714.853 31.132 714.625 31.384 714.433 31.552C714.097 32.08 713.869 32.368 713.749 32.416C713.629 32.464 713.401 32.404 713.065 32.236Z" fill="black"/>
<path d="M608.66 26.9999L600 18.3397L591.34 26.9999L600 35.6602L608.66 26.9999ZM600 25.4999L-1.31134e-07 25.5L1.31134e-07 28.5L600 28.4999L600 25.4999Z" fill="black"/>
<path d="M769.34 27L778 35.6603L786.66 27L778 18.3397L769.34 27ZM1378 25.5001L778 25.5L778 28.5L1378 28.5001L1378 25.5001Z" fill="black"/>
</svg>
